<?xml version="1.0" standalone="no"?>
<!DOCTYPE svg PUBLIC "-//W3C//DTD SVG 20010904//EN"
 "http://www.w3.org/TR/2001/REC-SVG-20010904/DTD/svg10.dtd">
<svg version="1.0" xmlns="http://www.w3.org/2000/svg"
 width="736.000000pt" height="920.000000pt" viewBox="0 0 736.000000 920.000000"
 preserveAspectRatio="xMidYMid meet">

<g transform="translate(0.000000,920.000000) scale(0.100000,-0.100000)"
fill="#000000" stroke="none">
<path d="M0 8845 l0 -355 23 -4 c12 -3 69 -14 127 -25 79 -15 109 -26 122 -42
10 -11 15 -25 12 -30 -3 -5 -6 -97 -7 -205 -1 -186 0 -198 18 -204 18 -6 18
-7 -3 -12 -21 -6 -22 -12 -22 -102 0 -95 0 -96 -26 -102 -29 -7 -186 1 -221
12 l-23 6 0 -496 0 -496 38 0 c20 0 54 -3 74 -6 l37 -6 3 -149 3 -149 -77 0
-78 0 0 -108 c0 -60 2 -111 6 -114 8 -9 10 -378 2 -378 -5 0 -8 -31 -8 -69 0
-64 2 -70 23 -74 l22 -4 -22 -2 c-21 -1 -23 -6 -23 -56 l0 -55 60 0 c33 0 80
5 104 12 39 10 47 9 72 -8 16 -10 43 -21 59 -25 21 -3 6 -7 -51 -13 l-82 -8
-5 -35 c-8 -47 0 -63 34 -63 32 0 35 -6 14 -34 -8 -11 -21 -16 -30 -13 -9 4
-15 1 -15 -8 0 -8 -9 -20 -21 -28 -13 -10 -17 -17 -9 -22 6 -4 17 -2 25 5 10
8 15 8 20 0 4 -7 18 -9 31 -6 23 6 24 5 12 -14 -11 -18 -19 -20 -63 -14 -58 7
-65 10 -65 29 0 8 -16 14 -45 17 l-45 3 0 -52 c0 -35 4 -53 12 -53 9 0 9 -3 0
-12 -8 -8 -12 -46 -12 -104 l0 -93 27 -3 c37 -4 37 -32 1 -36 -24 -3 -28 -8
-28 -36 0 -29 3 -33 23 -29 24 5 57 49 57 77 0 13 14 16 83 16 45 0 98 3 119
6 31 5 37 11 41 38 7 46 0 58 -26 44 -21 -11 -21 -10 -4 9 9 11 17 30 17 44 0
13 4 31 9 38 8 12 11 9 16 -12 4 -15 4 -38 1 -51 -7 -29 15 -41 45 -25 11 5
28 8 37 6 12 -3 6 -9 -20 -21 -21 -9 -38 -20 -38 -25 0 -5 -3 -16 -6 -24 -9
-25 49 -47 105 -40 48 5 66 -3 53 -24 -7 -10 -296 -2 -382 11 -34 6 -34 5 -5
-4 38 -12 56 -52 47 -105 -7 -40 -8 -40 -56 -43 -51 -3 -74 11 -55 35 16 19 2
32 -31 30 l-29 -2 0 -666 0 -666 25 -24 c24 -22 104 -133 104 -143 0 -3 12
-22 26 -43 15 -21 23 -29 18 -18 -11 24 -11 274 0 328 9 46 23 44 54 -9 l22
-39 -6 43 -7 42 79 -5 c44 -2 115 -8 159 -13 44 -5 156 -8 248 -7 l168 2 -6
-26 c-3 -14 -12 -39 -19 -56 -44 -96 -59 -143 -82 -265 -15 -79 -32 -140 -40
-146 -13 -10 -13 -12 1 -18 13 -5 13 -11 -2 -53 -10 -26 -18 -66 -18 -88 l0
-40 62 -19 62 -19 -2 -51 c-2 -46 -5 -52 -37 -73 -42 -27 -77 -58 -82 -73 -3
-11 -29 -15 -96 -12 -35 2 -45 6 -49 22 -6 23 -34 20 -65 -7 -9 -8 -21 -12
-26 -9 -5 3 -18 -1 -28 -9 -10 -8 -28 -15 -39 -15 -11 0 -40 -14 -65 -30 -44
-29 -80 -39 -80 -21 0 5 6 12 12 15 9 3 8 8 -5 16 -9 6 -15 15 -12 20 3 4 5
66 6 138 l0 129 32 -3 c17 -2 36 -9 41 -14 15 -15 41 -12 67 9 l24 19 -29 12
c-18 6 -51 8 -83 4 -46 -5 -53 -4 -53 10 0 12 7 16 22 14 14 -2 22 2 21 10 -2
6 5 12 15 12 15 1 15 2 -2 15 -11 8 -16 18 -13 22 4 4 12 2 19 -5 6 -6 29 -9
59 -5 33 4 49 2 49 -6 0 -6 -4 -11 -10 -11 -5 0 -10 -7 -10 -15 0 -12 14 -15
70 -13 62 2 72 -1 86 -20 8 -12 13 -26 9 -31 -3 -6 1 -13 8 -18 8 -4 26 -27
42 -50 15 -24 29 -43 30 -43 5 0 0 24 -6 35 -4 6 -11 26 -18 45 -6 19 -22 48
-36 64 -21 24 -22 30 -10 42 7 8 20 14 27 14 8 0 6 4 -5 11 -9 5 -21 8 -26 4
-5 -3 -12 -1 -16 5 -3 5 1 10 9 10 9 0 16 5 16 10 0 6 -11 10 -24 10 -13 0
-29 6 -35 14 -13 16 14 22 124 30 47 3 -27 4 -313 5 l-123 1 -19 43 c-11 23
-18 33 -15 22 2 -11 11 -49 20 -85 9 -36 18 -127 20 -205 l4 -140 -10 125
c-14 183 -77 381 -144 454 -11 12 -26 33 -33 47 -22 40 -41 63 -49 56 -3 -4 8
-27 25 -51 18 -24 32 -49 32 -55 0 -6 4 -11 8 -11 5 0 14 -18 21 -40 6 -22 16
-40 21 -40 4 0 11 -18 15 -40 4 -22 10 -38 15 -35 4 2 10 -21 14 -53 23 -222
27 -293 21 -443 -5 -130 -4 -172 7 -188 14 -23 34 -27 41 -8 4 9 6 9 6 0 1 -7
-9 -23 -20 -34 -16 -16 -23 -18 -29 -9 -13 21 -21 -57 -25 -246 -2 -99 -7
-254 -10 -346 -7 -157 -6 -166 11 -170 11 -2 31 0 46 5 l27 8 0 132 c1 73 3
164 6 202 3 39 7 120 10 180 5 125 13 175 29 180 6 2 29 7 51 11 l40 7 -35 8
c-19 4 -42 3 -52 -2 -16 -9 -18 -4 -18 56 0 39 4 65 11 65 6 0 8 9 4 21 -5 16
-3 20 6 17 8 -3 14 -11 14 -19 1 -8 7 -13 14 -11 7 1 18 -1 25 -6 17 -15 93
-27 273 -45 41 -4 0 -28 -58 -33 -63 -6 -71 -11 -44 -27 22 -13 39 -17 97 -22
37 -3 216 -23 273 -30 17 -2 33 -4 37 -4 4 -1 23 -25 42 -54 33 -50 38 -53 68
-48 l33 5 -33 6 c-57 9 -100 100 -46 100 14 0 22 -4 19 -10 -3 -5 7 -12 22
-15 15 -4 39 -11 52 -16 29 -12 62 -3 55 16 -4 10 3 13 30 12 20 -1 36 -5 36
-9 0 -5 7 -8 16 -8 11 0 14 6 9 20 -6 18 -2 20 54 20 68 0 77 -2 73 -13 -1 -4
10 1 25 12 26 18 110 50 176 65 33 8 36 26 5 26 -21 0 -21 1 6 15 15 8 38 15
50 15 11 0 30 7 40 15 11 8 34 15 50 15 58 0 106 12 106 26 0 8 -9 14 -20 14
-11 0 -28 7 -38 16 -9 8 -36 29 -59 45 -24 16 -43 34 -43 39 0 6 30 10 68 11
37 1 87 3 112 5 25 2 86 0 135 -4 105 -10 125 -7 125 20 0 15 -4 17 -18 9 -35
-19 -128 -24 -158 -8 -16 8 -53 18 -81 22 -29 4 -53 11 -53 15 0 5 -8 11 -17
14 -10 3 -36 39 -57 80 l-39 74 21 34 c22 36 71 86 73 75 1 -4 2 -10 3 -14 1
-5 4 -13 8 -19 4 -6 8 -24 10 -40 2 -29 3 -29 55 -26 30 2 59 -1 66 -6 7 -7
18 -7 26 -2 8 4 21 6 29 2 10 -3 13 -1 8 6 -4 7 13 10 56 9 35 -2 80 0 101 4
20 3 37 3 37 -2 0 -5 7 -6 15 -3 15 6 22 45 8 43 -21 -3 -31 3 -36 22 -4 15
-2 18 7 10 9 -7 16 -7 24 1 20 20 43 1 36 -29 -4 -16 -9 -32 -12 -38 -3 -5 -5
-26 -3 -47 2 -37 2 -38 -24 -28 -39 15 -85 13 -85 -4 0 -8 -3 -21 -6 -30 -4
-12 0 -16 15 -16 12 0 37 -7 56 -14 39 -17 44 -36 21 -91 -9 -21 -12 -44 -7
-62 7 -25 13 -29 67 -35 84 -11 104 -17 104 -32 0 -7 11 -25 25 -40 14 -15 23
-32 20 -37 -4 -5 0 -9 7 -10 26 -2 73 3 83 9 6 4 45 7 88 8 44 1 84 8 93 14
11 10 18 10 32 -4 10 -9 23 -16 29 -16 5 0 20 -9 33 -20 18 -15 37 -20 86 -20
34 0 64 -3 66 -7 5 -13 91 -53 123 -58 17 -2 46 -8 65 -12 33 -8 64 -9 118 -5
12 1 22 9 22 17 0 11 9 14 31 13 20 -2 34 2 37 11 3 10 0 12 -11 8 -19 -7 -52
16 -43 31 3 6 16 9 27 7 24 -5 38 23 18 35 -7 5 -11 12 -7 15 5 5 104 13 191
14 36 1 35 21 -2 21 -16 0 -31 4 -33 9 -5 14 -139 73 -154 67 -9 -4 -14 2 -14
15 0 18 4 20 28 14 15 -4 55 -9 90 -11 58 -3 63 -2 57 16 -3 10 -1 21 5 25 20
12 10 35 -22 51 -25 12 -78 59 -78 68 0 1 -4 15 -9 32 -8 29 -7 31 13 26 11
-3 26 -8 31 -12 6 -4 37 -13 70 -20 33 -7 71 -18 85 -25 55 -27 220 -49 270
-35 15 4 24 13 24 23 -2 23 17 21 68 -4 84 -42 227 -105 254 -113 21 -6 44
-44 44 -71 0 -30 45 -46 132 -47 68 -1 92 -5 133 -26 83 -41 288 -132 299
-132 11 0 -275 143 -319 160 -14 5 -25 15 -25 21 0 20 168 6 220 -18 25 -11
67 -24 95 -28 27 -4 78 -17 113 -30 36 -13 71 -21 80 -18 10 4 13 2 8 -5 -5
-9 11 -12 61 -12 69 0 98 -10 98 -31 0 -6 23 -17 50 -25 28 -7 81 -24 118 -38
94 -35 228 -57 342 -55 52 1 95 4 95 8 -1 7 -92 76 -102 76 -3 0 -10 4 -15 9
-10 11 96 -3 120 -16 12 -6 30 -5 53 4 27 10 39 10 54 0 11 -7 32 -12 47 -12
21 0 24 3 13 10 -23 15 -2 25 48 23 26 -1 51 2 57 7 5 4 37 11 70 15 33 4 77
15 97 25 26 13 47 16 70 11 18 -4 71 -6 118 -4 47 2 108 -2 135 -9 28 -6 59
-12 70 -13 49 -4 105 -18 105 -27 0 -5 5 -6 10 -3 6 3 14 -4 19 -17 10 -23 10
-22 10 5 1 24 21 41 21 17 0 -7 7 -7 20 0 24 13 40 5 40 -19 0 -9 11 -27 25
-39 14 -12 25 -27 25 -33 0 -23 23 -2 26 23 2 20 -1 25 -11 21 -19 -7 -46 22
-39 41 3 9 11 13 17 9 6 -4 27 -7 46 -8 27 -1 42 5 58 23 13 16 27 23 37 19 9
-4 16 -2 16 3 0 6 18 10 40 10 22 0 40 -4 40 -9 0 -5 10 -11 23 -13 14 -2 21
-9 19 -19 -1 -11 7 -18 28 -22 33 -7 41 -27 11 -27 -24 0 -37 -18 -23 -32 5
-5 29 -14 52 -19 46 -10 64 0 53 29 -8 19 -54 68 -73 76 -8 3 4 4 28 1 25 -3
42 -1 42 5 0 5 -18 10 -40 10 -23 0 -40 5 -40 11 0 17 87 6 138 -16 23 -10 42
-25 42 -32 0 -20 -20 -16 -21 5 0 10 -3 12 -6 5 -2 -7 -11 -13 -18 -13 -9 0
-12 -16 -10 -60 2 -44 -1 -60 -11 -60 -7 0 -15 4 -18 8 -9 15 -90 13 -111 -2
-11 -8 -17 -18 -13 -22 4 -4 14 -1 23 6 15 12 40 11 138 -8 33 -6 45 -6 37 2
-20 20 -10 34 30 41 l39 7 1 323 c0 250 -3 324 -12 328 -10 4 -10 6 0 6 9 1
12 617 12 3046 l0 3045 -1627 0 -1628 0 -34 -30 c-36 -32 -46 -36 -56 -20 -9
15 -25 12 -19 -4 3 -7 -6 -21 -20 -30 -15 -9 -26 -21 -26 -27 0 -5 15 1 33 15
49 38 53 32 7 -10 -21 -20 -44 -33 -49 -30 -5 4 -12 2 -16 -3 -3 -6 -13 -7
-22 -4 -11 4 -14 3 -9 -5 5 -8 0 -12 -13 -12 -12 0 -20 -6 -18 -12 1 -7 -3
-12 -10 -11 -7 2 -10 -4 -7 -12 8 -19 13 -19 38 2 12 10 1 -4 -24 -30 -47 -49
-60 -57 -60 -32 0 8 -5 15 -11 15 -5 0 -7 -5 -4 -10 4 -6 -14 -20 -39 -31 -52
-23 -83 -68 -67 -97 6 -9 11 -12 11 -6 0 7 7 15 15 18 13 5 12 1 -2 -18 -17
-23 -18 -24 -27 -5 -11 24 -28 25 -24 2 2 -12 -3 -18 -14 -17 -10 1 -14 -4
-11 -12 5 -14 -12 -20 -20 -6 -2 4 -2 1 -1 -5 2 -7 -3 -13 -11 -13 -8 0 -15
-9 -15 -20 0 -11 4 -20 10 -20 5 0 6 7 3 17 -4 10 -2 14 4 10 6 -4 22 3 37 14
14 11 26 16 26 10 0 -6 -4 -11 -8 -11 -5 0 -37 -29 -73 -65 -35 -36 -68 -65
-72 -65 -5 0 -6 4 -3 8 2 4 0 14 -6 22 -8 12 -9 11 -4 -4 5 -14 2 -17 -9 -12
-9 3 -13 2 -10 -4 3 -6 -1 -10 -9 -10 -9 0 -16 -6 -16 -13 0 -8 -12 -19 -26
-26 -21 -9 -24 -14 -14 -26 17 -21 -36 -85 -65 -78 -13 3 -16 1 -8 -4 18 -12
-89 -116 -110 -107 -8 3 -18 1 -22 -5 -4 -7 1 -8 12 -4 16 6 16 4 -2 -17 -41
-47 -147 -145 -158 -146 -32 -3 -36 -5 -31 -19 4 -9 0 -15 -9 -15 -9 0 -19 -4
-22 -10 -4 -6 1 -7 12 -4 10 3 -13 -24 -52 -59 -49 -46 -72 -62 -78 -54 -6 8
-7 7 -4 -4 7 -21 -11 -39 -32 -32 -12 3 -13 2 -3 -4 9 -7 -13 -34 -84 -101
-53 -51 -100 -92 -104 -92 -16 0 -22 21 -15 60 6 33 30 62 172 207 91 92 170
173 175 178 54 55 371 372 379 380 6 6 64 62 128 125 64 63 138 135 165 159
27 24 66 64 87 90 38 47 83 94 153 156 l40 35 -797 0 -797 0 0 -21 c0 -11 5
-29 10 -40 7 -13 7 -19 0 -19 -5 0 -10 -6 -10 -13 0 -17 -60 -68 -82 -70 -10
-1 -18 -5 -18 -9 0 -4 -17 -8 -37 -8 -20 0 -45 -7 -55 -16 -14 -13 -21 -14
-32 -5 -9 7 -24 10 -36 6 -12 -4 -27 -1 -35 5 -8 7 -22 9 -31 6 -22 -8 -40 4
-23 15 9 6 -1 9 -30 9 -37 0 -42 2 -31 15 10 13 9 15 -9 15 -12 0 -19 5 -16
10 3 6 1 10 -4 10 -6 0 -11 6 -11 14 0 8 -7 17 -16 20 -9 4 -14 13 -10 21 3 9
0 15 -8 15 -9 0 -12 7 -9 20 5 20 0 20 -921 20 l-926 0 0 -355z m3930 191 c0
-3 -4 -8 -10 -11 -5 -3 -10 -1 -10 4 0 6 5 11 10 11 6 0 10 -2 10 -4z m-150
-133 c0 -5 -5 -15 -10 -23 -8 -12 -10 -11 -10 8 0 12 5 22 10 22 6 0 10 -3 10
-7z m-286 -286 c-7 -19 -64 -60 -64 -47 0 11 50 59 62 60 4 0 5 -6 2 -13z
m-1849 -181 c60 -12 105 -35 114 -59 12 -31 19 -137 9 -131 -4 3 -8 0 -8 -5 0
-33 -136 -104 -151 -79 -3 5 -10 9 -15 8 -41 -8 -170 41 -159 60 4 6 2 10 -3
10 -14 0 -35 98 -26 128 4 15 8 31 8 37 1 5 20 17 44 25 44 17 118 19 187 6z
m-208 -502 c-3 -3 -12 -4 -19 -1 -8 3 -5 6 6 6 11 1 17 -2 13 -5z m288 -4 c3
-5 -1 -10 -9 -10 -8 0 -18 5 -21 10 -3 6 1 10 9 10 8 0 18 -4 21 -10z m-98 -6
c-3 -3 -12 -4 -19 -1 -8 3 -5 6 6 6 11 1 17 -2 13 -5z m-107 -13 c0 -5 -9 -7
-20 -4 -11 3 -20 7 -20 9 0 2 9 4 20 4 11 0 20 -4 20 -9z m155 -1 c9 -14 58
-13 73 2 8 8 15 8 21 3 6 -6 5 -14 -2 -20 -15 -13 -140 3 -131 16 7 12 31 12
39 -1z m162 4 c-3 -3 -12 -4 -19 -1 -8 3 -5 6 6 6 11 1 17 -2 13 -5z m134 -17
c-6 -8 -8 -17 -4 -20 3 -4 -3 -7 -15 -7 -26 0 -27 4 -6 24 19 20 41 22 25 3z
m-51 -17 c0 -5 -7 -10 -16 -10 -8 0 -12 5 -9 10 3 6 10 10 16 10 5 0 9 -4 9
-10z m-322 -27 c84 -8 160 -12 169 -9 8 4 48 0 87 -8 39 -8 146 -22 239 -32
92 -10 167 -21 167 -26 0 -11 -5 -11 -197 8 -153 15 -167 15 -175 0 -14 -26
-82 -21 -110 7 -21 22 -41 26 -232 45 -115 12 -214 26 -220 32 -11 11 10 10
272 -17z m455 10 c-7 -2 -19 -2 -25 0 -7 3 -2 5 12 5 14 0 19 -2 13 -5z m27
-1573 c0 -5 -4 -10 -10 -10 -5 0 -10 5 -10 10 0 6 5 10 10 10 6 0 10 -4 10
-10z m3420 -20 c0 -5 -4 -10 -10 -10 -5 0 -10 5 -10 10 0 6 5 10 10 10 6 0 10
-4 10 -10z m-3470 -10 c0 -5 -4 -10 -10 -10 -5 0 -10 5 -10 10 0 6 5 10 10 10
6 0 10 -4 10 -10z m117 4 c-3 -3 -12 -4 -19 -1 -8 3 -5 6 6 6 11 1 17 -2 13
-5z m-1548 -548 c16 -10 24 -67 12 -79 -8 -8 -11 -3 -11 20 0 27 -4 31 -37 37
-21 3 -126 9 -233 13 -120 5 -178 10 -150 14 54 7 406 3 419 -5z m360 -12
c166 -10 76 -24 -123 -18 -189 5 -206 7 -206 25 0 9 86 7 329 -7z m5381 -18
c0 -14 -29 -31 -38 -22 -2 3 -2 12 1 21 8 19 37 20 37 1z m-5554 -77 c3 -6 0
-18 -9 -26 -28 -28 -157 -30 -157 -2 0 29 149 54 166 28z m-186 -29 c0 -7 -14
-8 -37 -4 -52 9 -54 14 -5 14 23 0 42 -5 42 -10z m380 -5 c0 -17 -4 -18 -51
-8 -33 7 -33 7 -9 14 41 12 60 10 60 -6z m924 -20 c-4 -8 -10 -15 -15 -15 -5
0 -9 7 -9 15 0 8 7 15 15 15 9 0 12 -6 9 -15z m-1554 -18 c0 -13 5 -28 12 -35
8 -8 8 -15 -2 -27 -17 -21 -5 -31 14 -12 13 12 37 14 143 10 70 -3 136 -10
146 -15 22 -11 23 -71 0 -93 -14 -14 -29 -16 -105 -10 -79 6 -88 5 -88 -10 0
-9 -6 -15 -12 -12 -7 2 -12 10 -11 16 2 6 -8 11 -21 11 -19 0 -22 -4 -19 -25
5 -23 4 -24 -26 -15 -23 6 -31 6 -30 -3 3 -27 -2 -47 -11 -47 -6 0 -8 10 -4
24 4 18 1 25 -15 29 -30 7 -28 47 2 48 12 1 28 1 35 0 14 -2 15 8 4 27 -7 10
-15 10 -36 2 -35 -13 -36 -13 -36 5 0 8 5 15 10 15 6 0 10 7 10 15 0 8 5 15
10 15 6 0 10 25 10 55 0 30 5 55 10 55 6 0 10 -10 10 -23z m671 -18 c11 -5 19
-15 19 -21 0 -6 7 -19 16 -29 14 -15 12 -18 -20 -38 -42 -26 -81 -20 -113 18
-24 27 -30 61 -12 61 5 0 8 3 6 8 -7 11 83 13 104 1z m4213 5 c11 -4 16 -19
16 -45 0 -24 5 -39 12 -39 8 0 9 -3 2 -10 -6 -6 -40 -8 -87 -4 l-77 7 0 48 0
49 59 0 c33 0 66 -3 75 -6z m821 -64 c18 -20 18 -21 -5 -45 -41 -44 -100 -29
-100 26 0 21 6 29 23 32 47 9 65 6 82 -13z m-3094 0 c10 -6 19 -20 19 -31 0
-13 11 -25 35 -35 46 -19 44 -26 -4 -18 -27 4 -46 2 -60 -8 -31 -22 -72 -11
-84 22 -6 15 -22 35 -36 43 l-26 16 37 1 c20 0 40 5 43 10 8 13 51 13 76 0z
m-966 -10 c3 -5 -1 -10 -10 -10 -9 0 -13 5 -10 10 3 6 8 10 10 10 2 0 7 -4 10
-10z m4363 -24 c9 -42 -40 -116 -75 -116 -18 0 -16 50 2 74 8 11 15 28 15 37
0 31 53 35 58 5z m-2458 0 c21 -8 28 -16 21 -21 -9 -5 -8 -12 5 -26 16 -18 16
-19 0 -19 -9 0 -28 -7 -41 -16 -33 -22 -55 -15 -76 26 -19 35 -19 35 3 52 28
21 46 22 88 4z m-2120 -21 c14 -7 25 -22 25 -32 0 -10 7 -18 15 -18 22 -1 40
-14 40 -31 0 -10 -12 -14 -39 -14 -31 0 -40 -4 -46 -22 -5 -17 -8 -19 -12 -8
-10 29 -31 37 -79 30 -79 -12 -106 9 -67 52 17 19 43 24 43 8 0 -5 5 -10 11
-10 6 0 8 8 4 19 -11 37 56 54 105 26z m2678 -12 c2 -15 -4 -23 -18 -28 -30
-10 -45 7 -30 35 14 26 44 22 48 -7z m-2128 2 c11 -13 15 -13 22 -3 6 11 10
10 17 -1 6 -9 11 -10 15 -2 4 6 29 11 56 11 44 0 50 -3 69 -36 33 -55 29 -64
-31 -64 -37 0 -61 6 -78 20 -32 25 -52 25 -68 0 -24 -38 -92 -11 -92 37 0 45
62 71 90 38z m2788 -48 c22 -17 13 -36 -20 -40 -32 -4 -32 -4 5 -5 36 -2 38
-4 35 -29 -3 -25 -7 -28 -47 -31 -24 -2 -51 0 -60 4 -9 4 -20 8 -26 8 -12 1
-19 71 -10 95 6 15 7 14 16 -1 13 -24 25 -23 32 2 4 17 10 20 34 14 15 -4 34
-11 41 -17z m-2291 -19 c-2 -7 -20 -13 -40 -13 -60 -1 -41 21 21 24 15 1 22
-4 19 -11z m563 -8 c13 -9 12 -12 -5 -26 -11 -8 -26 -19 -34 -23 -10 -6 -11
-13 -2 -29 6 -11 11 -29 11 -40 0 -26 -43 -26 -66 -1 -15 17 -15 23 -4 44 14
26 68 85 79 85 3 0 13 -5 21 -10z m858 -6 c21 -6 32 -34 12 -34 -5 0 -10 5
-10 12 0 9 -3 9 -12 0 -12 -12 -78 -17 -78 -6 0 11 34 33 50 34 8 0 25 -3 38
-6z m429 -10 c3 -9 1 -19 -5 -23 -8 -5 -123 -6 -174 -2 -5 1 -8 10 -8 21 0 19
7 20 90 20 74 0 92 -3 97 -16z m-1194 -6 c9 -7 19 -26 23 -42 6 -25 5 -28 -15
-21 -17 5 -21 2 -21 -15 0 -32 -21 -110 -30 -110 -16 0 -21 52 -7 69 16 17 7
61 -13 61 -17 0 -11 48 8 59 23 14 35 13 55 -1z m96 -21 c11 -18 24 -45 30
-60 9 -23 8 -29 -7 -34 -9 -4 -20 -11 -24 -17 -9 -14 -38 12 -38 35 0 11 7 19
15 19 8 0 15 9 15 20 0 11 -4 20 -8 20 -5 0 -14 11 -20 25 -18 39 12 33 37 -8z
m821 18 c0 -12 -13 -15 -55 -15 -42 0 -55 3 -55 15 0 12 13 15 55 15 42 0 55
-3 55 -15z m-1532 -12 c2 -8 -5 -13 -17 -13 -12 0 -21 6 -21 16 0 18 31 15 38
-3z m2846 -15 c-5 -8 0 -9 17 -3 60 20 80 11 160 -69 33 -32 35 -44 15 -71
-16 -22 -48 -14 -44 11 2 10 -9 23 -28 33 -17 9 -29 22 -27 28 5 14 -25 25
-33 11 -4 -5 0 -14 7 -19 10 -6 6 -9 -13 -9 -29 0 -48 -18 -26 -24 7 -2 32 -9
55 -16 71 -22 65 -64 -8 -58 -30 3 -35 0 -31 -14 3 -12 -1 -18 -12 -18 -9 0
-16 7 -16 16 0 17 -36 54 -52 54 -4 0 -14 15 -22 33 l-15 32 6 -32 c6 -34 4
-36 -49 -47 -24 -5 -28 -3 -28 15 0 15 5 19 15 15 18 -6 19 -2 4 25 -5 11 -7
29 -4 40 9 28 79 71 128 78 5 0 5 -4 1 -11z m-3586 -30 c2 -11 -3 -18 -12 -18
-9 0 -16 5 -16 10 0 6 -7 10 -15 10 -8 0 -15 5 -15 11 0 18 55 6 58 -13z m88
14 c7 -4 14 -20 15 -36 4 -29 3 -29 -43 -31 -53 -3 -62 11 -32 53 15 22 39 28
60 14z m77 -7 c1 -5 -6 -11 -15 -13 -11 -2 -18 3 -18 13 0 17 30 18 33 0z m95
-2 c2 -7 -3 -13 -11 -13 -8 0 -17 -10 -20 -22 -5 -18 -8 -19 -21 -8 -21 16
-20 30 2 46 20 16 44 14 50 -3z m327 7 c3 -5 -3 -10 -14 -10 -12 0 -21 5 -21
10 0 6 6 10 14 10 8 0 18 -4 21 -10z m182 -14 c3 -3 0 -12 -7 -21 -14 -17 -50
-20 -50 -4 0 6 -7 3 -16 -5 -8 -9 -17 -16 -19 -16 -11 0 -60 31 -58 37 5 18
133 26 150 9z m3403 -6 c0 -5 -4 -10 -10 -10 -5 0 -10 5 -10 10 0 6 5 10 10
10 6 0 10 -4 10 -10z m-2910 -10 c0 -5 -5 -10 -11 -10 -5 0 -7 5 -4 10 3 6 8
10 11 10 2 0 4 -4 4 -10z m-1884 -10 c23 0 16 -19 -10 -26 -26 -6 -66 10 -66
28 0 6 12 8 31 4 17 -3 38 -6 45 -6z m-116 -10 c0 -5 -7 -10 -15 -10 -8 0 -15
5 -15 10 0 6 7 10 15 10 8 0 15 -4 15 -10z m3074 4 c20 -8 11 -24 -15 -24 -10
0 -19 7 -19 15 0 16 9 19 34 9z m-2764 -14 c0 -5 -7 -10 -15 -10 -8 0 -15 5
-15 10 0 6 7 10 15 10 8 0 15 -4 15 -10z m1285 0 c3 -5 -1 -10 -10 -10 -9 0
-13 5 -10 10 3 6 8 10 10 10 2 0 7 -4 10 -10z m2114 -15 c10 -10 -11 -35 -29
-35 -24 0 -61 30 -53 43 5 8 72 1 82 -8z m-3779 -26 c0 -12 -27 -11 -35 1 -11
17 5 32 21 19 8 -6 14 -15 14 -20z m-79 9 c2 -18 1 -21 -6 -40 -4 -11 0 -18
14 -23 26 -8 27 -25 2 -25 -16 0 -32 19 -35 42 -1 3 -4 10 -8 14 -5 4 -8 16
-8 26 0 20 39 26 41 6z m449 -10 c25 -5 69 -7 98 -4 28 4 52 4 52 2 0 -2 -19
-13 -42 -24 -32 -16 -46 -19 -61 -10 -14 7 -22 7 -27 -2 -4 -7 -13 -9 -20 -5
-9 6 -9 10 1 17 9 6 3 7 -19 3 -26 -5 -37 -3 -47 12 -20 25 -18 37 3 28 9 -4
37 -12 62 -17z m-1210 2 c0 -13 -11 -13 -30 0 -12 8 -11 10 8 10 12 0 22 -4
22 -10z m1030 -10 c0 -5 -4 -10 -10 -10 -5 0 -10 5 -10 10 0 6 5 10 10 10 6 0
10 -4 10 -10z m635 -4 c22 -8 46 -23 53 -35 15 -22 9 -71 -9 -71 -6 0 -8 9 -4
20 8 24 -22 29 -31 5 -4 -10 -20 -14 -56 -13 -40 0 -52 5 -65 25 -9 13 -13 26
-9 30 3 3 1 12 -5 19 -6 7 -8 18 -4 24 9 14 83 12 130 -4z m-755 0 c0 -11 -19
-15 -25 -6 -3 5 1 10 9 10 9 0 16 -2 16 -4z m1900 -6 c0 -5 -4 -10 -10 -10 -5
0 -10 5 -10 10 0 6 5 10 10 10 6 0 10 -4 10 -10z m-2114 -35 c4 -8 12 -15 19
-15 8 0 17 -4 20 -10 4 -6 -8 -10 -29 -10 -32 0 -36 3 -36 25 0 27 17 34 26
10z m276 -2 c23 -21 23 -36 -1 -57 -14 -13 -24 -14 -45 -7 -30 12 -33 27 -10
59 18 26 31 28 56 5z m1198 7 c0 -5 -4 -10 -10 -10 -5 0 -10 5 -10 10 0 6 5
10 10 10 6 0 10 -4 10 -10z m-1350 -4 c0 -3 -4 -8 -10 -11 -5 -3 -10 -1 -10 4
0 6 5 11 10 11 6 0 10 -2 10 -4z m2107 -58 c-2 -13 -4 -3 -4 22 0 25 2 35 4
23 2 -13 2 -33 0 -45z m2273 41 c0 -5 -7 -9 -15 -9 -15 0 -20 12 -9 23 8 8 24
-1 24 -14z m-4109 -11 c23 -26 24 -40 2 -36 -9 2 -20 15 -24 31 -9 33 -3 34
22 5z m3252 15 c4 -3 2 -12 -4 -20 -9 -9 -8 -13 0 -13 6 0 11 5 11 11 0 7 10
9 28 4 33 -8 53 -25 30 -25 -9 0 -18 -7 -22 -15 -3 -8 -16 -15 -30 -15 -15 0
-25 -7 -29 -20 -5 -21 -27 -28 -27 -9 0 7 -12 8 -32 4 l-33 -6 33 20 c18 12
38 21 45 21 6 1 1 7 -13 15 -17 10 -20 14 -9 15 9 0 19 9 22 20 5 20 18 26 30
13z m1097 3 c0 -3 -4 -8 -10 -11 -5 -3 -10 -1 -10 4 0 6 5 11 10 11 6 0 10 -2
10 -4z m-1372 -18 c-3 -7 -17 -13 -33 -13 -16 0 -30 6 -32 13 -3 8 7 12 32 12
25 0 35 -4 33 -12z m-1221 -41 c9 -18 16 -37 15 -44 -1 -6 2 -14 8 -18 16 -10
12 -25 -5 -19 -17 7 -41 51 -50 95 -9 39 8 32 32 -14z m-2719 21 c-5 -13 -53
-29 -62 -20 -17 17 -3 32 30 32 23 0 34 -4 32 -12z m178 3 c-6 -10 -133 -21
-153 -14 -35 14 -5 23 73 23 47 0 83 -4 80 -9z m2654 -41 c0 -5 -2 -10 -4 -10
-3 0 -8 5 -11 10 -3 6 -1 10 4 10 6 0 11 -4 11 -10z m130 5 c0 -14 -25 -55
-36 -59 -10 -4 -9 3 3 29 14 29 33 47 33 30z m-1894 -60 c10 -26 20 -35 37
-35 13 0 27 -3 30 -6 6 -7 60 -14 107 -16 43 -1 58 -16 66 -64 9 -59 -2 -70
-51 -50 -20 9 -41 13 -46 11 -4 -3 -31 -3 -59 1 l-50 7 0 45 c0 48 -15 49 -22
2 -3 -28 -31 -38 -54 -19 -12 10 -14 24 -9 58 4 25 11 50 16 56 5 5 9 17 9 27
0 28 10 21 26 -17z m3404 20 c0 -8 -4 -15 -10 -15 -5 0 -7 7 -4 15 4 8 8 15
10 15 2 0 4 -7 4 -15z m1110 -35 c0 -5 -4 -10 -10 -10 -5 0 -10 5 -10 10 0 6
5 10 10 10 6 0 10 -4 10 -10z m-251 -78 c20 -16 69 -50 109 -76 39 -26 72 -53
72 -59 0 -8 3 -8 11 0 18 18 1 50 -31 62 -20 7 -30 17 -30 30 0 12 4 21 8 21
5 0 14 10 21 23 11 21 11 21 6 -4 -8 -43 22 -62 76 -50 75 18 84 15 87 -25 1
-21 -2 -33 -8 -29 -14 9 -110 -43 -110 -60 0 -17 -16 -20 -26 -4 -3 6 -15 8
-26 6 -14 -4 -18 -2 -14 9 3 9 -1 14 -13 14 -11 0 -22 6 -25 13 -5 10 -7 10
-12 0 -7 -16 -34 -17 -34 -2 0 5 -5 7 -11 3 -8 -4 -7 -9 2 -15 10 -6 9 -12 -6
-29 l-18 -20 -23 21 c-13 12 -24 36 -26 53 -2 20 -8 30 -17 28 -18 -4 -51 36
-51 61 0 22 27 57 43 57 5 0 26 -13 46 -28z m-1546 -43 c-6 -6 -9 -18 -6 -26
4 -11 0 -14 -18 -11 -16 2 -25 11 -27 26 -3 19 1 22 29 22 24 0 30 -3 22 -11z
m2025 -2 c6 -5 12 -22 12 -39 0 -25 -3 -29 -17 -22 -10 4 -39 7 -65 7 -43 -1
-47 1 -57 29 -6 17 -11 32 -11 32 0 6 128 -1 138 -7z m286 -13 c18 -7 22 -24
5 -24 -6 0 -17 7 -25 15 -16 16 -7 19 20 9z m-5879 -51 c-8 -35 -10 -37 -32
-29 -16 7 -16 9 -2 19 9 7 14 18 12 25 -3 6 3 12 12 12 14 0 16 -6 10 -27z
m3940 17 c3 -5 1 -10 -4 -10 -6 0 -11 5 -11 10 0 6 2 10 4 10 3 0 8 -4 11 -10z
m2055 6 c0 -3 -4 -8 -10 -11 -5 -3 -10 -1 -10 4 0 6 5 11 10 11 6 0 10 -2 10
-4z m40 -16 c0 -5 -4 -10 -10 -10 -5 0 -10 5 -10 10 0 6 5 10 10 10 6 0 10 -4
10 -10z m-1574 -29 c-10 -16 -36 -13 -36 3 0 17 21 27 34 16 4 -5 5 -13 2 -19z
m1066 -14 c15 -23 7 -29 -29 -22 -47 9 -53 12 -53 32 0 12 7 14 37 8 21 -4 41
-12 45 -18z m-4462 3 c0 -5 -7 -10 -16 -10 -8 0 -12 5 -9 10 3 6 10 10 16 10
5 0 9 -4 9 -10z m798 -18 c2 -8 -8 -11 -32 -10 -20 2 -36 4 -36 5 0 1 3 8 6
16 6 17 55 9 62 -11z m300 8 c26 -16 32 -26 32 -54 0 -19 5 -38 10 -41 14 -9
-7 -35 -26 -35 -8 0 -14 -4 -14 -10 0 -5 7 -10 16 -10 9 0 14 -5 12 -11 -6
-17 -99 -39 -187 -43 -84 -5 -135 -22 -127 -43 6 -15 4 -15 -18 -7 -9 3 -16
12 -16 19 0 7 -10 20 -22 29 -22 16 -22 16 17 11 l40 -6 -35 20 c-48 27 -77
27 -83 -1 -2 -13 -5 1 -6 30 -1 40 4 57 19 72 11 11 24 20 29 20 5 0 12 7 15
16 3 9 13 13 23 11 33 -9 78 -16 64 -10 -17 7 44 29 133 48 82 18 86 18 124
-5z m570 5 c30 -6 32 -9 32 -45 0 -30 -4 -40 -16 -40 -11 0 -14 -5 -10 -16 6
-15 0 -16 -46 -11 -29 4 -68 7 -85 7 -32 0 -33 1 -33 45 0 48 19 64 21 18 0
-16 3 -21 6 -13 2 8 7 22 10 30 4 8 5 20 5 26 -2 10 51 10 116 -1z m3207 5 c3
-5 1 -10 -4 -10 -6 0 -11 5 -11 10 0 6 2 10 4 10 3 0 8 -4 11 -10z m-3389 -45
c-6 -20 -12 -29 -14 -21 -7 31 -18 15 -14 -19 5 -38 -1 -43 -57 -47 -28 -3
-34 1 -36 17 -1 11 -5 36 -9 56 -9 43 -3 47 72 45 28 0 52 3 52 7 0 5 4 6 9 3
4 -3 3 -22 -3 -41z m-2566 20 c0 -8 -4 -15 -10 -15 -5 0 -10 7 -10 15 0 8 5
15 10 15 6 0 10 -7 10 -15z m-75 -18 c0 -7 10 -13 23 -15 25 -4 32 -42 7 -42
-8 0 -15 5 -15 10 0 6 -9 10 -20 10 -26 0 -36 25 -20 45 13 16 25 12 25 -8z
m270 13 c-3 -5 -11 -10 -16 -10 -6 0 -7 5 -4 10 3 6 11 10 16 10 6 0 7 -4 4
-10z m4769 -8 c3 -5 -1 -9 -9 -9 -8 0 -12 4 -9 9 3 4 7 8 9 8 2 0 6 -4 9 -8z
m104 -42 c0 -48 -5 -55 -35 -51 -7 1 -13 -5 -13 -12 0 -18 -21 -27 -66 -27
-35 0 -35 0 -38 65 -1 13 -8 20 -21 20 -15 0 -19 -8 -21 -43 -1 -24 -5 -46 -7
-49 -11 -11 -65 -9 -60 2 2 7 -3 12 -12 12 -9 0 -14 -6 -11 -14 3 -7 1 -13 -4
-13 -6 0 -10 7 -10 16 0 8 -5 12 -11 9 -6 -4 -8 -13 -5 -21 3 -8 1 -14 -4 -14
-6 0 -10 9 -10 19 0 11 -5 21 -11 23 -8 3 -10 16 -5 41 4 21 11 35 16 32 5 -3
11 -1 14 4 3 5 22 12 42 15 19 4 43 10 52 13 15 4 15 3 2 -6 -13 -9 -13 -11 2
-11 9 0 24 7 32 16 15 14 16 14 16 -1 0 -13 6 -16 25 -13 14 3 28 1 31 -3 8
-14 24 -10 24 6 0 9 10 15 26 15 14 0 23 4 19 10 -3 6 5 10 18 10 23 0 25 -4
25 -50z m126 35 c-4 -8 -8 -15 -10 -15 -2 0 -4 7 -4 15 0 8 4 15 10 15 5 0 7
-7 4 -15z m139 -18 c9 -3 17 -16 17 -28 l0 -22 -25 23 c-14 13 -25 31 -25 39
0 10 3 12 8 5 4 -6 15 -13 25 -17z m-3934 -16 c8 -5 9 -11 3 -15 -5 -3 -7 -16
-5 -29 5 -27 -21 -97 -36 -97 -15 0 -14 11 3 24 26 20 29 53 7 75 -24 24 -26
37 -8 44 18 8 21 8 36 -2z m-1319 -15 c0 -8 -4 -18 -10 -21 -5 -3 -10 3 -10
14 0 12 5 21 10 21 6 0 10 -6 10 -14z m1165 -46 c3 -5 1 -10 -4 -10 -6 0 -11
5 -11 10 0 6 2 10 4 10 3 0 8 -4 11 -10z m1186 -2 c1 -7 0 -23 -1 -35 -1 -13
3 -23 9 -23 14 0 39 -61 53 -125 6 -27 14 -55 19 -61 5 -6 6 -14 2 -17 -3 -4
-1 -7 5 -7 7 0 12 -9 12 -20 0 -19 5 -20 45 -15 37 4 53 0 88 -22 23 -14 53
-38 67 -52 14 -14 36 -33 49 -41 33 -22 71 -91 71 -132 0 -54 -33 -79 -101
-75 -30 1 -53 7 -52 12 1 6 -12 24 -28 41 -22 23 -29 38 -25 52 6 16 -1 23
-38 38 -25 11 -50 29 -55 41 -12 25 -2 30 18 11 10 -11 12 -7 9 17 -2 24 -7
30 -25 28 -15 -2 -23 3 -23 12 0 8 7 15 15 15 8 0 15 9 15 19 0 16 -6 18 -29
15 -26 -4 -29 -2 -36 33 -5 21 -7 42 -6 47 1 5 -10 22 -25 37 -15 16 -24 29
-21 29 4 0 3 9 -3 20 -6 11 -20 20 -31 20 -17 0 -18 -3 -9 -20 12 -23 7 -25
-21 -10 -10 6 -19 18 -19 26 0 25 -32 72 -52 77 -30 8 -20 21 40 49 63 31 81
34 83 16z m149 2 c0 -5 9 -10 20 -10 13 0 20 -7 20 -19 0 -23 -16 -30 -57 -24
-35 6 -44 28 -21 51 15 15 38 16 38 2z m-891 -11 c45 -16 44 -50 -5 -101 -5
-6 -9 -25 -7 -42 2 -28 2 -29 -5 -6 -4 14 -14 25 -21 25 -11 0 -14 -19 -12
-82 2 -70 0 -83 -13 -83 -12 0 -16 11 -16 51 0 28 -4 48 -9 44 -5 -3 -11 0
-14 7 -2 7 -2 0 0 -17 l4 -30 -16 28 c-14 25 -14 30 -1 49 9 13 13 31 10 45
-4 15 -2 23 6 23 9 0 11 10 7 30 -5 22 -3 30 8 30 8 0 15 9 15 20 0 23 21 26
69 9z m1111 -51 c0 -27 -4 -38 -12 -36 -14 5 -30 66 -23 87 10 27 35 -10 35
-51z m-3451 18 c14 -15 11 -16 -31 -16 l-47 0 -3 -67 c-2 -53 -6 -68 -18 -68
-21 0 -32 84 -14 106 8 8 14 28 14 44 0 27 1 27 41 22 23 -3 49 -13 58 -21z
m5564 -25 c-2 -6 10 -11 26 -11 22 0 30 -5 33 -24 4 -18 0 -26 -14 -29 -26 -7
-83 46 -74 68 7 18 33 15 29 -4z m-4863 -1 c0 -5 -4 -10 -9 -10 -6 0 -13 5
-16 10 -3 6 1 10 9 10 9 0 16 -4 16 -10z m3968 -19 c52 5 65 -7 37 -35 -8 -8
-15 -21 -15 -30 0 -22 -20 -31 -21 -9 0 15 -2 14 -9 -4 -12 -29 -50 -40 -66
-19 -8 11 -14 13 -19 7 -3 -6 0 -11 7 -11 9 0 9 -3 -2 -10 -8 -5 -29 -10 -47
-10 -33 0 -51 14 -33 25 6 4 8 10 5 15 -3 5 -1 28 6 50 10 33 17 40 43 45 67
10 91 10 94 -3 2 -7 11 -12 20 -11z m-1822 -3 c0 -12 -8 -23 -16 -26 -12 -4
-12 -2 -3 8 10 11 9 16 -5 26 -16 12 -15 13 4 14 16 0 21 -6 20 -22z m2485 6
c8 -10 12 -44 12 -95 0 -43 4 -79 8 -79 5 0 9 -12 9 -28 0 -15 4 -41 9 -58 9
-31 -1 -64 -19 -64 -6 0 -16 16 -24 35 -8 19 -21 35 -29 35 -17 0 -57 80 -63
124 -14 117 -13 135 4 139 38 10 80 6 93 -9z m-1066 -4 c3 -5 15 -10 26 -10
21 0 22 -1 13 -24 -4 -11 -19 -16 -50 -16 -48 0 -55 11 -27 42 18 20 29 23 38
8z m-2777 -6 c20 -6 22 -12 21 -62 -2 -47 -4 -52 -15 -37 -7 9 -11 22 -8 28 5
14 -33 61 -56 70 -21 8 29 8 58 1z m1302 -8 c0 -8 6 -17 13 -19 6 -3 -3 -8
-20 -12 -31 -7 -32 -9 -18 -28 19 -27 19 -67 2 -67 -20 0 -35 40 -30 80 l5 36
-41 -4 c-30 -3 -41 0 -41 10 0 10 17 14 65 16 50 1 65 -2 65 -12z m1965 4 c-3
-5 1 -10 9 -10 9 0 16 5 16 10 0 6 5 10 10 10 6 0 10 -9 10 -21 l0 -21 18 21
c15 20 22 21 72 14 51 -8 55 -10 51 -33 -1 -14 -7 -28 -13 -31 -5 -3 -8 -10
-7 -15 1 -5 -1 -22 -6 -38 l-8 -28 -66 8 c-36 4 -74 7 -83 8 -11 0 -18 9 -19
21 -1 17 -2 17 -6 3 -2 -10 -9 -18 -15 -18 -6 0 -7 7 -2 18 4 9 9 38 12 65 3
33 8 47 19 47 8 0 11 -4 8 -10z m-2927 -39 c3 -30 1 -33 -17 -28 -12 3 -21 1
-21 -4 0 -5 4 -9 9 -9 5 0 11 -8 15 -17 3 -10 9 -24 12 -30 3 -7 2 -13 -3 -13
-15 1 -43 70 -43 106 0 31 3 35 23 32 17 -2 23 -11 25 -37z m1512 29 c0 -5 -4
-10 -10 -10 -5 0 -10 5 -10 10 0 6 5 10 10 10 6 0 10 -4 10 -10z m-2270 -10
c0 -5 -7 -10 -15 -10 -8 0 -15 5 -15 10 0 6 7 10 15 10 8 0 15 -4 15 -10z
m4846 -1 c3 -6 1 -16 -4 -21 -13 -13 -45 8 -36 23 7 12 31 11 40 -2z m-3322
-8 c3 -4 3 -11 0 -14 -8 -8 -34 3 -34 14 0 11 27 12 34 0z m-2034 -31 c0 -20
-23 -32 -45 -24 -20 8 -19 31 2 42 22 13 43 4 43 -18z m4953 -2 c42 -18 60
-40 32 -39 -81 1 -145 27 -145 58 0 18 42 10 113 -19z m-2813 -8 c0 -5 -4 -10
-10 -10 -5 0 -10 5 -10 10 0 6 5 10 10 10 6 0 10 -4 10 -10z m1480 -7 c0 -5
-5 -15 -10 -23 -8 -12 -10 -11 -10 8 0 12 5 22 10 22 6 0 10 -3 10 -7z m1648
-4 c-2 -6 -8 -10 -13 -10 -5 0 -11 4 -13 10 -2 6 4 11 13 11 9 0 15 -5 13 -11z
m-3378 -40 c0 -4 -5 -11 -11 -15 -8 -4 -7 -9 2 -15 8 -5 9 -9 3 -9 -5 0 -19 7
-30 15 -16 12 -17 16 -5 24 13 8 13 12 0 27 -13 16 -12 16 14 0 15 -10 27 -22
27 -27z m140 21 c0 -5 -7 -10 -15 -10 -8 0 -15 5 -15 10 0 6 7 10 15 10 8 0
15 -4 15 -10z m2090 0 c0 -5 -2 -10 -4 -10 -3 0 -8 5 -11 10 -3 6 -1 10 4 10
6 0 11 -4 11 -10z m1880 -5 c0 -9 -9 -15 -21 -15 -18 0 -19 2 -9 15 7 8 16 15
21 15 5 0 9 -7 9 -15z m-5533 -20 c2 -6 -15 -11 -37 -11 -39 -1 -53 9 -27 20
19 8 60 2 64 -9z m1473 -10 c0 -17 -2 -18 -24 -9 -23 9 -20 24 4 24 11 0 20
-7 20 -15z m2201 -5 c5 0 9 -6 9 -14 0 -9 8 -12 25 -8 22 4 25 1 25 -27 0 -26
-4 -31 -25 -31 -14 0 -25 5 -25 10 0 6 -7 10 -15 10 -8 0 -15 8 -15 18 0 14
-2 15 -10 2 -8 -12 -10 -12 -16 3 -9 25 3 50 22 43 9 -3 20 -6 25 -6z m1099 0
c0 -5 -4 -10 -10 -10 -5 0 -10 5 -10 10 0 6 5 10 10 10 6 0 10 -4 10 -10z
m-4867 -40 c4 -17 0 -20 -24 -20 -33 0 -33 -1 -19 35 8 22 13 25 24 16 8 -7
16 -21 19 -31z m2427 9 c0 -6 -4 -7 -10 -4 -5 3 -10 11 -10 16 0 6 5 7 10 4 6
-3 10 -11 10 -16z m2840 6 c0 -9 7 -27 16 -41 13 -18 14 -28 6 -36 -16 -16
-42 8 -42 38 0 12 -4 26 -10 29 -17 10 -11 25 10 25 11 0 20 -7 20 -15z m-87
-2 c-7 -2 -19 -2 -25 0 -7 3 -2 5 12 5 14 0 19 -2 13 -5z m-98 -13 c-25 -10
-65 -48 -65 -60 0 -5 25 -42 55 -81 30 -39 55 -73 55 -75 0 -3 -11 3 -25 12
-14 9 -25 21 -25 26 0 5 -16 30 -35 55 -19 25 -35 53 -35 62 0 19 29 57 50 64
25 9 47 7 25 -3z m-5015 -10 c0 -5 -2 -10 -4 -10 -3 0 -8 5 -11 10 -3 6 -1 10
4 10 6 0 11 -4 11 -10z m1600 0 c0 -5 -4 -10 -10 -10 -5 0 -10 5 -10 10 0 6 5
10 10 10 6 0 10 -4 10 -10z m1175 -30 c-3 -4 -17 -5 -32 -2 -19 4 -23 7 -10
10 9 2 17 11 17 20 1 15 2 15 15 -2 8 -10 12 -22 10 -26z m-855 15 c13 -15 8
-19 -22 -16 -9 1 -19 -3 -23 -9 -3 -5 -15 -10 -26 -10 -18 0 -18 1 3 25 25 28
50 32 68 10z m491 5 c26 -14 24 -33 -6 -46 -28 -13 -35 -9 -35 21 0 35 10 41
41 25z m1459 -15 c13 -14 21 -28 17 -31 -8 -8 -67 37 -61 48 9 13 19 9 44 -17z
m-605 -6 c5 -6 5 -13 -3 -21 -7 -7 -12 -22 -12 -34 0 -36 -11 -54 -31 -54 -10
0 -19 -7 -19 -15 0 -10 -10 -15 -28 -15 -31 0 -67 -22 -82 -51 -10 -17 -6 -22
32 -38 33 -14 47 -28 61 -60 23 -51 42 -48 42 7 0 22 3 43 6 47 4 3 25 1 48
-5 48 -13 57 -36 11 -26 -22 4 -30 2 -30 -9 0 -11 12 -15 43 -15 31 0 38 -3
27 -10 -13 -9 -7 -14 13 -11 18 3 5 -40 -15 -48 -28 -11 -88 -66 -88 -80 0 -6
7 -11 15 -11 18 0 20 -17 3 -23 -10 -3 -10 -7 -2 -18 9 -11 4 -20 -23 -42
l-33 -29 0 61 c0 34 -5 67 -11 74 -15 18 -125 189 -143 225 -18 36 -31 42 -23
13 3 -12 -3 -27 -14 -37 -22 -20 -38 -12 -20 10 7 8 10 19 8 23 -3 5 0 22 8
38 7 17 25 60 41 97 23 54 33 68 54 71 37 6 153 -4 165 -14z m693 9 c14 -14
16 -58 3 -58 -12 0 -27 20 -35 48 -8 25 11 31 32 10z m-3522 -40 c-3 -13 -6
-29 -6 -35 0 -7 -4 -13 -10 -13 -5 0 -10 16 -10 35 0 26 4 35 16 35 12 0 15
-6 10 -22z m864 -21 c0 -20 -25 1 -28 24 -2 23 -2 23 13 5 8 -11 15 -24 15
-29z m480 23 c0 -5 -5 -12 -11 -16 -14 -8 -33 11 -25 25 7 11 36 4 36 -9z
m2434 4 c3 -8 2 -12 -4 -9 -6 3 -10 10 -10 16 0 14 7 11 14 -7z m-4264 -4 c0
-5 -4 -10 -10 -10 -5 0 -10 5 -10 10 0 6 5 10 10 10 6 0 10 -4 10 -10z m2823
0 c7 -6 23 -18 36 -28 24 -18 22 -42 -2 -42 -11 0 -57 59 -57 73 0 10 9 9 23
-3z m1155 -26 c-4 -3 -12 5 -18 18 -12 22 -12 22 6 6 10 -10 15 -20 12 -24z
m1090 13 c2 -10 -3 -17 -12 -17 -9 0 -16 2 -16 4 0 2 -3 12 -6 21 -5 13 -2 16
12 13 10 -2 20 -11 22 -21z m-268 -25 c0 -7 -4 -10 -10 -7 -5 3 -10 16 -10 28
0 18 2 19 10 7 5 -8 10 -21 10 -28z m-910 -1 c26 -30 134 -118 154 -125 14 -5
16 -9 7 -19 -8 -10 -3 -33 18 -88 24 -61 39 -83 90 -129 62 -57 107 -135 132
-231 14 -53 6 -95 -14 -68 -7 9 -22 21 -33 27 -18 9 -25 8 -35 -5 -8 -8 -14
-23 -14 -32 0 -12 -14 -17 -60 -21 -73 -6 -144 -41 -145 -71 0 -16 34 -18 50
-4 17 15 80 32 80 21 0 -3 -18 -15 -40 -26 -31 -16 -40 -26 -40 -46 0 -20 4
-25 17 -20 10 4 26 -3 43 -19 l26 -25 18 37 c11 21 21 33 23 26 2 -6 -3 -25
-11 -42 -12 -23 -16 -62 -16 -166 0 -77 -4 -135 -9 -135 -5 0 -21 4 -35 10
-29 10 -35 0 -11 -20 18 -15 20 -44 3 -57 -29 -23 -46 -20 -82 11 l-37 31 15
36 c12 28 13 49 7 90 -5 30 -6 59 -2 64 12 19 7 124 -7 130 -9 3 -12 14 -7 33
3 16 2 38 -2 50 -8 22 -9 21 -58 -13 -28 -19 -63 -45 -79 -57 -15 -12 -39 -27
-52 -34 -12 -7 -44 -28 -70 -48 -46 -35 -48 -36 -73 -20 -44 28 -111 85 -111
94 0 5 15 18 33 29 76 49 74 44 32 105 -44 64 -55 69 -133 64 -54 -3 -57 -2
-59 22 -2 16 8 36 27 58 33 35 46 41 36 16 -6 -15 -1 -16 41 -9 27 4 110 10
186 14 l137 6 -31 38 c-21 26 -27 38 -17 41 19 7 77 2 72 -5 -2 -4 9 -12 25
-19 16 -6 37 -20 47 -31 24 -27 31 -24 26 11 -6 39 18 40 72 4 41 -28 101 -50
90 -32 -3 5 -36 23 -73 40 -52 23 -76 29 -113 25 -57 -5 -55 8 2 18 33 6 52 1
106 -24 37 -17 72 -31 79 -31 7 0 29 -11 49 -25 47 -32 51 -31 30 5 -20 33
-88 86 -119 91 -11 3 -20 9 -20 16 0 6 -20 27 -45 46 -25 19 -55 54 -67 79
-26 51 -57 83 -72 73 -6 -3 -14 -24 -17 -46 -4 -21 -12 -39 -19 -39 -6 0 -17
-12 -24 -26 -6 -15 -14 -24 -17 -21 -3 3 3 22 14 44 59 117 75 242 25 192 -9
-9 -14 -3 -20 21 -7 25 -17 36 -38 43 -58 19 -60 30 -11 44 26 8 46 20 46 27
0 30 53 28 80 -3z m1395 9 c4 -6 4 -18 1 -27 -5 -12 -9 -13 -21 -3 -8 7 -15
19 -15 26 0 16 26 19 35 4z m-5285 -10 c0 -5 -7 -10 -15 -10 -8 0 -15 5 -15
10 0 6 7 10 15 10 8 0 15 -4 15 -10z m1780 -6 c0 -8 -4 -12 -10 -9 -5 3 -10
10 -10 16 0 5 5 9 10 9 6 0 10 -7 10 -16z m2260 -86 c0 -16 -21 -7 -27 10 -3
9 -17 29 -31 44 -26 28 -25 29 18 41 11 2 18 -10 27 -42 7 -25 12 -49 13 -53z
m-2360 85 c0 -5 -5 -15 -10 -23 -8 -12 -10 -11 -10 8 0 12 5 22 10 22 6 0 10
-3 10 -7z m2703 -63 c15 -30 42 -69 59 -87 23 -23 37 -53 50 -105 19 -75 17
-114 -8 -180 -7 -21 -11 -44 -8 -53 4 -8 -1 -17 -10 -21 -9 -3 -16 -15 -16
-25 0 -19 1 -19 30 2 16 12 27 26 24 30 -2 4 0 10 6 14 15 9 24 -23 11 -39 -6
-7 -14 -41 -17 -75 -6 -50 -10 -61 -25 -61 -10 0 -22 8 -28 17 -5 9 -21 17
-35 18 l-26 0 -5 120 c-3 73 0 133 7 154 12 37 -5 141 -23 141 -14 0 -30 -49
-31 -92 0 -38 -14 -51 -24 -24 -3 8 -6 36 -7 63 -2 42 0 48 17 45 13 -3 17 1
13 12 -4 9 0 19 9 24 13 7 12 12 -2 41 -9 18 -20 47 -25 65 -4 17 -11 41 -15
54 -6 21 -4 23 22 20 24 -2 34 -13 57 -58z m384 34 c-9 -9 -28 6 -21 18 4 6
10 6 17 -1 6 -6 8 -13 4 -17z m53 0 c0 11 38 -15 126 -85 40 -31 84 -59 98
-63 16 -4 26 -13 26 -24 0 -10 6 -24 13 -32 17 -20 -16 4 -71 52 -29 25 -52
36 -70 35 -21 -2 -28 3 -30 20 -2 16 -12 23 -44 28 -33 6 -42 13 -54 41 -16
38 -18 56 -4 34 5 -8 10 -11 10 -6z m-4090 -24 c11 -11 25 -20 30 -20 6 0 19
-14 30 -32 l19 -32 -40 -12 c-48 -14 -64 -11 -101 24 -30 28 -39 86 -15 96 20
8 56 -3 77 -24z m2042 16 c10 -7 21 -24 27 -37 11 -29 2 -121 -10 -113 -5 3
-23 -6 -40 -20 -35 -29 -80 -34 -103 -10 -18 18 -21 86 -6 130 18 53 92 81
132 50z m1728 -2 c0 -17 -22 -14 -28 4 -2 7 3 12 12 12 9 0 16 -7 16 -16z
m-3390 -14 c0 -16 7 -20 33 -20 19 0 37 -3 41 -7 4 -4 17 -8 29 -8 17 0 21 -5
19 -24 -1 -14 -5 -27 -7 -30 -3 -2 -29 2 -59 11 -50 14 -55 13 -76 -4 -31 -25
-74 -20 -78 10 -2 12 2 22 8 22 6 0 24 16 41 35 35 40 49 44 49 15z m251 5
c-1 -6 -9 -10 -19 -10 -9 0 -21 -3 -27 -6 -5 -3 -18 -9 -28 -12 -30 -11 -8 12
26 27 35 16 49 16 48 1z m2252 -4 c-3 -10 0 -28 6 -39 9 -18 7 -22 -21 -31
-17 -6 -40 -18 -49 -27 -26 -23 -35 -11 -31 36 4 38 8 44 46 61 52 23 55 23
49 0z m604 4 c1 -5 -13 -11 -32 -12 -34 -2 -43 6 -28 21 10 10 56 3 60 -9z
m-2400 -39 c-4 -9 9 -27 31 -46 l37 -31 -45 25 c-46 26 -67 66 -35 66 11 0 15
-5 12 -14z m298 4 c3 -5 -1 -10 -9 -10 -9 0 -16 5 -16 10 0 6 4 10 9 10 6 0
13 -4 16 -10z m-1670 -20 c3 -5 2 -10 -4 -10 -5 0 -13 5 -16 10 -3 6 -2 10 4
10 5 0 13 -4 16 -10z m4890 -11 c0 -7 -8 -15 -17 -17 -18 -3 -25 18 -11 32 10
10 28 1 28 -15z m-6213 1 c2 -5 26 -11 53 -14 28 -3 50 -6 50 -7 0 -1 37 -2
82 -3 45 -1 85 -4 88 -8 4 -4 19 -5 34 -2 22 4 28 0 39 -25 11 -25 11 -35 -1
-63 -9 -18 -18 -40 -20 -48 -4 -11 -6 -10 -6 3 -1 16 -8 18 -43 17 -24 -2
-107 -2 -185 -1 l-143 1 0 74 c0 63 3 75 18 79 28 8 30 7 34 -3z m1751 3 c-7
-2 -21 -2 -30 0 -10 3 -4 5 12 5 17 0 24 -2 18 -5z m2797 -13 c0 -5 -2 -10 -4
-10 -3 0 -8 5 -11 10 -3 6 -1 10 4 10 6 0 11 -4 11 -10z m-2825 -10 c3 -5 -1
-10 -10 -10 -9 0 -13 5 -10 10 3 6 8 10 10 10 2 0 7 -4 10 -10z m4575 -25 c0
-8 -6 -15 -14 -15 -9 0 -12 -7 -9 -20 3 -12 0 -20 -7 -20 -7 0 -10 -7 -6 -15
7 -20 -20 -31 -38 -16 -15 12 -19 64 -5 55 5 -3 16 11 24 31 14 31 18 34 35
25 11 -6 20 -17 20 -25z m-3350 -9 c0 -3 -7 -3 -15 0 -8 4 -15 13 -15 21 0 12
2 12 15 -1 8 -8 15 -17 15 -20z m1665 24 c3 -5 2 -10 -4 -10 -5 0 -13 5 -16
10 -3 6 -2 10 4 10 5 0 13 -4 16 -10z m1125 0 c0 -5 -4 -10 -10 -10 -5 0 -10
5 -10 10 0 6 5 10 10 10 6 0 10 -4 10 -10z m-2023 -6 c-3 -3 -12 -4 -19 -1 -8
3 -5 6 6 6 11 1 17 -2 13 -5z m970 -16 c-3 -8 -6 -5 -6 6 -1 11 2 17 5 13 3
-3 4 -12 1 -19z m-1822 -17 c9 -18 11 -32 5 -36 -10 -6 -50 15 -50 28 0 4 5 5
10 2 6 -3 10 3 10 14 0 29 7 26 25 -8z m3355 19 c0 -5 -5 -10 -11 -10 -5 0 -7
5 -4 10 3 6 8 10 11 10 2 0 4 -4 4 -10z m-3249 -52 c-16 -35 -19 -37 -14 -13
7 36 23 69 30 62 2 -3 -5 -25 -16 -49z m-1381 35 c0 -10 -80 -83 -90 -83 -16
0 -11 20 7 27 21 8 53 40 53 53 0 6 7 10 15 10 8 0 15 -3 15 -7z m2133 -12
c-4 -14 2 -20 24 -24 15 -3 62 -13 103 -22 41 -9 89 -17 105 -17 17 1 24 -2
18 -4 -7 -3 -13 -11 -13 -16 0 -6 2 -9 5 -6 4 3 24 2 46 -3 43 -10 100 -56 77
-63 -7 -2 -32 -9 -56 -15 -23 -7 -57 -25 -75 -41 -32 -27 -34 -28 -45 -10 -14
24 -60 55 -68 47 -3 -3 1 -16 10 -29 27 -38 21 -58 -18 -58 -25 0 -35 5 -39
20 -3 11 -11 20 -17 20 -20 0 -5 -93 30 -185 27 -72 29 -87 24 -160 -5 -71 5
-168 33 -306 5 -27 4 -27 -44 -21 -26 2 -50 9 -51 14 -3 5 -9 5 -15 0 -17 -13
-100 -22 -128 -14 -13 4 -33 12 -44 19 -17 10 -18 15 -8 32 11 17 10 23 -9 40
-19 19 -21 27 -14 106 4 58 11 92 22 102 11 11 14 26 10 47 -36 196 -34 214
24 251 29 18 40 32 40 50 0 14 -5 25 -11 25 -6 0 -9 10 -7 23 3 20 8 22 58 19
97 -5 123 14 91 70 -11 20 -20 26 -36 22 -13 -3 -31 2 -45 14 l-23 19 22 37
c25 40 31 45 24 17z m1295 7 c18 -18 15 -40 -5 -36 -10 1 -23 -1 -30 -5 -20
-13 -26 13 -7 34 20 22 26 23 42 7z m92 -44 c0 -17 -24 -18 -38 -1 -5 6 -13
23 -17 36 l-7 24 31 -22 c17 -12 31 -29 31 -37z m-646 10 c15 -15 32 -62 25
-68 -2 -2 -17 -6 -32 -10 -24 -6 -30 -3 -34 14 -3 11 -9 20 -15 20 -5 0 -4 -9
2 -21 13 -24 13 -24 -17 -33 -13 -4 -23 -3 -23 2 0 17 -44 30 -62 18 -9 -5
-20 -8 -23 -5 -10 11 27 69 53 84 36 19 106 19 126 -1z m1576 -27 c0 -5 -4 -5
-10 -2 -5 3 -10 14 -10 23 0 15 2 15 10 2 5 -8 10 -19 10 -23z m-5340 1 c0 -7
-5 -20 -10 -28 -7 -12 -12 -12 -21 -3 -9 9 -9 16 1 28 15 18 30 20 30 3z
m1144 -14 c3 -8 2 -12 -4 -9 -6 3 -10 10 -10 16 0 14 7 11 14 -7z m1296 -8 c0
-18 -17 -29 -30 -21 -8 5 -7 11 1 21 15 18 29 18 29 0z m-2506 -12 c4 -10 1
-14 -6 -12 -15 5 -23 28 -10 28 5 0 13 -7 16 -16z m1450 1 c-4 -8 -17 -15 -30
-15 -29 0 -69 -34 -59 -49 3 -6 17 -8 31 -5 23 6 24 4 24 -38 0 -24 5 -49 12
-56 14 -14 12 -82 -2 -96 -6 -6 -10 -30 -11 -56 0 -33 -2 -40 -9 -25 -18 45
-40 134 -41 166 0 19 -6 52 -14 74 -12 39 -13 39 -14 10 -1 -29 12 -103 44
-249 10 -49 12 -80 6 -105 -5 -20 -12 -67 -16 -106 -3 -38 -8 -94 -11 -123
l-5 -52 -37 4 c-25 3 -36 8 -33 17 23 79 32 127 38 197 8 103 -15 337 -34 353
-20 17 -16 40 17 100 25 47 34 55 67 60 70 11 83 10 77 -6z m1406 -61 c0 -41
-4 -63 -10 -59 -5 3 -10 35 -10 71 0 41 4 63 10 59 6 -3 10 -35 10 -71z
m-3275 56 c6 -1 -1 -6 -15 -12 -14 -6 -29 -10 -35 -9 -35 9 -140 -1 -155 -14
-9 -8 -22 -15 -28 -15 -7 0 -12 -4 -12 -10 0 -5 -3 -10 -7 -10 -7 0 -9 46 -5
74 2 6 169 4 257 -4z m4866 -10 l24 -21 -32 16 c-32 15 -42 25 -24 25 5 0 19
-9 32 -20z m955 -15 c9 -8 11 -15 6 -15 -5 0 -15 7 -22 15 -7 8 -9 15 -6 15 4
0 14 -7 22 -15z m-4796 -5 c0 -5 -4 -10 -10 -10 -5 0 -10 5 -10 10 0 6 5 10
10 10 6 0 10 -4 10 -10z m1410 -5 c7 -9 10 -19 6 -22 -8 -9 -38 9 -44 25 -5
17 23 15 38 -3z m460 8 c0 -10 -32 -43 -42 -43 -4 0 -8 5 -8 10 0 6 7 10 15
10 9 0 12 6 9 15 -4 9 0 15 10 15 9 0 16 -3 16 -7z m2878 -11 c3 -9 -2 -13
-14 -10 -9 1 -19 9 -22 16 -3 9 2 13 14 10 9 -1 19 -9 22 -16z m92 8 c0 -5 -2
-10 -4 -10 -3 0 -8 5 -11 10 -3 6 -1 10 4 10 6 0 11 -4 11 -10z m-4020 -10 c0
-5 -4 -10 -10 -10 -5 0 -10 5 -10 10 0 6 5 10 10 10 6 0 10 -4 10 -10z m3818
-25 c17 -19 34 -30 37 -25 9 15 25 12 25 -5 0 -8 7 -15 15 -15 8 0 15 5 15 10
0 15 27 12 61 -6 44 -22 34 -50 -26 -69 -16 -5 -17 -8 -5 -15 23 -14 -31 -23
-64 -11 -36 14 -36 14 -36 -9 0 -12 -8 -21 -22 -24 -13 -3 -35 -7 -51 -11 -15
-3 -53 1 -85 9 -31 8 -69 17 -84 20 -35 8 -36 29 -3 44 35 16 71 15 133 -3 50
-15 116 -12 127 5 3 4 -6 11 -19 14 -35 9 -83 52 -90 81 -14 56 28 61 72 10z
m-4900 4 c17 -7 32 -19 32 -26 0 -7 9 -13 20 -13 11 0 20 -4 20 -10 0 -5 7
-10 15 -10 8 0 15 -4 15 -10 0 -5 8 -10 18 -10 10 0 22 -4 27 -9 6 -5 29 -11
52 -15 l43 -6 -6 30 c-5 25 -3 30 12 30 17 0 17 1 -2 15 -16 13 -17 16 -4 25
11 7 18 5 26 -6 10 -13 14 -13 26 -1 59 60 237 34 238 -35 0 -9 4 -19 8 -22 8
-5 4 -116 -4 -125 -2 -3 -10 3 -17 13 -12 16 -14 16 -39 -3 -14 -12 -33 -21
-41 -21 -8 0 -20 -7 -27 -15 -7 -8 -16 -13 -20 -10 -8 5 -40 -54 -40 -74 0 -6
-4 -11 -10 -11 -5 0 -10 11 -10 25 0 28 -19 75 -31 75 -4 0 -15 -7 -23 -16
-15 -14 -17 -14 -23 2 -4 10 -2 19 5 22 22 7 12 21 -22 33 -19 7 -33 16 -30
21 3 4 -1 9 -8 10 -23 2 -32 5 -51 13 -10 4 -21 5 -24 1 -4 -3 2 -6 11 -6 35
0 8 -25 -30 -28 -39 -3 -67 -18 -60 -31 3 -4 -8 -12 -24 -19 -22 -10 -30 -22
-35 -52 -8 -49 -25 -53 -25 -6 0 41 -22 62 -63 57 -23 -2 -35 3 -49 21 -9 12
-18 18 -18 13 0 -6 -9 -11 -20 -12 -15 -1 -20 4 -20 21 0 19 -4 22 -25 18 -15
-2 -25 0 -25 7 0 6 12 11 28 11 24 1 25 2 10 14 -23 17 -24 40 -1 32 13 -5 11
0 -6 18 -29 31 -24 40 13 27 21 -9 26 -8 26 6 0 9 3 13 6 10 4 -3 22 6 40 21
38 31 84 35 142 11z m2225 -9 c-3 -11 0 -27 7 -35 14 -17 6 -50 -10 -40 -5 3
-10 29 -10 56 0 28 4 48 9 45 5 -3 7 -15 4 -26z m-570 -8 c14 -12 21 -13 24
-5 5 13 28 4 63 -24 8 -6 17 -11 20 -10 13 2 89 -57 93 -73 6 -24 0 -30 -35
-30 -16 0 -31 -6 -34 -15 -4 -8 -25 -18 -48 -22 l-41 -7 65 -13 c36 -6 83 -13
105 -14 36 -1 34 -2 -17 -9 -36 -5 -75 -18 -107 -38 l-51 -32 0 33 c0 49 -11
60 -54 52 -42 -8 -46 -1 -10 18 l27 14 -32 6 c-18 4 -30 11 -26 17 3 5 0 10
-8 10 -17 0 -61 58 -62 84 -2 23 18 65 37 78 18 12 68 1 91 -20z m-1543 -2 c0
-5 -5 -10 -11 -10 -5 0 -7 5 -4 10 3 6 8 10 11 10 2 0 4 -4 4 -10z m2040 -40
c0 -30 4 -50 11 -50 6 0 9 7 5 15 -3 8 -1 15 4 15 6 0 10 -9 10 -20 0 -13 -7
-20 -20 -20 -11 0 -23 -6 -26 -14 -3 -7 -23 -22 -45 -31 -39 -18 -39 -18 -64
5 -14 13 -24 29 -23 36 4 16 120 113 136 114 8 0 12 -16 12 -50z m1530 9 c-9
-17 -8 -23 7 -35 17 -14 16 -14 -4 -4 -13 6 -23 13 -23 16 0 9 20 44 26 44 2
0 0 -9 -6 -21z m207 -25 c-9 -9 -28 6 -21 18 4 6 10 6 17 -1 6 -6 8 -13 4 -17z
m1420 -10 c-8 -48 -15 -53 -37 -27 -24 31 -15 63 17 63 24 0 25 -3 20 -36z
m-1878 -19 c6 -3 11 -1 11 5 0 7 6 10 13 7 7 -2 11 -15 9 -30 -3 -21 0 -26 12
-21 9 3 16 2 16 -2 0 -11 -97 -63 -104 -57 -2 3 5 25 16 51 12 25 17 47 12 49
-5 2 -16 8 -24 13 -13 9 -13 11 0 20 11 7 17 4 22 -9 4 -11 11 -22 17 -26z
m-2845 9 c9 -22 8 -24 -9 -18 -8 4 -15 12 -15 20 0 19 16 18 24 -2z m3888 7
c-10 -6 -2 -17 32 -41 25 -19 46 -37 46 -42 0 -4 -11 -10 -25 -14 -14 -3 -22
-11 -18 -17 15 -24 -18 7 -49 46 -32 41 -32 41 -6 25 30 -20 38 -22 38 -10 0
4 -14 16 -32 27 -29 17 -30 19 -12 26 26 10 42 11 26 0z m-1195 -18 c-9 -9
-20 -13 -24 -9 -4 4 -1 11 7 16 25 16 35 11 17 -7z m-1807 -22 c5 -11 30 -27
55 -36 25 -10 45 -21 45 -25 0 -14 -69 -17 -74 -3 -3 7 -10 13 -15 13 -6 0 -8
-7 -5 -15 5 -11 -1 -15 -19 -15 -14 0 -31 -2 -39 -5 -7 -3 -20 0 -28 5 -12 8
-9 15 22 43 29 26 35 36 26 45 -9 9 -8 12 5 12 9 0 21 -9 27 -19z m813 -31
c47 -15 52 -42 5 -33 -18 3 -38 10 -45 15 -7 5 -14 5 -18 -2 -9 -14 -55 -13
-55 3 0 7 7 23 15 35 14 20 18 20 38 8 12 -8 39 -19 60 -26z m1067 30 c0 -5
-4 -10 -10 -10 -5 0 -10 5 -10 10 0 6 5 10 10 10 6 0 10 -4 10 -10z m30 -30
c0 -11 -4 -20 -10 -20 -5 0 -10 9 -10 20 0 11 5 20 10 20 6 0 10 -9 10 -20z
m-1408 -12 c-7 -7 -12 -8 -12 -2 0 6 3 14 7 17 3 4 9 5 12 2 2 -3 -1 -11 -7
-17z m986 -4 c2 -1 -1 -5 -7 -8 -5 -4 -15 4 -22 16 -12 22 -11 22 7 8 10 -8
20 -15 22 -16z m1662 1 c-7 -9 -15 -13 -17 -11 -7 7 7 26 19 26 6 0 6 -6 -2
-15z m-1445 -8 c-24 -18 -4 -31 33 -22 25 6 26 5 8 -8 -18 -13 -36 -13 -75 -1
-11 4 -10 9 5 24 10 10 25 19 33 19 11 1 10 -3 -4 -12z m-242 -40 c-7 -11 -23
12 -23 33 1 12 4 11 15 -4 8 -10 12 -23 8 -29z m-853 0 c0 -17 -29 -57 -41
-57 -17 0 -10 58 9 63 29 8 32 7 32 -6z m-92 -43 c2 -37 1 -38 -13 -20 -18 24
-20 69 -2 64 6 -3 13 -22 15 -44z m-338 -29 c0 -60 -14 -74 -24 -24 -10 52 -7
79 9 79 12 0 15 -13 15 -55z m671 38 c6 -7 10 -14 8 -14 -40 -14 -139 -21
-139 -11 0 35 13 43 66 41 31 -1 59 -8 65 -16z m676 -153 c7 -73 11 -84 43
-120 30 -34 39 -60 20 -60 -6 0 -13 7 -16 15 -4 8 -12 15 -19 15 -7 0 -19 20
-26 45 -7 25 -19 45 -25 45 -27 0 -37 29 -25 68 10 30 9 46 -3 87 -25 79 -17
86 16 15 17 -36 33 -85 35 -110z m229 129 c9 -15 -16 -38 -65 -60 -33 -14 -41
-15 -41 -4 0 8 5 17 10 20 6 3 10 15 10 25 0 25 72 41 86 19z m-1646 -31 c0
-16 -3 -19 -11 -11 -6 6 -8 16 -5 22 11 17 16 13 16 -11z m1552 -148 c29 0 21
-15 -19 -33 -20 -9 -38 -15 -38 -14 -1 1 2 17 7 36 7 25 12 31 21 22 6 -6 19
-11 29 -11z m-862 -3 c0 -8 -11 -19 -25 -25 -23 -11 -25 -10 -25 13 0 20 5 25
25 25 14 0 25 -6 25 -13z m3207 -6 c12 -1 29 -9 38 -18 13 -13 21 -14 35 -5
14 9 20 6 30 -14 8 -13 20 -24 29 -24 9 0 26 -3 39 -6 16 -5 22 -2 22 9 0 10
-6 13 -20 10 -11 -3 -28 -2 -37 2 -17 7 -17 8 1 14 10 4 32 5 48 3 29 -4 30
-8 11 -60 -6 -14 28 -5 38 11 8 12 39 2 39 -13 0 -5 -5 -9 -11 -7 -21 4 -20
-20 1 -26 13 -3 20 0 20 9 0 8 7 14 15 14 8 0 15 -7 15 -15 0 -8 -7 -15 -16
-15 -11 0 -15 -6 -11 -20 3 -11 1 -23 -4 -26 -5 -3 -9 4 -9 15 0 12 -5 21 -11
21 -6 0 -9 -6 -6 -14 6 -15 -12 -26 -44 -26 -10 0 -19 -5 -19 -10 0 -13 -52
-1 -62 14 -6 8 -10 8 -15 0 -10 -14 -58 -26 -67 -17 -13 13 -90 1 -102 -15
-11 -15 -13 -13 -19 13 -18 73 -34 132 -44 158 -20 50 -16 54 42 46 28 -4 62
-8 74 -8z m-647 -33 c-1 -40 -2 -42 -15 -24 -16 21 -20 48 -8 59 15 16 23 4
23 -35z m937 -10 c15 -6 46 -12 67 -12 22 -1 41 -7 43 -13 3 -10 -11 -13 -51
-13 -43 0 -56 3 -56 15 0 10 -11 15 -35 15 -19 0 -35 5 -35 10 0 13 32 13 67
-2z m-5347 -36 c0 -29 -15 -60 -25 -51 -3 4 -3 25 1 47 7 45 24 48 24 4z
m1240 -53 c0 -71 24 -157 46 -166 21 -8 17 -61 -5 -73 -11 -5 -26 -8 -33 -5
-19 8 -40 57 -28 65 8 5 8 21 1 51 -12 53 -14 118 -5 178 9 62 24 32 24 -50z
m1770 61 c0 -5 -4 -10 -10 -10 -5 0 -10 5 -10 10 0 6 5 10 10 10 6 0 10 -4 10
-10z m-3630 -145 c0 -16 18 -65 40 -108 43 -83 50 -113 25 -103 -8 3 -15 0
-15 -6 0 -6 -3 -9 -6 -6 -3 3 -21 2 -40 -4 -24 -6 -46 -6 -70 2 -27 9 -38 9
-49 0 -18 -15 -19 -6 -4 22 10 18 9 20 -5 15 -12 -5 -16 0 -16 16 0 16 9 26
28 33 30 11 42 45 42 120 0 18 8 55 17 84 l17 52 17 -44 c10 -23 18 -56 19
-73z m6050 111 c0 -2 -7 -7 -16 -10 -8 -3 -12 -2 -9 4 6 10 25 14 25 6z
m-6625 -56 c3 -6 -4 -10 -17 -10 -18 0 -20 2 -8 10 19 12 18 12 25 0z m75 0
c0 -13 -11 -13 -30 0 -12 8 -11 10 8 10 12 0 22 -4 22 -10z m6540 -10 c0 -5
-5 -10 -11 -10 -5 0 -7 5 -4 10 3 6 8 10 11 10 2 0 4 -4 4 -10z m-2845 -29 c3
-5 1 -12 -5 -16 -5 -3 -10 1 -10 9 0 18 6 21 15 7z m235 -22 c0 -12 -5 -19
-11 -17 -6 2 -10 7 -10 11 1 4 1 14 1 23 0 8 5 12 10 9 6 -3 10 -15 10 -26z
m-136 -11 c19 -13 35 -30 36 -38 0 -9 6 -22 13 -29 10 -11 9 -13 -6 -7 -10 3
-26 6 -35 7 -11 0 -12 2 -4 6 20 8 14 29 -13 41 -18 8 -25 8 -25 1 0 -8 -5 -7
-15 1 -19 16 -19 40 -1 40 8 0 30 -10 50 -22z m-3754 3 c0 -9 -34 -21 -60 -21
-9 1 -5 7 10 15 29 16 50 19 50 6z m-250 -16 c0 -8 -7 -15 -15 -15 -8 0 -15 5
-15 11 0 5 5 7 10 4 6 -3 10 -1 10 4 0 6 2 11 5 11 3 0 5 -7 5 -15z m857 -14
c3 -11 13 -21 24 -24 26 -7 24 -43 -2 -58 -17 -8 -23 -8 -29 1 -4 7 -13 9 -20
5 -10 -6 -12 1 -7 31 4 21 7 45 7 52 0 19 21 14 27 -7z m4997 13 c23 -9 20
-34 -4 -34 -13 0 -20 7 -20 20 0 22 1 23 24 14z m-4574 -48 c0 -20 -20 -61
-20 -42 0 5 -7 3 -16 -5 -12 -10 -17 -10 -23 0 -5 7 -12 11 -16 9 -4 -1 -11 7
-16 19 -7 19 -2 25 29 40 41 21 62 14 62 -21z m5430 34 c0 -5 -2 -10 -4 -10
-3 0 -8 5 -11 10 -3 6 -1 10 4 10 6 0 11 -4 11 -10z m-258 -34 c4 -55 -4 -75
-24 -59 -7 6 -22 7 -33 3 -11 -4 -28 -3 -37 2 -12 6 -18 5 -18 -2 0 -6 -4 -8
-10 -5 -13 8 -13 62 0 70 17 10 90 -17 90 -34 1 -13 3 -12 12 3 8 15 8 21 0
24 -7 2 -12 10 -12 18 0 22 30 4 32 -20z m-2468 8 c3 -8 2 -12 -4 -9 -6 3 -10
10 -10 16 0 14 7 11 14 -7z m2596 0 c0 -8 -4 -14 -10 -14 -5 0 -7 -7 -3 -16 5
-13 7 -13 14 -2 5 8 6 -1 2 -22 -8 -44 -22 -53 -50 -35 -12 8 -26 15 -30 15
-4 0 -1 -4 7 -10 19 -12 8 -22 -14 -14 -11 4 -16 15 -14 32 2 20 11 28 36 34
34 9 35 28 1 28 -10 0 -19 4 -19 9 0 6 18 9 40 9 27 0 40 -5 40 -14z m110 -43
c0 -9 -7 -11 -22 -7 -13 3 -29 6 -35 6 -13 0 -18 32 -7 42 9 10 64 -26 64 -41z
m85 40 c10 -17 -27 -30 -42 -16 -7 8 -13 16 -13 19 0 10 48 7 55 -3z m76 -16
c10 4 19 2 19 -3 0 -8 -80 -32 -105 -32 -2 0 8 12 23 28 20 20 29 24 35 14 5
-7 17 -10 28 -7z m-2450 -27 c46 -33 240 -230 233 -237 -5 -6 -132 107 -222
196 -78 78 -82 92 -11 41z m2606 26 c-3 -3 -12 -4 -19 -1 -8 3 -5 6 6 6 11 1
17 -2 13 -5z m-27 -24 c0 -5 -7 -7 -15 -4 -8 4 -15 8 -15 10 0 2 7 4 15 4 8 0
15 -4 15 -10z m-3140 -30 c0 -5 -2 -10 -4 -10 -3 0 -8 5 -11 10 -3 6 -1 10 4
10 6 0 11 -4 11 -10z m2824 -15 c-4 -8 -14 -15 -23 -15 -14 1 -13 3 3 15 25
19 27 19 20 0z m-2717 -37 c-3 -7 -5 -2 -5 12 0 14 2 19 5 13 2 -7 2 -19 0
-25z m2407 -20 c-3 -4 -13 -6 -24 -5 -22 1 -27 23 -8 29 14 5 38 -13 32 -24z
m446 22 c0 -5 -4 -10 -9 -10 -6 0 -13 5 -16 10 -3 6 1 10 9 10 9 0 16 -4 16
-10z m-4970 -10 c0 -5 -5 -10 -11 -10 -5 0 -7 5 -4 10 3 6 8 10 11 10 2 0 4
-4 4 -10z m1985 0 c3 -5 1 -10 -4 -10 -6 0 -11 5 -11 10 0 6 2 10 4 10 3 0 8
-4 11 -10z m2875 -1 c0 -5 5 -7 10 -4 6 3 10 1 10 -4 0 -13 -3 -13 -24 -5 -18
7 -22 24 -6 24 6 0 10 -5 10 -11z m75 0 c11 -16 1 -19 -13 -3 -7 8 -8 14 -3
14 5 0 13 -5 16 -11z m-3043 -21 c33 -10 41 -9 49 3 7 12 9 11 9 -2 0 -9 25
-33 55 -53 37 -24 55 -43 55 -57 0 -25 -24 -20 -90 21 -25 15 -56 31 -69 35
-13 4 -39 16 -59 28 -31 18 -33 22 -16 28 26 10 22 10 66 -3z m3153 1 c-16 -5
-38 -7 -47 -5 -10 2 -18 0 -18 -5 0 -5 -7 -9 -15 -9 -21 0 -19 18 3 23 9 3 37
5 62 5 42 0 43 0 15 -9z m-125 -9 c0 -5 -5 -10 -11 -10 -5 0 -7 5 -4 10 3 6 8
10 11 10 2 0 4 -4 4 -10z m-5400 -33 c8 -3 1 -6 -16 -6 -37 -1 -48 7 -33 26
10 11 13 11 23 -1 6 -7 18 -16 26 -19z m5590 23 c0 -5 -4 -10 -10 -10 -5 0
-10 5 -10 10 0 6 5 10 10 10 6 0 10 -4 10 -10z m-6317 -7 c-7 -2 -21 -2 -30 0
-10 3 -4 5 12 5 17 0 24 -2 18 -5z m6292 -13 c3 -5 2 -10 -4 -10 -5 0 -13 5
-16 10 -3 6 -2 10 4 10 5 0 13 -4 16 -10z m-6376 -42 c-12 -10 -25 -18 -30
-18 -17 0 -9 29 13 44 31 22 46 -2 17 -26z m3392 15 c-12 -20 -14 -14 -5 12 4
9 9 14 11 11 3 -2 0 -13 -6 -23z m-3984 -35 c-3 -7 -5 -2 -5 12 0 14 2 19 5
13 2 -7 2 -19 0 -25z m4993 12 c0 -5 -4 -10 -9 -10 -6 0 -13 5 -16 10 -3 6 1
10 9 10 9 0 16 -4 16 -10z m-796 -65 c29 -6 29 -6 7 -21 -29 -21 -65 -14 -69
13 -3 22 -5 22 62 8z m1274 -12 c4 -6 36 -14 73 -18 53 -6 67 -11 75 -28 5
-12 20 -25 34 -29 25 -8 2 -5 -110 13 -30 5 -79 10 -107 12 -62 4 -66 7 -58
40 6 22 11 25 47 23 22 -2 43 -8 46 -13z m-1228 -33 c18 -12 2 -12 -25 0 -13
6 -15 9 -5 9 8 0 22 -4 30 -9z m2738 -7 c-10 -2 -28 -2 -40 0 -13 2 -5 4 17 4
22 1 32 -1 23 -4z m109 -9 c-3 -3 -12 -4 -19 -1 -8 3 -5 6 6 6 11 1 17 -2 13
-5z m-6752 -22 c47 -9 47 -22 0 -39 -24 -8 -45 -8 -77 -1 -53 13 -54 14 -38
33 13 16 50 18 115 7z m5395 -12 c0 -5 -7 -10 -15 -10 -8 0 -15 5 -15 10 0 6
7 10 15 10 8 0 15 -4 15 -10z m56 -13 c4 -4 -2 -7 -14 -7 -12 0 -22 4 -22 9 0
10 26 9 36 -2z m74 -47 c11 -5 27 -10 37 -10 28 0 9 -9 -29 -14 -37 -4 -49 3
-61 36 -5 15 -3 16 13 8 11 -6 29 -14 40 -20z m-3660 10 c0 -5 -7 -10 -15 -10
-8 0 -15 5 -15 10 0 6 7 10 15 10 8 0 15 -4 15 -10z m820 0 c0 -5 -2 -10 -4
-10 -3 0 -8 5 -11 10 -3 6 -1 10 4 10 6 0 11 -4 11 -10z m-46 -48 c-4 -9 -6
-25 -5 -34 3 -21 -3 -22 -28 -6 -19 11 -19 13 7 43 27 31 41 30 26 -3z m1936
-2 c0 -5 -9 -14 -19 -19 -15 -8 -20 -7 -25 5 -4 12 -2 15 9 11 8 -4 17 -2 20
3 8 13 15 13 15 0z m2170 0 c0 -5 -5 -10 -11 -10 -5 0 -7 5 -4 10 3 6 8 10 11
10 2 0 4 -4 4 -10z m-2135 -28 c-3 -3 -11 0 -18 7 -9 10 -8 11 6 5 10 -3 15
-9 12 -12z m2145 -2 c0 -5 -5 -10 -11 -10 -5 0 -7 5 -4 10 3 6 8 10 11 10 2 0
4 -4 4 -10z m-1780 -10 c0 -5 -5 -10 -11 -10 -5 0 -7 5 -4 10 3 6 8 10 11 10
2 0 4 -4 4 -10z m1725 -31 c11 -17 -1 -21 -15 -4 -8 9 -8 15 -2 15 6 0 14 -5
17 -11z m62 -19 c-1 -11 -7 -20 -14 -20 -16 0 -17 12 -1 28 16 16 17 15 15 -8z
m-6224 -5 c-3 -9 -8 -14 -10 -11 -3 3 -2 9 2 15 9 16 15 13 8 -4z m6067 -5
c12 -7 8 -10 -15 -10 -16 0 -37 5 -45 10 -12 7 -8 10 15 10 17 0 37 -5 45 -10z
m114 -14 c-6 -15 -34 -30 -42 -22 -10 11 9 36 27 36 14 0 19 -5 15 -14z"/>
<path d="M5120 5497 c0 -11 12 -17 43 -20 l42 -4 -42 -1 c-62 -3 -53 -22 10
-22 49 0 52 2 52 25 0 16 -6 25 -15 25 -8 0 -32 3 -52 6 -31 5 -38 3 -38 -9z"/>
<path d="M5792 5244 c10 -10 20 -15 24 -12 3 4 -5 12 -18 18 -22 12 -22 12 -6
-6z"/>
<path d="M5785 5110 c3 -5 10 -10 16 -10 5 0 9 5 9 10 0 6 -7 10 -16 10 -8 0
-12 -4 -9 -10z"/>
<path d="M1215 5140 c-3 -5 -2 -10 4 -10 5 0 13 5 16 10 3 6 2 10 -4 10 -5 0
-13 -4 -16 -10z"/>
<path d="M2096 5131 c-9 -14 3 -58 20 -72 11 -9 14 -6 14 17 -1 33 -25 71 -34
55z"/>
<path d="M1810 4845 c0 -8 5 -15 10 -15 6 0 10 7 10 15 0 8 -4 15 -10 15 -5 0
-10 -7 -10 -15z"/>
<path d="M5915 4830 c-3 -6 1 -7 9 -4 18 7 21 14 7 14 -6 0 -13 -4 -16 -10z"/>
<path d="M6380 4789 c0 -5 5 -7 10 -4 6 3 10 8 10 11 0 2 -4 4 -10 4 -5 0 -10
-5 -10 -11z"/>
<path d="M2840 4698 c-54 -10 -92 -28 -58 -28 9 0 29 -5 43 -10 24 -9 26 -12
14 -27 -13 -17 -12 -17 12 -1 28 18 109 21 120 5 4 -5 10 0 14 12 10 32 -20
61 -59 60 -17 -1 -56 -6 -86 -11z"/>
<path d="M2686 4624 c-9 -24 -7 -28 9 -14 17 14 20 30 6 30 -5 0 -12 -7 -15
-16z"/>
<path d="M2635 4620 c3 -5 8 -10 11 -10 2 0 4 5 4 10 0 6 -5 10 -11 10 -5 0
-7 -4 -4 -10z"/>
<path d="M2606 4603 c-13 -13 -5 -34 12 -31 9 2 25 -4 35 -13 10 -10 35 -20
54 -24 38 -7 58 1 27 11 -28 9 -68 28 -74 35 -11 13 -48 28 -54 22z"/>
<path d="M2710 4583 c0 -1 19 -7 42 -14 35 -9 39 -13 25 -20 -30 -17 -18 -29
29 -29 50 0 58 19 13 31 -28 8 -17 12 26 9 20 -1 27 2 20 8 -8 8 -155 23 -155
15z"/>
<path d="M2953 4565 c-7 -7 -18 -15 -25 -18 -7 -2 -10 -7 -7 -11 3 -4 17 2 30
13 13 11 22 21 19 24 -3 3 -10 -1 -17 -8z"/>
<path d="M2868 4533 c6 -2 18 -2 25 0 6 3 1 5 -13 5 -14 0 -19 -2 -12 -5z"/>
<path d="M3490 4659 c0 -11 5 -17 10 -14 6 3 10 13 10 21 0 8 -4 14 -10 14 -5
0 -10 -9 -10 -21z"/>
<path d="M5620 4639 c0 -5 5 -7 10 -4 6 3 10 8 10 11 0 2 -4 4 -10 4 -5 0 -10
-5 -10 -11z"/>
<path d="M5832 4628 c5 -32 28 -35 28 -4 0 17 -5 26 -16 26 -10 0 -14 -7 -12
-22z"/>
<path d="M5751 4604 c0 -11 3 -14 6 -6 3 7 2 16 -1 19 -3 4 -6 -2 -5 -13z"/>
<path d="M5770 4580 c0 -11 4 -20 9 -20 5 0 7 9 4 20 -3 11 -7 20 -9 20 -2 0
-4 -9 -4 -20z"/>
<path d="M5801 4574 c0 -11 3 -14 6 -6 3 7 2 16 -1 19 -3 4 -6 -2 -5 -13z"/>
<path d="M5657 4563 c-4 -3 -7 -11 -7 -17 0 -6 5 -5 12 2 6 6 9 14 7 17 -3 3
-9 2 -12 -2z"/>
<path d="M4838 4473 c7 -3 16 -2 19 1 4 3 -2 6 -13 5 -11 0 -14 -3 -6 -6z"/>
<path d="M4775 4400 c4 -6 11 -8 16 -5 14 9 11 15 -7 15 -8 0 -12 -5 -9 -10z"/>
<path d="M5400 4475 c7 -8 16 -12 21 -9 13 8 1 24 -18 24 -13 0 -13 -3 -3 -15z"/>
<path d="M5002 4418 c5 -32 28 -35 28 -4 0 17 -5 26 -16 26 -10 0 -14 -7 -12
-22z"/>
<path d="M4940 4370 c0 -5 5 -10 10 -10 6 0 10 5 10 10 0 6 -4 10 -10 10 -5 0
-10 -4 -10 -10z"/>
<path d="M5000 4370 c0 -5 5 -10 10 -10 6 0 10 5 10 10 0 6 -4 10 -10 10 -5 0
-10 -4 -10 -10z"/>
<path d="M4221 4171 c-6 -21 -11 -49 -11 -62 l1 -24 23 26 c17 20 22 35 18 58
-6 45 -17 46 -31 2z"/>
<path d="M5041 4088 c0 -17 56 -61 70 -56 15 5 -38 68 -57 68 -8 0 -14 -6 -13
-12z"/>
<path d="M4925 3599 c-10 -15 3 -25 16 -12 6 6 18 9 27 6 10 -4 13 -2 8 5 -9
15 -43 16 -51 1z"/>
<path d="M4770 3585 c7 -8 19 -15 27 -15 13 0 13 3 3 15 -7 8 -19 15 -27 15
-13 0 -13 -3 -3 -15z"/>
<path d="M4815 3590 c3 -5 13 -10 21 -10 8 0 12 5 9 10 -3 6 -13 10 -21 10 -8
0 -12 -4 -9 -10z"/>
<path d="M4670 3581 c0 -6 6 -11 14 -11 8 0 41 -22 73 -48 110 -90 191 -135
228 -126 27 7 34 24 10 24 -8 0 -15 -4 -15 -10 0 -19 -22 -10 -55 23 -18 18
-45 38 -59 45 -14 6 -26 16 -26 22 0 17 30 11 68 -15 36 -25 62 -32 62 -17 0
4 -16 16 -35 26 -24 13 -34 25 -30 35 7 22 -41 44 -66 30 -11 -5 -19 -14 -19
-19 0 -13 7 -13 32 1 11 6 22 8 25 6 3 -3 -13 -15 -35 -26 -39 -20 -40 -20
-57 -1 -10 11 -23 30 -29 43 -8 16 -22 23 -49 25 -21 2 -37 -1 -37 -7z"/>
<path d="M4947 3556 c-9 -7 -17 -16 -17 -20 0 -11 27 -6 39 8 16 19 0 27 -22
12z"/>
<path d="M4977 3535 l-26 -33 22 -15 c12 -8 37 -22 55 -31 32 -16 34 -16 67 4
19 12 35 25 35 28 0 4 -29 23 -64 43 l-63 36 -26 -32z"/>
<path d="M5116 3024 c-4 -9 -4 -19 -1 -22 3 -3 5 -2 5 3 0 4 7 2 15 -5 12 -10
15 -10 15 3 0 8 -6 20 -14 26 -11 9 -15 8 -20 -5z"/>
<path d="M5466 4101 c-10 -16 13 -66 25 -54 6 6 6 19 0 36 -11 29 -16 32 -25
18z"/>
<path d="M4605 3890 c3 -5 8 -10 11 -10 2 0 4 5 4 10 0 6 -5 10 -11 10 -5 0
-7 -4 -4 -10z"/>
<path d="M4369 3531 c-13 -11 -19 -20 -13 -21 15 0 50 27 43 34 -3 4 -17 -2
-30 -13z"/>
<path d="M6685 3350 c4 -6 11 -8 16 -5 14 9 11 15 -7 15 -8 0 -12 -5 -9 -10z"/>
<path d="M6830 3021 c13 -11 28 -17 33 -14 11 6 -23 32 -43 32 -10 1 -7 -6 10
-18z"/>
<path d="M4030 9180 c-8 -5 -11 -12 -8 -16 10 -9 38 3 38 16 0 12 -10 13 -30
0z"/>
<path d="M3810 8975 c0 -8 5 -15 10 -15 6 0 10 5 10 11 0 5 5 7 10 4 6 -3 10
-1 10 4 0 6 -9 11 -20 11 -11 0 -20 -7 -20 -15z"/>
<path d="M3556 8732 c-3 -6 -1 -14 5 -17 14 -9 20 -2 10 14 -6 8 -11 9 -15 3z"/>
<path d="M3375 8539 c-11 -17 1 -21 15 -4 8 9 8 15 2 15 -6 0 -14 -5 -17 -11z"/>
<path d="M3345 8510 c3 -5 8 -10 11 -10 2 0 4 5 4 10 0 6 -5 10 -11 10 -5 0
-7 -4 -4 -10z"/>
<path d="M3256 8423 c-6 -14 -5 -15 5 -6 7 7 10 15 7 18 -3 3 -9 -2 -12 -12z"/>
<path d="M3165 8349 c-11 -17 1 -21 15 -4 8 9 8 15 2 15 -6 0 -14 -5 -17 -11z"/>
<path d="M0 8295 c0 -26 5 -65 12 -86 9 -30 8 -55 -1 -107 -7 -37 -11 -83 -9
-102 l3 -35 38 35 c30 29 39 46 48 93 16 92 -15 199 -69 235 -22 14 -22 14
-22 -33z"/>
<path d="M3143 8315 c0 -8 4 -15 9 -15 4 0 8 4 8 9 0 6 -4 12 -8 15 -5 3 -9
-1 -9 -9z"/>
<path d="M3117 8293 c-4 -3 -7 -11 -7 -17 0 -6 5 -5 12 2 6 6 9 14 7 17 -3 3
-9 2 -12 -2z"/>
<path d="M3078 8259 c-18 -10 -25 -39 -9 -39 12 0 33 28 29 39 -2 6 -9 6 -20
0z"/>
<path d="M2950 8125 c-8 -9 -8 -15 -2 -15 12 0 26 19 19 26 -2 2 -10 -2 -17
-11z"/>
<path d="M2910 8085 c-8 -9 -8 -15 -2 -15 12 0 26 19 19 26 -2 2 -10 -2 -17
-11z"/>
<path d="M2711 7884 c0 -11 3 -14 6 -6 3 7 2 16 -1 19 -3 4 -6 -2 -5 -13z"/>
<path d="M2640 7861 c0 -10 19 -25 25 -20 1 2 -3 10 -11 17 -8 7 -14 8 -14 3z"/>
<path d="M0 6697 c0 -7 6 -19 12 -25 10 -10 10 -17 0 -32 -6 -11 -12 -27 -12
-37 0 -14 4 -13 25 7 28 27 32 61 9 84 -19 19 -34 21 -34 3z"/>
<path d="M0 6564 c0 -8 11 -14 25 -14 32 0 32 16 0 22 -17 4 -25 1 -25 -8z"/>
<path d="M400 3411 c0 -12 7 -24 15 -27 8 -4 15 -14 15 -23 0 -9 14 -32 30
-51 25 -30 28 -32 23 -11 -5 19 -61 112 -79 130 -2 2 -4 -6 -4 -18z"/>
<path d="M0 3212 l0 -202 24 0 c29 0 36 -16 36 -85 0 -38 -4 -54 -15 -59 -8
-3 -15 -12 -15 -21 0 -8 7 -15 15 -15 15 0 21 -21 9 -33 -4 -4 -8 -30 -10 -59
-6 -84 -26 -198 -35 -198 -5 0 -9 -15 -9 -32 0 -25 3 -29 10 -18 5 8 10 13 10
10 8 -57 12 -107 11 -160 0 -36 1 -94 1 -130 1 -36 1 -78 1 -95 0 -16 -1 -86
-2 -155 -2 -74 -7 -130 -14 -138 -13 -16 6 -32 41 -32 16 0 22 6 22 23 0 48
13 625 15 667 1 25 6 160 10 300 9 285 -4 412 -53 540 -48 125 -52 116 -52
-108z"/>
<path d="M658 3133 c-27 -7 -22 -23 7 -23 16 0 25 6 25 15 0 15 -2 16 -32 8z"/>
<path d="M360 3101 c0 -5 9 -7 20 -4 11 3 20 7 20 9 0 2 -9 4 -20 4 -11 0 -20
-4 -20 -9z"/>
<path d="M446 3031 c-7 -10 42 -21 61 -14 7 3 10 9 7 14 -7 12 -61 12 -68 0z"/>
<path d="M720 3010 c0 -5 5 -10 10 -10 6 0 10 5 10 10 0 6 -4 10 -10 10 -5 0
-10 -4 -10 -10z"/>
<path d="M1980 3013 c1 -18 28 -43 48 -43 29 0 36 27 9 35 -12 4 -30 9 -39 11
-10 3 -18 2 -18 -3z"/>
<path d="M1747 3003 c-11 -10 -8 -20 8 -27 10 -4 15 1 15 14 0 20 -11 26 -23
13z"/>
<path d="M483 2933 c9 -2 23 -2 30 0 6 3 -1 5 -18 5 -16 0 -22 -2 -12 -5z"/>
<path d="M385 2920 c3 -5 10 -10 16 -10 5 0 9 5 9 10 0 6 -7 10 -16 10 -8 0
-12 -4 -9 -10z"/>
<path d="M2045 2910 c3 -5 8 -10 11 -10 2 0 4 5 4 10 0 6 -5 10 -11 10 -5 0
-7 -4 -4 -10z"/>
<path d="M320 2879 c0 -5 5 -7 10 -4 6 3 10 8 10 11 0 2 -4 4 -10 4 -5 0 -10
-5 -10 -11z"/>
<path d="M3344 2605 c-9 -23 21 -45 60 -45 57 0 44 22 -29 50 -20 8 -27 7 -31
-5z"/>
<path d="M4813 2603 c9 -2 23 -2 30 0 6 3 -1 5 -18 5 -16 0 -22 -2 -12 -5z"/>
<path d="M4905 2550 c3 -5 12 -10 20 -10 8 0 17 5 20 10 4 6 -5 10 -20 10 -15
0 -24 -4 -20 -10z"/>
<path d="M7031 2544 c-10 -12 -10 -19 -2 -27 8 -8 11 -7 11 6 0 9 5 17 10 17
6 0 10 -7 10 -15 0 -8 5 -15 10 -15 13 0 12 11 -4 33 -16 20 -17 21 -35 1z"/>
<path d="M450 2530 c-12 -8 -10 -10 8 -10 13 0 20 4 17 10 -7 12 -6 12 -25 0z"/>
<path d="M3431 2524 c0 -11 3 -14 6 -6 3 7 2 16 -1 19 -3 4 -6 -2 -5 -13z"/>
<path d="M6963 2520 c3 -11 1 -22 -3 -25 -12 -8 0 -44 14 -39 18 7 17 84 -1
84 -10 0 -14 -7 -10 -20z"/>
<path d="M6695 2520 c-3 -5 1 -13 10 -16 22 -9 29 1 11 15 -10 8 -16 9 -21 1z"/>
<path d="M5907 2504 c5 -13 1 -15 -16 -9 -13 4 -28 1 -37 -6 -13 -10 -17 -10
-24 1 -5 7 -15 10 -25 6 -17 -6 -17 -7 0 -26 14 -16 27 -19 59 -15 23 3 53 5
69 5 15 0 27 4 27 10 0 5 7 10 15 10 8 0 15 -5 15 -11 0 -6 12 -9 28 -7 32 4
39 40 8 46 -14 3 -17 0 -13 -12 8 -20 3 -20 -26 -2 -12 7 -36 16 -54 19 -27 5
-31 4 -26 -9z m33 -18 c0 -3 -4 -8 -10 -11 -5 -3 -10 -1 -10 4 0 6 5 11 10 11
6 0 10 -2 10 -4z"/>
<path d="M6920 2494 c0 -8 5 -12 10 -9 6 3 10 10 10 16 0 5 -4 9 -10 9 -5 0
-10 -7 -10 -16z"/>
<path d="M6867 2493 c-13 -12 -7 -33 8 -33 8 0 24 -5 35 -12 30 -19 34 -3 7
26 -25 26 -38 32 -50 19z"/>
<path d="M6446 2472 c-13 -12 -5 -22 19 -22 14 0 25 4 25 9 0 10 -36 21 -44
13z"/>
<path d="M6772 2460 c-6 -11 -8 -21 -3 -25 5 -3 13 4 16 16 9 28 2 33 -13 9z"/>
<path d="M7045 2469 c-4 -6 -4 -13 -1 -16 3 -4 6 -1 6 5 0 6 8 13 18 15 15 4
15 5 0 6 -9 0 -20 -4 -23 -10z"/>
<path d="M4780 2448 c14 -5 33 -14 42 -19 9 -5 19 -5 22 0 7 11 -39 31 -67 30
-21 0 -21 -1 3 -11z"/>
<path d="M510 2420 c0 -5 11 -10 25 -10 14 0 25 5 25 10 0 6 -11 10 -25 10
-14 0 -25 -4 -25 -10z"/>
<path d="M7310 2422 c0 -5 11 -14 25 -20 22 -10 25 -9 25 8 0 15 -7 20 -25 20
-14 0 -25 -4 -25 -8z"/>
<path d="M450 2410 c0 -5 5 -10 11 -10 5 0 7 5 4 10 -3 6 -8 10 -11 10 -2 0
-4 -4 -4 -10z"/>
<path d="M5074 2369 c54 -28 100 -48 103 -45 5 5 -177 96 -192 95 -5 0 34 -23
89 -50z"/>
<path d="M359 2399 c16 -6 28 -6 35 1 7 7 -1 10 -24 9 -33 0 -34 -1 -11 -10z"/>
<path d="M1458 2403 c6 -2 18 -2 25 0 6 3 1 5 -13 5 -14 0 -19 -2 -12 -5z"/>
<path d="M1580 2400 c-12 -8 -9 -10 13 -10 16 0 26 4 22 10 -8 12 -16 12 -35
0z"/>
<path d="M6940 2390 c-9 -6 -10 -10 -3 -10 6 0 15 5 18 10 8 12 4 12 -15 0z"/>
<path d="M7136 2385 c4 -8 12 -15 20 -15 20 0 17 7 -6 20 -16 9 -18 8 -14 -5z"/>
<path d="M6670 2354 c0 -8 5 -12 10 -9 6 3 10 10 10 16 0 5 -4 9 -10 9 -5 0
-10 -7 -10 -16z"/>
<path d="M7240 2360 c0 -5 9 -10 20 -10 11 0 20 5 20 10 0 6 -9 10 -20 10 -11
0 -20 -4 -20 -10z"/>
<path d="M7290 2360 c0 -5 9 -10 20 -10 11 0 20 5 20 10 0 6 -9 10 -20 10 -11
0 -20 -4 -20 -10z"/>
<path d="M7086 2345 c-16 -12 -14 -14 21 -13 22 0 51 -3 64 -7 21 -6 22 -5 9
8 -22 21 -72 28 -94 12z"/>
<path d="M908 2313 c6 -2 18 -2 25 0 6 3 1 5 -13 5 -14 0 -19 -2 -12 -5z"/>
<path d="M1075 2310 c-4 -6 5 -10 20 -10 15 0 24 4 20 10 -3 6 -12 10 -20 10
-8 0 -17 -4 -20 -10z"/>
<path d="M5192 2315 c9 -9 102 -54 105 -51 4 4 -92 56 -103 56 -4 0 -5 -2 -2
-5z"/>
<path d="M7258 2313 c7 -3 16 -2 19 1 4 3 -2 6 -13 5 -11 0 -14 -3 -6 -6z"/>
<path d="M7223 2284 c15 -8 32 -12 38 -8 16 9 -10 24 -41 23 l-25 0 28 -15z"/>
<path d="M3195 2260 c3 -5 10 -10 16 -10 5 0 9 5 9 10 0 6 -7 10 -16 10 -8 0
-12 -4 -9 -10z"/>
<path d="M546 2201 c-3 -5 7 -11 23 -13 34 -5 53 0 45 13 -7 12 -61 12 -68 0z"/>
<path d="M910 2200 c0 -5 12 -10 28 -10 21 0 24 2 12 10 -20 13 -40 13 -40 0z"/>
<path d="M1090 2194 c0 -13 18 -39 24 -34 2 3 -2 14 -10 24 -8 11 -14 16 -14
10z"/>
<path d="M5475 2180 c3 -5 13 -10 21 -10 8 0 12 5 9 10 -3 6 -13 10 -21 10 -8
0 -12 -4 -9 -10z"/>
<path d="M535 2130 c3 -5 10 -10 16 -10 5 0 9 5 9 10 0 6 -7 10 -16 10 -8 0
-12 -4 -9 -10z"/>
<path d="M1146 2097 c3 -10 9 -15 12 -12 3 3 0 11 -7 18 -10 9 -11 8 -5 -6z"/>
<path d="M7135 2050 c3 -5 12 -7 20 -3 21 7 19 13 -6 13 -11 0 -18 -4 -14 -10z"/>
<path d="M1065 2020 c-8 -13 55 -13 75 0 11 7 4 10 -27 10 -23 0 -45 -4 -48
-10z"/>
<path d="M975 2009 c-15 -6 -11 -8 18 -8 20 -1 37 1 37 3 0 9 -37 12 -55 5z"/>
<path d="M6973 1964 c10 -11 82 -23 100 -18 37 11 14 24 -45 24 -34 0 -59 -3
-55 -6z"/>
<path d="M1385 1890 c-3 -5 -1 -10 4 -10 6 0 11 5 11 10 0 6 -2 10 -4 10 -3 0
-8 -4 -11 -10z"/>
<path d="M1080 1820 c0 -5 11 -10 24 -10 14 0 28 5 31 10 4 6 -7 10 -24 10
-17 0 -31 -4 -31 -10z"/>
<path d="M6285 1794 c11 -9 49 -29 85 -46 85 -38 96 -43 158 -69 28 -12 52
-25 52 -30 0 -7 -31 -13 -110 -21 -14 -2 -25 -9 -25 -18 0 -12 15 -15 83 -14
57 0 82 -3 82 -11 0 -24 147 -53 156 -31 4 10 12 11 37 2 47 -16 127 -65 127
-78 0 -5 9 -8 20 -5 11 3 23 1 26 -4 3 -5 -1 -9 -8 -10 -7 0 2 -5 20 -10 17
-5 32 -16 32 -24 0 -8 7 -15 15 -15 23 0 84 -34 85 -47 0 -6 6 -14 13 -16 7
-4 3 -8 -10 -12 -30 -9 -29 -21 2 -41 28 -19 107 -27 116 -13 3 5 14 1 23 -10
18 -20 18 -20 -18 -14 -36 6 -36 5 -27 -21 8 -20 7 -26 -3 -26 -22 0 -61 -36
-48 -44 6 -3 17 3 26 15 8 12 19 18 26 14 7 -4 16 -2 20 5 6 10 13 8 30 -8 27
-25 78 -47 88 -38 3 4 0 11 -8 16 -10 7 -11 10 -2 10 9 0 12 32 12 124 l0 125
-37 0 c-75 0 -136 10 -144 23 -6 10 -15 10 -37 2 -22 -8 -33 -8 -46 1 -13 10
-14 14 -4 17 7 3 -3 5 -22 5 -38 0 -110 23 -110 35 0 5 -6 8 -14 8 -16 0 -41
28 -33 37 4 3 13 0 21 -6 8 -7 37 -13 65 -13 27 -1 48 -5 45 -9 -2 -4 0 -10 5
-13 16 -10 23 12 10 35 -10 20 -16 21 -120 16 -105 -5 -111 -4 -138 19 -16 13
-34 24 -40 24 -7 0 -26 7 -42 16 -17 8 -44 17 -62 19 -17 2 -33 9 -35 15 -2 5
-11 10 -19 10 -9 0 -39 11 -67 24 -51 23 -75 34 -171 75 -27 12 -58 26 -67 31
-27 15 -35 11 -13 -6z m1052 -540 c-3 -3 -12 -4 -19 -1 -8 3 -5 6 6 6 11 1 17
-2 13 -5z m-33 -40 c9 -3 16 -12 16 -20 0 -12 -4 -12 -20 -2 -30 19 -27 34 4
22z"/>
<path d="M7265 1711 c-3 -5 -1 -12 5 -16 5 -3 10 1 10 9 0 18 -6 21 -15 7z"/>
<path d="M7332 1708 c6 -18 28 -21 28 -4 0 9 -7 16 -16 16 -9 0 -14 -5 -12
-12z"/>
<path d="M810 1700 c-12 -8 -9 -10 13 -10 15 0 27 5 27 10 0 13 -20 13 -40 0z"/>
<path d="M7205 1650 c-3 -5 -19 -10 -36 -10 -29 0 -39 -13 -19 -25 6 -4 17 -2
25 5 10 9 20 7 40 -6 21 -13 23 -19 13 -31 -10 -12 -13 -12 -18 -1 -3 8 -22
13 -50 13 -25 0 -55 3 -68 7 -16 6 -21 4 -16 -3 4 -8 0 -9 -15 -4 -26 8 -29
-13 -3 -22 9 -4 20 -11 24 -17 5 -7 8 -4 8 6 0 16 3 15 35 -3 19 -12 43 -18
51 -15 26 10 54 -3 54 -25 0 -13 -7 -19 -22 -19 -28 0 -55 -16 -45 -26 3 -4
12 -2 20 4 8 7 18 7 27 2 25 -16 70 -12 70 6 0 13 4 13 28 -4 54 -37 52 -39
51 45 -1 43 -4 66 -6 52 -3 -20 -13 -29 -42 -39 -21 -6 -46 -10 -57 -8 -16 4
-14 7 11 16 52 20 60 28 63 61 2 19 9 31 18 31 8 0 14 3 14 8 0 9 -69 7 -91
-2 -10 -4 -20 -3 -24 3 -8 14 -32 14 -40 1z"/>
<path d="M637 1606 c-3 -8 -2 -18 3 -21 13 -8 20 9 11 24 -6 10 -10 9 -14 -3z"/>
<path d="M6078 1603 c6 -2 18 -2 25 0 6 3 1 5 -13 5 -14 0 -19 -2 -12 -5z"/>
<path d="M6985 1600 c3 -5 11 -10 16 -10 6 0 7 5 4 10 -3 6 -11 10 -16 10 -6
0 -7 -4 -4 -10z"/>
<path d="M2628 1553 c7 -3 16 -2 19 1 4 3 -2 6 -13 5 -11 0 -14 -3 -6 -6z"/>
<path d="M6090 1550 c8 -5 26 -9 40 -9 l25 1 -25 8 c-14 4 -32 8 -40 9 -13 1
-13 0 0 -9z"/>
<path d="M1170 1520 c0 -12 17 -12 45 0 17 7 15 9 -12 9 -18 1 -33 -3 -33 -9z"/>
<path d="M6770 1461 c0 -11 59 -26 67 -17 3 3 -6 10 -21 16 -34 12 -46 13 -46
1z"/>
<path d="M6675 1452 c6 -5 21 -13 35 -17 17 -5 22 -4 15 3 -5 5 -21 13 -35 17
-17 5 -22 4 -15 -3z"/>
<path d="M6545 1401 c-3 -5 -1 -12 5 -16 5 -3 10 1 10 9 0 18 -6 21 -15 7z"/>
<path d="M295 1258 c-19 -11 -18 -12 9 -19 24 -7 76 6 64 15 -12 11 -56 13
-73 4z"/>
<path d="M6905 1249 c-10 -16 -2 -20 58 -26 61 -6 86 10 42 27 -35 13 -92 13
-100 -1z"/>
<path d="M7090 1220 c0 -5 7 -10 15 -10 8 0 15 5 15 10 0 6 -7 10 -15 10 -8 0
-15 -4 -15 -10z"/>
<path d="M6810 1212 c0 -4 -17 -6 -39 -4 -21 2 -42 -1 -45 -7 -4 -6 -17 -11
-29 -11 -16 0 -18 -3 -9 -12 16 -16 15 -28 -3 -28 -21 0 -19 -20 3 -21 16 0
16 -1 -1 -8 -30 -11 39 -30 110 -29 34 1 68 -4 75 -9 18 -16 107 -23 115 -10
8 13 -25 37 -43 30 -8 -3 -14 -1 -14 5 0 5 -27 18 -60 28 -32 10 -62 24 -65
32 -9 24 2 25 24 3 21 -21 51 -19 51 4 0 14 -23 26 -42 21 -7 -1 -10 -1 -5 1
9 6 -1 23 -14 23 -5 0 -9 -3 -9 -8z m-5 -82 c0 -11 -9 -14 -30 -11 -34 4 -45
9 -45 21 0 5 17 8 38 6 25 -1 37 -7 37 -16z"/>
<path d="M7078 1153 c7 -3 16 -2 19 1 4 3 -2 6 -13 5 -11 0 -14 -3 -6 -6z"/>
<path d="M7088 1113 c7 -3 16 -2 19 1 4 3 -2 6 -13 5 -11 0 -14 -3 -6 -6z"/>
<path d="M7120 1110 c0 -5 11 -10 25 -10 14 0 25 5 25 10 0 6 -11 10 -25 10
-14 0 -25 -4 -25 -10z"/>
<path d="M4955 1050 c3 -5 13 -10 21 -10 8 0 14 5 14 10 0 6 -9 10 -21 10 -11
0 -17 -4 -14 -10z"/>
<path d="M7266 1051 c-4 -5 0 -12 6 -14 10 -4 10 -6 0 -6 -7 -1 -10 -6 -7 -12
7 -11 45 16 45 33 0 11 -37 10 -44 -1z"/>
<path d="M6906 1031 c-3 -4 6 -13 19 -19 14 -7 25 -15 25 -19 0 -5 20 -7 44
-5 32 3 43 8 40 17 -10 26 -115 48 -128 26z"/>
<path d="M6130 1020 c0 -5 9 -10 20 -10 11 0 20 5 20 10 0 6 -9 10 -20 10 -11
0 -20 -4 -20 -10z"/>
<path d="M7320 1010 c0 -5 10 -14 22 -21 18 -10 20 -9 15 6 -4 9 -7 19 -7 21
0 2 -7 4 -15 4 -8 0 -15 -4 -15 -10z"/>
<path d="M6436 985 c5 -12 0 -14 -24 -9 -48 10 -46 -13 3 -27 25 -7 45 -17 45
-21 0 -4 7 -8 15 -8 10 0 15 -10 15 -30 0 -35 25 -41 56 -12 10 10 34 24 52
31 41 17 26 31 -34 31 -48 0 -91 19 -98 42 -2 10 -11 18 -20 18 -10 0 -13 -6
-10 -15z"/>
<path d="M7260 961 c0 -14 18 -23 31 -15 8 4 7 9 -2 15 -18 11 -29 11 -29 0z"/>
<path d="M6678 955 c-25 -26 70 -59 108 -37 16 9 16 10 -3 20 -27 15 -96 26
-105 17z"/>
<path d="M7331 944 c10 -11 19 -28 22 -39 3 -11 5 -4 4 15 -2 26 -7 36 -22 39
-19 3 -19 2 -4 -15z"/>
<path d="M7290 920 c0 -5 5 -10 10 -10 6 0 10 5 10 10 0 6 -4 10 -10 10 -5 0
-10 -4 -10 -10z"/>
<path d="M7035 890 c-3 -5 -1 -10 4 -10 6 0 11 5 11 10 0 6 -2 10 -4 10 -3 0
-8 -4 -11 -10z"/>
<path d="M7120 891 c0 -5 9 -11 21 -14 16 -4 18 -3 8 9 -13 16 -29 19 -29 5z"/>
<path d="M7000 850 c0 -6 11 -15 25 -20 14 -5 25 -14 25 -19 0 -5 10 -11 23
-15 13 -3 34 -15 48 -27 16 -15 18 -20 7 -16 -25 9 -33 -12 -12 -28 23 -17 60
-19 70 -4 4 8 9 7 15 -2 7 -11 12 -11 26 4 17 17 17 19 1 28 -10 6 -18 17 -18
25 0 12 -7 14 -32 9 -30 -6 -31 -6 -15 7 17 13 17 15 3 27 -9 8 -26 11 -41 7
-15 -4 -25 -2 -25 4 0 6 -4 8 -10 5 -5 -3 -20 1 -32 9 -25 18 -58 21 -58 6z"/>
<path d="M7170 852 c0 -14 23 -32 42 -32 26 0 22 15 -7 28 -31 14 -35 15 -35
4z"/>
<path d="M6613 832 c-13 -2 -23 -9 -23 -16 0 -15 64 -40 68 -26 5 15 52 12 52
-3 0 -9 11 -12 36 -9 24 3 40 0 46 -9 7 -11 8 -9 6 6 -2 15 -13 21 -45 26 -23
3 -47 10 -55 16 -16 13 -55 20 -85 15z"/>
<path d="M7320 825 c-17 -20 -6 -45 20 -45 17 0 21 5 18 27 -4 31 -20 40 -38
18z"/>
<path d="M6929 810 c-1 -8 -1 -20 0 -27 1 -6 -10 -15 -24 -20 -23 -7 -24 -10
-13 -26 9 -12 27 -18 56 -19 23 0 42 -4 42 -9 0 -5 7 -9 15 -9 8 0 15 6 15 13
0 8 12 19 26 26 22 9 24 14 14 26 -10 12 -16 13 -26 4 -10 -8 -14 -8 -15 0 -1
6 -3 16 -4 21 -1 6 -3 14 -4 19 0 5 -19 11 -41 13 -31 3 -40 0 -41 -12z"/>
<path d="M6812 768 c5 -15 28 -18 29 -3 0 6 -7 12 -17 13 -10 3 -15 -1 -12
-10z"/>
<path d="M6490 731 c0 -6 5 -13 10 -16 6 -3 10 1 10 9 0 9 -4 16 -10 16 -5 0
-10 -4 -10 -9z"/>
<path d="M6526 725 c-3 -9 0 -15 9 -15 8 0 15 7 15 15 0 8 -4 15 -9 15 -5 0
-11 -7 -15 -15z"/>
<path d="M7303 713 c-27 -5 -30 -18 -7 -27 15 -6 15 -8 -2 -25 -15 -15 -21
-16 -29 -7 -12 15 -75 27 -102 20 -27 -7 -46 -39 -24 -41 9 -1 38 -4 64 -7 27
-2 55 -10 63 -17 11 -9 14 -9 14 2 0 7 14 -3 30 -21 31 -35 37 -50 20 -50 -5
0 -10 6 -10 13 0 8 -3 8 -9 -2 -5 -8 -7 -20 -4 -28 3 -7 -2 -16 -10 -19 -11
-4 -15 -15 -12 -34 2 -18 -2 -30 -11 -34 -8 -3 -14 -12 -14 -21 0 -17 -16 -20
-25 -5 -4 7 -13 6 -26 -1 -11 -5 -29 -7 -39 -4 -28 9 -25 -4 3 -15 19 -8 17
-9 -15 -9 -32 -1 -38 -4 -39 -23 0 -22 -1 -22 -9 -3 -5 13 -3 25 6 35 8 9 10
21 5 29 -5 8 -11 9 -15 3 -3 -6 0 -13 6 -15 8 -3 6 -6 -4 -6 -10 -1 -18 -7
-18 -15 0 -7 -10 -17 -22 -21 l-23 -8 23 -4 c12 -2 22 -11 22 -20 0 -11 -6
-14 -25 -9 -17 4 -25 2 -25 -6 0 -14 59 -16 79 -4 10 6 31 -23 31 -42 0 -22
-43 -21 -61 1 -17 21 -19 21 -35 5 -16 -16 -18 -16 -31 0 -12 16 -14 16 -24
-1 -9 -16 -12 -17 -22 -3 -15 19 -49 25 -54 9 -5 -14 69 -63 96 -63 11 0 23 9
26 20 8 25 23 25 54 -1 21 -17 23 -23 13 -40 -17 -26 -15 -31 7 -24 11 3 22 1
26 -5 8 -13 -7 -13 -79 1 -32 6 -64 8 -71 5 -20 -7 -6 -46 21 -58 13 -6 24
-17 24 -25 0 -15 12 -17 26 -3 10 10 54 2 54 -10 0 -5 20 -7 44 -6 41 2 44 1
35 -16 -6 -10 -14 -16 -20 -13 -11 7 -12 -15 -1 -31 4 -7 43 -12 95 -13 l88
-2 -2 121 c-2 95 -5 120 -15 116 -18 -7 -29 13 -15 27 9 9 14 8 21 -3 7 -11
10 -7 10 16 0 26 -5 33 -32 42 l-33 11 33 -5 32 -6 0 61 c0 60 -1 61 -27 61
-19 0 -24 3 -15 9 11 6 10 10 -5 16 -16 6 -16 8 6 16 18 7 27 6 33 -3 5 -9 8
-6 8 9 0 12 -7 26 -16 31 -15 8 -15 10 -1 15 13 5 16 21 14 77 -1 60 -4 70
-19 70 -23 0 -23 16 0 29 18 11 8 12 -35 4z m37 -303 c0 -5 -4 -10 -9 -10 -6
0 -13 5 -16 10 -3 6 1 10 9 10 9 0 16 -4 16 -10z m-126 -54 c-4 -10 5 -16 27
-21 27 -6 30 -9 15 -17 -10 -6 -15 -16 -11 -27 8 -26 -18 -45 -43 -32 -11 6
-22 17 -26 26 -6 17 5 20 20 5 5 -5 15 -6 24 0 12 8 12 10 -3 16 -18 7 -25 64
-7 64 5 0 7 -6 4 -14z m62 -122 c-22 -15 -36 -18 -36 -6 0 9 43 30 50 24 3 -2
-4 -10 -14 -18z m-41 -24 c3 -6 -3 -14 -15 -18 -20 -7 -20 -9 -6 -21 9 -8 16
-18 16 -24 0 -7 -4 -7 -12 1 -7 7 -20 12 -30 12 -25 0 -19 43 7 52 30 9 33 9
40 -2z m69 -5 c-22 -17 -34 -19 -34 -6 0 5 8 12 18 14 32 9 36 7 16 -8z m-214
-71 c0 -2 -7 -4 -15 -4 -8 0 -15 4 -15 10 0 5 7 7 15 4 8 -4 15 -8 15 -10z
m97 -30 c-3 -3 -12 -4 -19 -1 -8 3 -5 6 6 6 11 1 17 -2 13 -5z"/>
<path d="M7065 660 c3 -5 8 -10 11 -10 2 0 4 5 4 10 0 6 -5 10 -11 10 -5 0 -7
-4 -4 -10z"/>
<path d="M6530 646 c0 -18 19 -24 50 -15 24 7 24 7 3 8 -13 1 -23 6 -23 11 0
6 -7 10 -15 10 -8 0 -15 -6 -15 -14z"/>
<path d="M7201 593 c-1 -16 6 -24 24 -29 14 -4 29 -4 32 0 4 3 -3 6 -14 6 -11
0 -25 10 -31 23 l-11 22 0 -22z"/>
<path d="M6762 583 c3 -5 11 -23 18 -40 8 -18 20 -33 27 -33 7 0 13 -4 13 -10
0 -12 50 -13 69 -1 17 11 6 31 -18 31 -9 0 -22 5 -29 12 -9 9 -15 9 -24 0 -9
-9 -15 -5 -24 18 -7 17 -18 30 -24 30 -7 0 -10 -3 -8 -7z"/>
<path d="M7185 540 c3 -5 8 -10 11 -10 2 0 4 5 4 10 0 6 -5 10 -11 10 -5 0 -7
-4 -4 -10z"/>
<path d="M6997 526 c-7 -18 1 -26 18 -19 8 2 11 11 8 19 -7 18 -19 18 -26 0z"/>
<path d="M7147 532 c-10 -2 -16 -9 -14 -15 4 -13 -16 -37 -32 -37 -18 0 -12
-19 10 -30 17 -10 21 -8 26 9 6 24 33 23 62 -3 18 -16 21 -16 43 -2 14 9 28
13 31 9 4 -3 7 -2 7 4 0 17 -49 34 -69 24 -21 -12 -38 -2 -42 24 -3 14 -10 19
-22 17z"/>
<path d="M7215 520 c3 -5 13 -10 21 -10 8 0 14 5 14 10 0 6 -9 10 -21 10 -11
0 -17 -4 -14 -10z"/>
<path d="M6945 471 c-7 -18 -9 -17 52 -24 38 -4 55 -2 63 8 15 18 5 23 -62 27
-34 2 -49 -1 -53 -11z"/>
<path d="M7145 451 c-8 -15 3 -31 21 -31 9 0 14 7 12 17 -4 20 -24 28 -33 14z"/>
<path d="M6850 440 c0 -5 5 -10 10 -10 6 0 10 5 10 10 0 6 -4 10 -10 10 -5 0
-10 -4 -10 -10z"/>
<path d="M7015 350 c-4 -6 -15 -8 -26 -5 -11 4 -19 2 -19 -5 0 -15 62 -8 68 8
5 15 -14 16 -23 2z"/>
<path d="M6760 305 c-7 -9 -8 -15 -2 -15 5 0 12 7 16 15 3 8 4 15 2 15 -2 0
-9 -7 -16 -15z"/>
<path d="M6785 271 c-3 -5 -1 -12 5 -16 5 -3 10 1 10 9 0 18 -6 21 -15 7z"/>
<path d="M6906 231 c-14 -5 -16 -10 -8 -15 7 -4 19 0 28 8 17 17 11 19 -20 7z"/>
<path d="M6952 195 c0 -16 2 -22 5 -12 2 9 2 23 0 30 -3 6 -5 -1 -5 -18z"/>
<path d="M6909 134 c18 -8 36 -13 39 -10 8 9 0 13 -38 20 l-35 6 34 -16z"/>
<path d="M6697 133 c-12 -11 -8 -21 13 -26 17 -4 18 -2 9 14 -11 21 -13 22
-22 12z"/>
<path d="M6385 90 c27 -11 45 -12 45 -2 0 5 -15 9 -32 9 -27 1 -29 -1 -13 -7z"/>
<path d="M6578 83 c12 -2 22 -11 22 -19 0 -8 5 -14 11 -14 6 0 9 8 7 18 -2 11
-13 18 -33 19 -20 1 -23 0 -7 -4z"/>
<path d="M6678 83 c6 -2 18 -2 25 0 6 3 1 5 -13 5 -14 0 -19 -2 -12 -5z"/>
<path d="M6737 76 c-4 -10 -19 -16 -39 -17 l-33 -1 30 -13 c17 -7 49 -12 72
-10 25 1 44 -2 46 -9 2 -6 4 2 3 19 -1 23 -6 30 -21 31 -11 0 -27 4 -36 8 -11
5 -19 2 -22 -8z"/>
<path d="M6973 83 c9 -2 23 -2 30 0 6 3 -1 5 -18 5 -16 0 -22 -2 -12 -5z"/>
<path d="M7040 55 c0 -10 10 -15 30 -15 20 0 30 5 30 15 0 10 -10 15 -30 15
-20 0 -30 -5 -30 -15z"/>
<path d="M6880 15 c0 -8 7 -15 15 -15 8 0 15 7 15 15 0 8 -7 15 -15 15 -8 0
-15 -7 -15 -15z"/>
<path d="M6968 23 c7 -3 16 -2 19 1 4 3 -2 6 -13 5 -11 0 -14 -3 -6 -6z"/>
<path d="M7023 3 c15 -2 39 -2 55 0 15 2 2 4 -28 4 -30 0 -43 -2 -27 -4z"/>
</g>
</svg>
