<?xml version="1.0" standalone="no"?>
<!DOCTYPE svg PUBLIC "-//W3C//DTD SVG 20010904//EN"
 "http://www.w3.org/TR/2001/REC-SVG-20010904/DTD/svg10.dtd">
<svg version="1.0" xmlns="http://www.w3.org/2000/svg"
 width="1080.000000pt" height="1080.000000pt" viewBox="0 0 1080.000000 1080.000000"
 preserveAspectRatio="xMidYMid meet">

<g transform="translate(0.000000,1080.000000) scale(0.100000,-0.100000)"
fill="#000000" stroke="none">
<path d="M5219 7580 c-202 -22 -489 -104 -692 -198 -246 -116 -442 -256 -652
-466 -117 -118 -171 -182 -247 -292 -203 -294 -325 -592 -383 -938 -24 -141
-21 -557 5 -711 45 -264 79 -374 196 -631 68 -150 211 -364 338 -506 259 -291
564 -501 917 -632 294 -108 500 -141 844 -133 375 9 576 57 945 225 113 52
317 187 445 295 85 72 245 230 295 293 120 150 204 280 279 430 229 462 294
945 195 1454 -46 235 -157 524 -279 725 -292 481 -745 836 -1280 1001 -89 28
-122 35 -275 65 -121 23 -504 34 -651 19z m596 -44 c108 -18 281 -58 350 -81
549 -181 997 -554 1284 -1069 35 -61 109 -233 139 -321 69 -199 104 -371 122
-613 42 -531 -149 -1113 -506 -1542 -217 -261 -550 -512 -832 -626 -343 -139
-544 -179 -897 -178 -191 0 -252 4 -360 23 -113 19 -238 50 -325 81 -235 81
-338 132 -559 274 -124 81 -251 192 -403 354 -151 161 -330 444 -408 647 -13
33 -28 74 -35 90 -82 205 -127 475 -129 770 -2 306 47 550 166 839 166 400
462 758 832 1006 94 63 314 178 411 215 195 74 399 123 600 145 112 12 442 4
550 -14z"/>
<path d="M5280 7514 c-65 -6 -236 -34 -300 -49 -77 -18 -252 -73 -272 -85 -10
-5 -22 -10 -27 -10 -21 0 -253 -118 -340 -172 -266 -167 -518 -412 -682 -663
-111 -170 -213 -386 -264 -560 -50 -171 -61 -226 -80 -400 -19 -165 -19 -253
0 -450 27 -280 93 -514 216 -760 372 -744 1131 -1215 1959 -1215 336 0 651 75
965 230 265 131 454 275 669 509 68 75 179 219 206 269 8 15 32 55 53 89 32
53 80 150 132 268 36 83 90 265 115 390 41 206 55 394 41 563 -11 128 -50 369
-71 437 -62 199 -75 233 -157 405 -295 615 -907 1068 -1603 1185 -92 16 -460
28 -560 19z m550 -48 c449 -78 848 -281 1164 -591 282 -276 496 -650 581
-1015 9 -36 20 -81 25 -100 35 -139 48 -563 21 -735 -25 -168 -78 -357 -146
-520 -154 -375 -451 -733 -795 -959 -41 -27 -87 -58 -102 -68 -82 -55 -362
-175 -498 -213 -390 -109 -822 -108 -1200 4 -573 170 -1048 570 -1320 1109
-27 55 -55 113 -61 128 -70 179 -118 356 -145 534 -24 165 -24 470 0 615 34
202 93 402 165 558 17 37 31 69 31 71 0 3 24 46 53 98 177 313 414 566 712
761 261 170 576 289 865 326 47 6 99 13 115 15 68 9 454 -4 535 -18z"/>
<path d="M5412 7363 c-23 -4 -23 -7 -20 -106 l3 -102 -34 -3 c-44 -4 -51 8
-51 95 0 99 -2 103 -63 103 l-50 0 6 -102 c15 -243 27 -372 35 -380 5 -5 27
-8 48 -6 l39 3 3 98 3 97 35 0 c41 0 41 -1 51 -105 l8 -80 43 1 c24 0 47 5 52
10 9 10 -22 452 -34 472 -7 12 -29 13 -74 5z"/>
<path d="M5726 7323 c-3 -16 -15 -82 -26 -148 -12 -66 -28 -160 -36 -208 -9
-49 -13 -91 -10 -94 11 -12 199 -44 208 -35 5 5 11 25 14 44 l6 36 -52 7 c-28
4 -54 13 -56 20 -3 7 -2 33 3 57 l9 43 54 0 c53 0 54 1 61 33 4 22 3 35 -5 37
-6 2 -29 9 -51 14 l-41 11 6 47 5 48 59 0 c59 0 60 0 68 34 5 18 6 37 1 41 -8
7 -169 40 -197 40 -8 0 -17 -12 -20 -27z"/>
<path d="M4893 7284 c-35 -15 -39 -28 -24 -66 20 -49 63 -217 59 -235 -2 -12
-29 25 -79 107 -73 121 -77 125 -109 123 -18 0 -39 -8 -47 -15 -15 -15 -17 -1
37 -220 12 -48 20 -92 18 -98 -3 -10 -39 48 -118 195 -18 33 -36 64 -40 69
-11 11 -80 -12 -86 -29 -3 -7 50 -103 118 -214 87 -143 128 -201 141 -201 18
0 97 36 97 45 0 3 -12 54 -26 115 -14 60 -24 117 -22 127 3 16 65 -76 116
-173 19 -36 32 -38 87 -14 55 24 54 8 10 195 -14 61 -34 150 -46 199 -11 49
-22 93 -25 98 -7 11 -23 9 -61 -8z"/>
<path d="M6144 7203 c-9 -21 -50 -118 -91 -216 -85 -201 -86 -187 7 -226 30
-13 63 -27 72 -32 28 -14 55 -10 61 9 2 9 8 25 12 34 5 13 -5 23 -44 43 -28
14 -51 27 -51 29 0 13 43 96 49 96 5 0 25 -7 44 -15 48 -20 52 -19 65 10 19
41 15 51 -29 65 -23 8 -43 19 -46 26 -2 6 5 32 17 57 l22 46 50 -20 c54 -21
57 -20 76 23 10 25 9 29 -11 40 -37 21 -157 68 -173 68 -8 0 -22 -17 -30 -37z"/>
<path d="M6424 6858 c-70 -100 -129 -189 -131 -197 -2 -11 23 -36 76 -73 44
-32 84 -58 88 -58 14 0 50 54 46 67 -3 7 -20 22 -39 33 -19 12 -34 28 -34 36
0 7 47 81 105 164 58 82 105 154 105 159 0 13 -55 51 -73 51 -8 0 -72 -82
-143 -182z"/>
<path d="M4018 6737 c-52 -43 -98 -108 -98 -138 0 -36 50 -95 73 -86 9 3 23
18 33 32 14 22 15 30 4 49 -14 26 -9 41 19 56 14 7 27 2 60 -26 22 -20 41 -43
41 -52 -1 -9 -14 -33 -30 -52 -47 -54 -42 -90 23 -152 28 -28 67 -62 86 -76
l33 -26 64 69 c104 113 112 133 62 164 -20 13 -25 10 -73 -45 l-52 -58 -31 23
c-38 27 -40 50 -8 80 14 13 30 36 36 52 17 40 -7 78 -95 151 -76 65 -104 71
-147 35z"/>
<path d="M6848 6730 c-64 -43 -128 -114 -128 -144 0 -13 16 -45 35 -70 19 -26
35 -52 35 -59 0 -18 -68 -69 -87 -65 -26 5 -40 35 -25 56 24 34 24 43 2 68
-30 31 -50 30 -83 -4 -44 -45 -37 -88 23 -160 80 -95 115 -94 224 10 44 42 66
71 66 86 0 29 -22 71 -49 96 -12 11 -21 26 -21 35 0 20 60 72 79 69 25 -5 37
-36 23 -58 -16 -26 -17 -22 18 -61 l29 -34 30 30 c28 28 35 48 32 86 -2 24
-79 118 -112 134 -37 20 -39 20 -91 -15z"/>
<path d="M5546 6248 c-23 -22 -36 -45 -39 -71 -5 -34 -4 -36 14 -27 11 6 24 8
30 4 6 -3 19 2 30 12 10 9 22 14 27 10 19 -20 -136 -124 -225 -151 -13 -3 -23
-10 -23 -14 0 -4 -30 -21 -66 -36 -59 -25 -68 -26 -91 -14 -30 16 -131 16
-161 0 -14 -8 -22 -26 -26 -65 -7 -51 -5 -57 28 -103 36 -51 35 -73 -4 -73
-23 0 -40 -20 -40 -48 0 -29 29 -120 41 -128 5 -3 9 -14 9 -25 0 -23 -29 -25
-115 -4 -80 20 -124 19 -247 -5 -240 -46 -474 -216 -585 -424 -36 -68 -38 -75
-38 -166 0 -86 3 -101 30 -154 40 -79 122 -148 217 -181 58 -20 233 -20 306 1
101 27 219 75 265 107 23 16 37 18 75 12 26 -4 74 -7 107 -6 56 1 62 3 88 36
32 39 51 43 86 19 21 -15 37 -16 149 -5 120 11 126 10 147 -9 26 -24 52 -26
77 -3 43 38 240 55 323 26 44 -15 63 -15 180 -4 71 7 166 19 210 27 44 7 135
14 201 14 91 0 124 3 133 14 16 19 -1 24 -114 32 -52 4 -95 10 -95 14 0 4 27
28 59 54 32 26 80 76 106 111 25 35 53 69 61 75 7 7 11 16 9 21 -10 15 32 80
85 131 l52 50 -7 102 -7 102 26 12 c33 15 56 60 37 71 -21 13 4 49 48 68 40
17 62 62 54 106 -7 35 -81 85 -139 92 -58 8 -70 -1 -77 -55 -2 -21 -4 -7 -5
32 l-2 67 36 17 c31 15 41 15 73 4 20 -7 51 -23 69 -37 27 -20 32 -21 32 -7 0
26 -81 121 -119 140 -48 23 -112 14 -167 -25 -25 -17 -46 -31 -48 -31 -3 0
-21 22 -41 49 -39 54 -43 56 -127 66 -68 8 -79 -8 -18 -25 59 -16 83 -80 29
-80 -29 0 -128 61 -122 75 2 7 -3 15 -11 18 -9 4 -16 2 -16 -3 0 -6 -5 -10
-11 -10 -7 0 -9 10 -5 26 5 19 0 33 -19 55 -14 17 -25 34 -25 37 0 4 -18 15
-41 25 -50 22 -106 10 -144 -31 -32 -35 -32 -81 0 -151 27 -58 26 -72 -5 -53
-37 23 -108 15 -167 -19 -62 -35 -62 -36 -25 -139 23 -65 15 -83 -25 -53 -22
15 -28 29 -29 59 -1 21 -7 52 -13 67 -15 38 -14 66 3 99 18 34 5 155 -21 195
-22 34 -52 63 -67 63 -6 0 -28 11 -48 25 -51 35 -90 33 -132 -7z m704 -199 c0
-14 -33 -19 -46 -8 -11 9 -14 8 -15 -2 0 -8 -5 -3 -10 10 -5 13 -7 32 -4 42 6
17 9 17 41 -9 19 -15 34 -30 34 -33z m112 -70 c41 -9 61 -20 85 -48 18 -20 32
-41 33 -48 0 -6 -26 -21 -57 -33 -48 -18 -63 -19 -102 -11 -25 6 -63 13 -83
16 -21 3 -38 9 -38 14 0 4 16 20 35 35 19 16 35 34 35 41 0 12 26 45 35 45 2
0 28 -5 57 -11z m-776 -174 c10 -53 0 -68 -38 -60 -68 15 -76 43 -20 73 49 27
50 27 58 -13z m1203 -173 c-11 -47 -14 -51 -27 -38 -13 13 -13 22 -4 54 7 22
12 57 12 78 l1 39 15 -40 c12 -33 13 -49 3 -93z m-1359 29 c0 -15 4 -31 9 -36
13 -15 23 -65 12 -65 -6 0 -15 19 -21 43 -5 23 -14 57 -19 75 -8 28 -7 31 5
21 8 -6 14 -23 14 -38z m484 -40 c20 -32 36 -62 36 -66 0 -4 43 -83 96 -176
52 -93 92 -174 89 -179 -10 -16 -88 -11 -122 8 -46 24 -116 111 -155 189 -29
60 -33 77 -33 148 0 61 4 88 18 108 9 15 21 27 26 27 4 0 25 -27 45 -59z m773
-106 c5 -11 13 -47 16 -81 6 -55 4 -63 -17 -83 -12 -11 -26 -18 -29 -14 -4 3
-25 -3 -47 -16 -28 -16 -49 -20 -72 -16 -19 3 -55 -1 -83 -9 -27 -9 -56 -16
-62 -16 -22 0 -14 15 15 28 36 15 68 84 82 172 5 36 10 68 10 72 0 4 15 15 33
24 28 15 30 15 19 1 -8 -9 -15 -48 -17 -89 -2 -40 -6 -86 -10 -103 l-7 -30 16
29 c10 18 16 53 16 95 0 74 8 87 80 130 l35 21 5 -48 c3 -26 11 -56 17 -67z
m-970 -167 c-3 -8 -6 -5 -6 6 -1 11 2 17 5 13 3 -3 4 -12 1 -19z m637 -67 c3
-5 -2 -11 -12 -14 -9 -2 -26 -8 -37 -12 -17 -6 -17 -4 4 14 25 23 37 26 45 12z
m304 -63 c16 -16 15 -39 -1 -32 -8 3 -18 -5 -25 -18 l-11 -23 -1 25 c-1 24 -1
24 -15 6 -8 -11 -15 -28 -15 -39 0 -30 -33 -77 -58 -84 -44 -11 -81 49 -47 77
12 10 18 10 31 -1 15 -12 16 -10 10 19 -7 30 -6 32 20 30 20 -2 33 5 48 25 21
29 45 34 64 15z m-268 -98 c0 -31 -6 -35 -34 -24 -21 8 -20 31 2 43 27 16 32
13 32 -19z m-192 -153 c8 -10 6 -16 -9 -26 -18 -10 -24 -10 -40 5 -10 9 -19
21 -19 26 0 13 56 9 68 -5z m-300 -48 c3 -8 11 -19 19 -26 9 -7 12 -19 8 -32
-8 -26 -30 -27 -40 -3 -6 15 -8 15 -25 -5 -10 -13 -22 -23 -27 -23 -4 0 -8 28
-8 63 l0 63 35 -12 c19 -7 36 -18 38 -25z"/>
<path d="M3729 6024 c-35 -72 -47 -80 -135 -90 -30 -4 -54 -12 -54 -18 0 -6
23 -34 52 -63 l51 -52 -12 -71 c-6 -39 -9 -75 -6 -80 3 -5 36 7 72 27 l67 35
63 -31 c35 -17 68 -31 74 -31 11 0 8 62 -7 122 -5 22 2 34 45 79 28 29 51 57
51 64 0 6 -32 17 -73 23 l-73 13 -34 69 c-19 39 -37 70 -42 70 -4 0 -22 -30
-39 -66z"/>
<path d="M7165 6021 c-34 -68 -35 -69 -85 -80 -28 -6 -62 -11 -75 -11 -37 0
-30 -21 26 -75 50 -50 50 -50 44 -99 -3 -27 -9 -62 -12 -77 -7 -38 6 -37 83 3
l62 31 61 -31 c88 -46 88 -46 77 48 l-10 81 52 49 c57 55 64 70 29 70 -13 0
-49 5 -81 11 l-57 12 -32 68 c-17 38 -35 69 -39 69 -4 0 -23 -31 -43 -69z"/>
<path d="M3720 5196 l-145 -22 -3 -37 c-2 -27 1 -39 13 -43 9 -4 83 4 166 16
82 12 156 19 165 16 9 -3 14 -15 12 -28 -3 -20 -14 -24 -158 -44 -85 -13 -161
-23 -167 -24 -18 0 -16 -65 2 -80 8 -7 21 -10 28 -7 28 11 246 38 278 35 26
-2 34 -8 34 -23 0 -18 -14 -22 -130 -42 -71 -12 -144 -22 -162 -22 -39 -1 -47
-12 -39 -57 8 -41 5 -41 186 -13 182 28 178 27 201 50 18 18 20 29 15 72 -4
28 -12 60 -19 71 -6 12 -12 54 -12 95 -1 64 -4 76 -24 92 -29 23 -55 23 -241
-5z"/>
<path d="M7005 5190 c-21 -23 -43 -189 -26 -199 5 -4 94 -15 197 -24 142 -14
189 -15 194 -6 11 17 22 165 15 189 -3 11 -15 25 -26 30 -31 17 -143 24 -167
11 -18 -10 -27 -9 -44 4 -33 23 -120 20 -143 -5z m137 -84 c10 -14 10 -18 -1
-34 -6 -10 -21 -12 -55 -7 -39 6 -46 11 -46 30 0 13 6 25 13 28 19 7 81 -5 89
-17z m162 -2 c16 -6 22 -49 8 -58 -15 -9 -94 7 -99 20 -14 37 38 58 91 38z"/>
<path d="M6942 4878 c-6 -7 -12 -26 -14 -43 -3 -31 -17 -25 280 -126 34 -11
45 -45 17 -55 -8 -4 -83 17 -166 45 -83 28 -154 49 -159 46 -17 -10 -29 -63
-17 -73 20 -17 309 -112 338 -112 36 0 63 35 84 107 16 54 16 57 -3 82 -10 14
-41 34 -68 43 -99 34 -249 87 -265 93 -9 3 -21 0 -27 -7z"/>
<path d="M3980 4740 c-8 -5 -68 -33 -132 -61 -65 -28 -123 -58 -129 -66 -19
-22 -12 -75 18 -134 43 -83 55 -84 220 -13 141 60 183 88 183 123 0 24 -42
116 -65 141 -19 21 -68 26 -95 10z m75 -110 c0 -21 -14 -30 -115 -76 -63 -29
-123 -53 -132 -53 -9 -1 -20 8 -23 19 -7 22 9 50 29 51 6 0 54 20 106 44 106
50 135 53 135 15z"/>
<path d="M6760 4471 c-15 -36 -11 -43 43 -74 23 -13 93 -54 155 -90 62 -37
119 -67 126 -67 8 0 33 32 56 72 l43 71 -23 19 c-31 25 -38 23 -61 -17 -12
-19 -26 -35 -32 -35 -6 0 -68 34 -138 75 -70 41 -134 75 -142 75 -8 0 -20 -13
-27 -29z"/>
<path d="M4162 4454 c-17 -12 -20 -19 -12 -34 19 -35 10 -48 -82 -115 -51 -38
-108 -79 -125 -92 -18 -13 -33 -27 -33 -31 0 -4 11 -20 24 -36 l23 -30 119 85
c66 47 125 88 132 93 9 5 22 0 37 -14 22 -21 24 -21 49 -5 14 10 26 21 26 25
0 8 -75 116 -103 148 -24 26 -26 26 -55 6z"/>
<path d="M6624 4288 c-58 -54 -77 -89 -65 -121 9 -23 188 -191 238 -225 33
-21 65 -9 117 45 54 57 62 105 24 140 -38 34 -46 34 -72 6 l-26 -27 25 -26
c22 -23 23 -29 12 -44 -7 -10 -20 -17 -29 -15 -29 7 -208 171 -208 191 0 25
25 33 56 19 20 -9 28 -7 44 9 11 11 20 27 20 35 0 16 -55 55 -78 55 -7 0 -33
-19 -58 -42z"/>
<path d="M4333 4182 c-76 -77 -189 -206 -196 -225 -13 -35 0 -63 54 -111 76
-68 95 -65 187 32 108 113 152 171 152 198 0 28 -60 98 -101 120 -41 21 -64
17 -96 -14z m114 -88 c1 -5 -42 -56 -96 -114 l-99 -105 -22 21 -21 21 97 107
c90 100 98 106 117 93 12 -8 22 -18 24 -23z"/>
<path d="M4625 3984 c-45 -69 -175 -306 -175 -319 0 -15 58 -51 67 -41 3 3 22
33 42 67 38 65 49 73 66 45 8 -13 2 -30 -22 -76 -18 -32 -33 -63 -33 -68 0
-11 61 -42 71 -36 13 8 77 129 85 159 4 16 18 38 31 48 27 22 63 87 63 115 0
10 -10 28 -22 39 -20 17 -143 93 -152 93 -2 0 -11 -12 -21 -26z m95 -84 c22
-14 -21 -100 -50 -100 -31 0 -34 23 -10 69 21 42 33 48 60 31z"/>
<path d="M6218 3952 c-37 -20 -68 -40 -68 -43 0 -10 171 -312 188 -331 14 -17
19 -15 81 18 85 47 87 48 73 79 -13 28 -37 32 -66 10 -29 -22 -44 -18 -61 15
-21 41 -19 53 15 72 33 19 37 33 16 61 -13 17 -16 17 -52 -2 l-38 -21 -18 28
c-26 39 -22 59 12 77 30 15 35 29 24 59 -9 24 -32 19 -106 -22z"/>
<path d="M4949 3840 c-20 -12 -40 -60 -78 -185 -45 -148 -45 -152 -27 -179 16
-26 94 -57 145 -58 39 -1 58 15 73 64 13 45 4 58 -43 58 -20 0 -28 -6 -33 -25
-5 -18 -13 -25 -31 -25 -13 0 -27 5 -30 10 -4 6 5 50 20 98 58 188 59 191 95
172 16 -8 20 -18 16 -33 -7 -28 10 -47 44 -47 20 0 29 6 34 23 17 65 -3 94
-87 120 -61 19 -75 20 -98 7z"/>
<path d="M5932 3830 c-12 -5 -25 -15 -27 -22 -3 -7 22 -92 55 -188 46 -135 63
-176 78 -178 10 -2 47 7 82 20 67 24 82 44 61 78 -8 12 -17 12 -51 4 -49 -14
-45 -20 -102 148 -51 155 -52 155 -96 138z"/>
<path d="M5620 3762 c-30 -14 -36 -23 -39 -57 -3 -43 14 -200 31 -278 6 -28
18 -51 28 -57 24 -13 95 -13 142 0 46 13 60 37 56 93 -3 41 -4 42 -38 42 -33
0 -35 -2 -40 -40 -4 -28 -10 -41 -23 -43 -31 -6 -44 16 -51 86 -4 37 -11 94
-15 127 -10 72 -6 85 25 85 17 0 25 -7 30 -25 5 -21 12 -25 45 -25 35 0 39 3
39 26 0 28 -16 65 -34 76 -21 14 -121 8 -156 -10z"/>
<path d="M5230 3759 c0 -5 14 -64 30 -129 23 -89 29 -138 28 -192 l-3 -73 40
0 40 0 6 70 c5 53 19 98 59 189 55 125 55 140 4 134 -25 -3 -32 -12 -55 -68
-15 -35 -31 -66 -36 -67 -5 -2 -14 27 -21 63 -7 37 -15 71 -18 75 -8 13 -74
11 -74 -2z"/>
</g>
</svg>
