<?xml version="1.0" standalone="no"?>
<!DOCTYPE svg PUBLIC "-//W3C//DTD SVG 20010904//EN"
 "http://www.w3.org/TR/2001/REC-SVG-20010904/DTD/svg10.dtd">
<svg version="1.0" xmlns="http://www.w3.org/2000/svg"
 width="512.000000pt" height="512.000000pt" viewBox="0 0 512.000000 512.000000"
 preserveAspectRatio="xMidYMid meet">

<g transform="translate(0.000000,512.000000) scale(0.100000,-0.100000)"
fill="#000000" stroke="none">
<path d="M800 4467 c-49 -16 -133 -102 -148 -153 -28 -94 -8 -169 63 -239 103
-104 243 -101 340 7 25 28 45 56 45 64 0 11 35 14 192 14 l192 0 121 -120 122
-120 312 0 312 0 24 25 c16 15 25 36 25 55 0 19 -9 40 -25 55 l-24 25 -278 0
-277 0 -121 120 -122 120 -226 0 c-199 0 -227 2 -227 16 0 27 -101 119 -146
132 -49 14 -106 14 -154 -1z m135 -172 c50 -49 15 -135 -55 -135 -41 0 -80 39
-80 80 0 41 39 80 80 80 19 0 40 -9 55 -25z"/>
<path d="M2505 4455 c-16 -15 -25 -36 -25 -55 0 -19 9 -40 25 -55 23 -24 30
-25 143 -25 165 0 159 6 187 -204 26 -190 50 -221 241 -301 201 -85 242 -79
421 63 132 105 124 107 306 -76 183 -183 180 -171 67 -317 -134 -173 -139
-206 -56 -406 30 -73 68 -145 83 -162 43 -45 100 -66 230 -83 141 -18 148 -20
173 -47 19 -19 20 -36 20 -225 0 -112 -4 -211 -10 -221 -14 -27 -53 -39 -183
-56 -130 -16 -187 -37 -230 -82 -15 -17 -53 -89 -83 -162 -83 -200 -78 -233
56 -406 113 -146 116 -134 -67 -317 -182 -183 -174 -181 -306 -76 -170 135
-222 146 -380 80 -51 -22 -108 -45 -126 -52 -47 -19 -98 -65 -121 -110 -10
-20 -25 -89 -34 -155 -21 -156 -22 -161 -48 -185 -19 -18 -35 -20 -140 -20
-113 0 -120 -1 -143 -25 -33 -32 -33 -78 0 -110 23 -24 29 -25 152 -25 107 0
135 4 173 21 104 47 135 103 159 286 14 103 22 139 37 153 23 23 209 100 240
100 12 0 66 -34 120 -76 55 -42 117 -85 139 -95 55 -25 146 -25 200 1 54 26
349 323 370 372 21 51 19 144 -4 193 -10 22 -53 84 -95 139 -42 55 -76 108
-76 121 0 30 78 216 100 239 14 15 50 23 153 37 183 24 239 55 286 159 19 41
21 65 21 264 0 244 -5 275 -58 336 -52 61 -96 79 -249 99 -103 14 -139 22
-153 37 -22 23 -100 209 -100 239 0 13 34 66 76 121 42 55 85 117 95 139 25
55 25 146 -1 200 -26 54 -323 349 -372 370 -53 21 -150 20 -196 -4 -20 -11
-81 -53 -136 -95 -55 -42 -108 -76 -121 -76 -30 0 -216 78 -239 100 -15 14
-23 50 -37 153 -20 153 -38 197 -99 249 -55 48 -98 58 -239 58 -116 0 -123 -1
-146 -25z"/>
<path d="M1120 3907 c-49 -16 -133 -102 -148 -153 -28 -94 -8 -169 63 -239
103 -104 243 -101 340 7 25 28 45 56 45 64 0 11 23 14 112 14 l112 0 82 -80
82 -80 271 0 272 0 24 25 c16 15 25 36 25 55 0 19 -9 40 -25 55 l-24 25 -237
0 -238 0 -82 80 -82 80 -146 0 c-126 0 -146 2 -146 16 0 27 -101 119 -146 132
-49 14 -106 14 -154 -1z m135 -172 c50 -49 15 -135 -55 -135 -41 0 -80 39 -80
80 0 41 39 80 80 80 19 0 40 -9 55 -25z"/>
<path d="M2506 3577 c-34 -34 -35 -79 -1 -112 19 -20 34 -25 73 -25 27 0 89
-7 137 -15 414 -72 725 -443 725 -865 0 -421 -312 -793 -725 -865 -48 -8 -110
-15 -137 -15 -60 0 -98 -31 -98 -80 0 -19 9 -40 25 -55 29 -30 83 -33 220 -10
567 92 952 625 860 1190 -78 479 -474 840 -956 872 -95 6 -98 5 -123 -20z"/>
<path d="M880 3427 c-49 -16 -133 -102 -148 -153 -28 -94 -8 -169 63 -239 103
-104 243 -101 340 7 25 28 45 56 45 64 0 11 29 14 152 14 l152 0 82 -80 82
-80 351 0 352 0 24 25 c33 32 33 78 0 110 l-24 25 -317 0 -318 0 -82 80 -82
80 -186 0 c-162 0 -186 2 -186 16 0 27 -101 119 -146 132 -49 14 -106 14 -154
-1z m135 -172 c50 -49 15 -135 -55 -135 -41 0 -80 39 -80 80 0 41 39 80 80 80
19 0 40 -9 55 -25z"/>
<path d="M1600 2787 c-49 -16 -133 -102 -148 -153 -28 -94 -8 -169 63 -239
103 -104 243 -101 340 7 25 28 45 56 45 64 0 12 40 14 225 14 l226 0 24 25
c16 15 25 36 25 55 0 19 -9 40 -25 55 l-24 25 -226 0 c-197 0 -225 2 -225 16
0 27 -101 119 -146 132 -49 14 -106 14 -154 -1z m135 -172 c50 -49 15 -135
-55 -135 -19 0 -40 9 -55 25 -50 49 -15 135 55 135 19 0 40 -9 55 -25z"/>
<path d="M880 2147 c-49 -16 -133 -102 -148 -153 -28 -94 -8 -169 63 -239 103
-104 243 -101 340 7 25 28 45 56 45 64 0 11 34 14 186 14 l186 0 82 80 82 80
318 0 317 0 24 25 c33 32 33 78 0 110 l-24 25 -352 0 -351 0 -82 -80 -82 -80
-152 0 c-131 0 -152 2 -152 16 0 27 -101 119 -146 132 -49 14 -106 14 -154 -1z
m135 -172 c16 -15 25 -36 25 -55 0 -19 -9 -40 -25 -55 -15 -16 -36 -25 -55
-25 -19 0 -40 9 -55 25 -16 15 -25 36 -25 55 0 19 9 40 25 55 15 16 36 25 55
25 19 0 40 -9 55 -25z"/>
<path d="M1120 1667 c-49 -16 -133 -102 -148 -153 -28 -94 -8 -169 63 -239
103 -104 243 -101 340 7 25 28 45 56 45 64 0 11 28 14 146 14 l146 0 82 80 82
80 238 0 237 0 24 25 c16 15 25 36 25 55 0 19 -9 40 -25 55 l-24 25 -272 0
-271 0 -82 -80 -82 -80 -112 0 c-95 0 -112 2 -112 16 0 27 -101 119 -146 132
-49 14 -106 14 -154 -1z m135 -172 c16 -15 25 -36 25 -55 0 -19 -9 -40 -25
-55 -15 -16 -36 -25 -55 -25 -19 0 -40 9 -55 25 -16 15 -25 36 -25 55 0 19 9
40 25 55 15 16 36 25 55 25 19 0 40 -9 55 -25z"/>
<path d="M1605 1080 l-121 -120 -192 0 c-168 0 -192 2 -192 16 0 27 -101 119
-146 132 -94 28 -169 8 -239 -63 -102 -101 -102 -229 0 -330 103 -104 243
-101 340 7 25 28 45 56 45 64 0 12 40 14 227 14 l226 0 122 120 121 120 277 0
278 0 24 25 c16 15 25 36 25 55 0 19 -9 40 -25 55 l-24 25 -312 0 -312 0 -122
-120z m-670 -145 c16 -15 25 -36 25 -55 0 -19 -9 -40 -25 -55 -15 -16 -36 -25
-55 -25 -19 0 -40 9 -55 25 -16 15 -25 36 -25 55 0 19 9 40 25 55 15 16 36 25
55 25 19 0 40 -9 55 -25z"/>
</g>
</svg>
