<?xml version="1.0" standalone="no"?>
<!DOCTYPE svg PUBLIC "-//W3C//DTD SVG 20010904//EN"
 "http://www.w3.org/TR/2001/REC-SVG-20010904/DTD/svg10.dtd">
<svg version="1.0" xmlns="http://www.w3.org/2000/svg"
 width="474.000000pt" height="670.000000pt" viewBox="0 0 474.000000 670.000000"
 preserveAspectRatio="xMidYMid meet">

<g transform="translate(0.000000,670.000000) scale(0.100000,-0.100000)"
fill="#000000" stroke="none">
<path d="M0 3350 l0 -3350 2350 0 2349 0 4 73 3 72 2 -72 c2 -57 5 -73 17 -73
13 0 15 379 15 3350 l0 3350 -2370 0 -2370 0 0 -3350z m4064 504 c29 -11 17
-21 -24 -21 -39 0 -53 10 -27 20 18 8 33 8 51 1z m-374 -134 c0 -5 -6 -10 -14
-10 -8 0 -18 5 -21 10 -3 6 3 10 14 10 12 0 21 -4 21 -10z m4 -111 c-3 -5 -10
-7 -15 -3 -5 3 -7 10 -3 15 3 5 10 7 15 3 5 -3 7 -10 3 -15z m-824 -60 c0 -5
-4 -9 -10 -9 -5 0 -10 7 -10 16 0 8 5 12 10 9 6 -3 10 -10 10 -16z m314 -104
c15 -8 35 -15 42 -15 8 0 14 -7 14 -15 0 -11 -11 -15 -39 -15 -55 0 -71 8 -71
36 0 28 13 30 54 9z m-318 -8 c4 -4 -10 -14 -31 -22 -45 -19 -52 -16 -25 12
18 21 42 25 56 10z m-2238 -46 c20 -12 36 -169 20 -189 -11 -13 -43 -14 -226
-10 -118 3 -218 10 -223 15 -9 9 -14 106 -10 165 0 9 11 19 24 21 42 8 402 7
415 -2z m3626 -148 c20 -39 62 -77 71 -64 3 6 11 11 17 11 6 0 6 -6 -2 -15 -9
-11 -10 -19 -2 -27 12 -12 32 -2 32 16 0 34 69 54 97 28 10 -9 17 -16 15 -16
-2 1 -14 -9 -27 -22 -30 -30 -42 -30 -51 -2 -6 21 -7 21 -21 -5 -18 -36 -35
-34 -84 10 -63 57 -98 142 -82 201 6 23 8 17 15 -30 4 -32 14 -70 22 -85z
m-1434 122 c0 -3 -12 -17 -27 -30 -47 -41 -86 -27 -46 17 14 16 73 26 73 13z
m475 -25 c3 -5 1 -10 -4 -10 -6 0 -11 5 -11 10 0 6 2 10 4 10 3 0 8 -4 11 -10z
m1100 1 c3 -5 1 -12 -5 -16 -5 -3 -10 1 -10 9 0 18 6 21 15 7z m-120 -31 c3
-5 -1 -10 -9 -10 -9 0 -16 5 -16 10 0 6 4 10 9 10 6 0 13 -4 16 -10z m-1067
-24 c3 -15 1 -16 -17 -6 -12 6 -19 16 -15 21 9 15 28 5 32 -15z m525 -6 c-9
-16 -22 -30 -29 -30 -6 0 -15 -10 -21 -22 -7 -15 -12 -18 -17 -10 -5 8 5 24
23 41 17 16 31 34 31 40 0 6 7 11 16 11 13 0 13 -4 -3 -30z m696 11 c12 -8 12
-12 -1 -25 -9 -9 -18 -21 -20 -28 -6 -16 -28 0 -28 21 0 16 18 41 30 41 3 0
11 -4 19 -9z m-1012 -17 c11 -29 -12 -35 -37 -9 l-23 25 27 0 c15 0 29 -7 33
-16z m-670 -15 c16 -16 4 -61 -16 -57 -17 3 -26 31 -17 54 6 17 18 18 33 3z
m313 1 c0 -5 -13 -10 -30 -10 -16 0 -30 5 -30 10 0 6 14 10 30 10 17 0 30 -4
30 -10z m86 -15 c-2 -7 5 -16 17 -20 21 -6 21 -7 -7 -17 -20 -8 -30 -7 -35 1
-5 7 -15 3 -31 -14 -13 -14 -20 -25 -15 -25 4 0 14 8 21 17 7 10 16 15 20 10
4 -4 -1 -15 -12 -25 -21 -20 -82 -17 -119 7 -13 8 -14 11 -3 7 9 -2 19 -2 22
2 4 3 19 6 34 7 18 0 30 7 36 21 17 39 87 67 72 29z m1159 -5 c-3 -5 -13 -10
-21 -10 -8 0 -14 5 -14 10 0 6 9 10 21 10 11 0 17 -4 14 -10z m-685 -10 c0 -5
7 -10 15 -10 8 0 15 -4 15 -8 0 -16 -25 -32 -50 -32 -30 0 -50 17 -50 42 0 14
8 18 35 18 19 0 35 -4 35 -10z m-826 -16 c5 -14 4 -15 -9 -4 -17 14 -19 20 -6
20 5 0 12 -7 15 -16z m171 6 c-3 -5 -10 -10 -16 -10 -5 0 -9 5 -9 10 0 6 7 10
16 10 8 0 12 -4 9 -10z m-1570 -20 c-5 -16 -2 -20 17 -21 18 -1 19 -2 5 -6
-11 -3 -27 4 -38 16 -24 26 -24 31 2 31 16 0 19 -4 14 -20z m1525 10 c0 -5 -9
-10 -20 -10 -11 0 -20 5 -20 10 0 6 9 10 20 10 11 0 20 -4 20 -10z m585 -20
c16 -17 16 -20 2 -20 -8 0 -17 -4 -19 -9 -4 -12 -58 -2 -58 10 0 5 12 9 28 9
l27 1 -25 14 -25 14 26 1 c14 0 34 -9 44 -20z m-253 -2 c-9 -9 -15 -9 -24 0
-9 9 -7 12 12 12 19 0 21 -3 12 -12z m-1885 -13 c8 -9 12 -19 9 -23 -4 -3 -11
0 -16 8 -5 8 -12 11 -16 7 -4 -4 -14 -1 -22 6 -12 9 -16 9 -19 0 -3 -7 -8 -13
-13 -13 -4 0 -10 6 -13 13 -7 19 70 21 90 2z m123 11 c0 -2 -11 -6 -25 -8 -14
-3 -25 -1 -25 3 0 5 11 9 25 9 14 0 25 -2 25 -4z m1693 -10 c8 -21 -20 -43
-35 -28 -9 9 -9 12 0 12 7 0 12 7 12 15 0 19 16 20 23 1z m237 -6 c0 -4 -10
-10 -22 -14 -42 -11 -51 -6 -27 13 22 18 49 18 49 1z m130 10 c0 -5 -4 -10
-10 -10 -5 0 -10 5 -10 10 0 6 5 10 10 10 6 0 10 -4 10 -10z m-784 -27 c-7 -7
-26 7 -26 19 0 6 6 6 15 -2 9 -7 13 -15 11 -17z m1752 -56 c6 -6 13 -24 17
-40 6 -24 4 -27 -17 -27 -13 0 -29 -5 -36 -12 -9 -9 -15 -9 -23 -1 -9 9 -20 4
-43 -18 -36 -33 -71 -42 -42 -10 11 12 14 21 7 25 -7 5 -7 13 -2 24 5 9 12 25
15 36 5 13 13 17 30 14 13 -3 32 1 42 9 22 16 39 17 52 0z m-3438 -63 c0 -16
26 -19 32 -5 3 10 35 11 153 8 42 -1 59 -6 58 -14 -2 -8 7 -13 20 -13 18 0 19
2 7 10 -11 7 -4 10 26 10 25 0 47 -6 54 -15 17 -20 15 -21 -47 -28 -42 -5 -57
-2 -75 13 -17 13 -28 16 -41 8 -15 -8 -16 -12 -6 -25 11 -13 8 -14 -24 -8 -23
5 -37 3 -37 -3 0 -6 -16 -8 -40 -5 -24 4 -40 2 -40 -5 0 -13 44 -24 65 -16 9
4 15 3 14 -2 -4 -21 2 -26 16 -14 9 7 22 9 32 4 21 -9 50 -15 77 -15 10 0 21
-9 23 -20 4 -13 8 -17 13 -9 4 6 27 13 51 15 24 2 60 6 79 9 19 2 54 2 77 -1
34 -4 43 -10 51 -32 11 -31 4 -82 -12 -94 -6 -4 1 -5 16 -1 17 4 37 0 57 -12
35 -21 33 -15 35 -109 l1 -70 30 -3 c84 -7 118 -14 105 -22 -11 -7 -11 -11 -1
-23 18 -23 1 -28 -91 -29 -49 -1 -71 -4 -53 -8 28 -5 29 -6 10 -18 -16 -9 34
-12 240 -13 254 -1 309 -3 350 -14 11 -2 44 -34 74 -70 102 -123 233 -159 370
-102 35 15 65 26 66 24 1 -1 5 -19 8 -40 5 -34 4 -36 -13 -27 -11 6 -21 6 -24
1 -4 -5 0 -12 6 -14 7 -3 3 -6 -9 -6 -13 -1 -23 -5 -23 -10 0 -5 -12 -11 -27
-14 -25 -5 -33 -1 -68 31 -7 6 -26 12 -42 12 -15 0 -44 4 -63 10 -36 10 -72
14 -251 26 -76 5 -108 3 -113 -5 -5 -8 -12 -7 -22 4 -9 8 -25 15 -38 15 -12 0
-127 7 -256 15 -409 25 -446 26 -430 15 12 -8 11 -10 -8 -10 -13 0 -21 4 -18
9 3 5 -11 11 -32 15 -55 9 -84 7 -77 -4 4 -6 -5 -10 -20 -10 -14 0 -24 -4 -21
-8 3 -5 26 -6 51 -2 25 4 45 3 45 -2 0 -4 18 -8 40 -8 27 0 43 -5 46 -15 4
-10 13 -13 24 -10 10 3 21 1 25 -5 3 -6 11 -8 16 -5 5 4 51 -1 101 -10 51 -9
120 -15 153 -14 33 2 77 -3 98 -10 21 -7 48 -11 59 -8 28 8 186 -10 221 -25
23 -9 31 -8 37 2 6 10 30 10 109 3 57 -5 108 -5 117 0 9 5 20 4 29 -3 12 -10
66 -15 245 -24 36 -2 76 -8 90 -13 29 -11 110 -5 110 8 0 5 -10 14 -22 19 -13
5 -17 9 -9 9 12 1 112 -74 175 -131 11 -10 25 -18 30 -18 6 0 26 -15 44 -34
l33 -34 -46 2 c-25 1 -45 -1 -45 -4 0 -3 -51 -4 -112 -3 l-113 2 60 -14 c33
-8 115 -14 182 -15 120 0 123 -1 155 -29 18 -15 43 -33 56 -40 45 -24 25 -34
-54 -27 -52 5 -74 4 -69 -4 3 -6 -3 -10 -14 -10 -12 0 -20 5 -19 12 3 14 -37
22 -187 38 -218 22 -382 39 -480 50 -361 39 -966 90 -977 83 -5 -3 -70 -6
-143 -7 -73 0 -137 -5 -142 -10 -4 -5 -3 -6 4 -2 6 3 14 2 18 -4 3 -5 -7 -12
-22 -15 -15 -4 -37 -11 -48 -17 -14 -8 -20 -8 -23 1 -2 6 -11 11 -20 11 -14 0
-15 -2 -2 -10 18 -11 14 -15 -30 -34 l-35 -15 25 -10 25 -10 -25 0 -25 -1 29
-15 c20 -10 33 -12 41 -5 6 5 15 7 19 3 4 -4 19 -8 34 -9 64 -3 72 -5 72 -19
0 -11 10 -13 45 -9 28 3 45 1 45 -6 0 -5 10 -10 23 -10 12 0 42 -7 66 -16 25
-8 54 -13 65 -10 12 3 55 -1 96 -9 41 -7 67 -14 57 -14 -10 -1 -15 -5 -12 -11
3 -5 -1 -10 -10 -10 -9 0 -23 -7 -32 -16 -14 -14 -18 -13 -37 5 -12 12 -31 21
-42 20 -15 -1 -14 -3 6 -9 23 -7 22 -8 -10 -9 -51 0 -124 15 -128 28 -2 6 -18
11 -35 10 -26 0 -28 -2 -12 -8 19 -8 19 -8 -2 -15 -14 -4 -31 -1 -47 9 -16 11
-26 12 -31 6 -3 -6 -22 -8 -43 -5 -47 7 -58 8 -109 6 -43 -2 -58 -17 -25 -25
14 -4 13 -5 -4 -6 -11 0 -25 4 -31 10 -9 9 -23 9 -55 0 -73 -19 -161 -21 -180
-3 -16 14 -18 14 -18 -1 0 -10 -6 -13 -19 -10 -10 3 -22 0 -25 -6 -4 -6 -2
-11 3 -11 6 0 11 -4 11 -8 0 -10 -60 -10 -76 0 -6 4 -33 -4 -60 -17 -27 -14
-56 -25 -65 -25 -16 0 -49 -30 -34 -30 4 0 2 -6 -4 -14 -8 -10 -9 -16 -1 -21
5 -3 10 -10 10 -15 0 -15 -152 1 -177 18 -20 13 -23 12 -29 -2 -3 -9 -14 -16
-23 -17 -11 0 -9 -3 6 -9 31 -13 20 -42 -12 -34 -13 3 -31 1 -41 -4 -33 -18
59 -57 191 -81 66 -11 145 -25 175 -31 30 -6 96 -17 145 -25 50 -8 122 -21
160 -29 39 -7 93 -17 120 -20 28 -4 97 -16 155 -27 58 -10 132 -24 165 -30
150 -27 142 -50 -17 -50 -117 0 -195 10 -388 46 -74 14 -157 29 -185 34 -27 5
-111 19 -185 31 -74 12 -169 27 -210 35 -146 26 -285 48 -307 49 l-23 0 0 701
c0 455 4 695 10 685 7 -11 10 -11 10 -2 0 10 22 12 97 8 115 -7 143 -13 143
-33 0 -9 -6 -13 -15 -9 -9 3 -15 0 -15 -8 0 -8 8 -13 17 -12 10 0 19 -9 23
-23 4 -19 13 -26 40 -29 19 -2 42 -10 51 -18 25 -22 89 -23 89 -1 0 8 9 22 19
31 11 10 17 24 14 32 -3 8 0 28 7 44 10 25 18 30 47 30 19 0 41 7 50 15 8 8
18 13 23 10 4 -3 6 4 3 15 -4 14 0 20 10 20 8 0 18 6 20 13 3 6 6 2 6 -11 1
-12 8 -25 16 -28 8 -4 15 -14 15 -23 1 -9 7 -1 15 18 12 27 19 32 37 28 14 -4
32 1 47 12 l24 19 -22 7 c-13 4 -21 13 -19 23 3 14 14 16 67 14 57 -4 66 -2
85 21 11 13 36 34 55 45 31 19 36 19 57 5 13 -8 24 -22 24 -29z m1325 -28
c-33 -30 -62 -52 -64 -50 -8 7 52 76 82 94 53 32 44 12 -18 -44z m1425 54 c0
-5 -11 -10 -25 -10 -14 0 -25 -5 -25 -11 0 -5 -4 -7 -10 -4 -15 9 12 34 38 35
12 0 22 -4 22 -10z m-70 -41 c0 -5 -9 -9 -20 -9 -19 0 -26 11 -14 23 8 8 34
-3 34 -14z m-2270 -9 c0 -5 -7 -10 -15 -10 -8 0 -15 5 -15 10 0 6 7 10 15 10
8 0 15 -4 15 -10z m64 -5 c-4 -8 -10 -12 -15 -9 -14 8 -10 24 6 24 9 0 12 -6
9 -15z m1136 -67 c0 -20 -92 -88 -120 -88 -11 0 -20 3 -20 6 0 22 58 107 84
124 l31 19 12 -22 c7 -12 12 -29 13 -39z m1203 55 c-7 -2 -21 -2 -30 0 -10 3
-4 5 12 5 17 0 24 -2 18 -5z m-722 -45 c10 -13 18 -30 19 -38 0 -15 -49 37
-50 53 0 13 12 7 31 -15z m-452 -74 c-10 -13 -63 -51 -108 -78 -29 -18 -4 12
47 58 29 25 58 44 63 40 6 -4 6 -11 -2 -20z m1988 -81 c-2 -16 -4 -5 -4 22 0
28 2 40 4 28 2 -13 2 -35 0 -50z m-28 -54 c21 33 26 3 31 -164 3 -99 5 -182 4
-183 -2 -2 -36 8 -76 22 -49 17 -92 25 -125 23 -28 -1 -55 1 -58 5 -4 4 7 19
25 34 39 34 94 148 110 229 17 91 17 91 51 54 22 -24 33 -29 38 -20z m-2144 1
c-3 -5 -11 -10 -16 -10 -6 0 -7 5 -4 10 3 6 11 10 16 10 6 0 7 -4 4 -10z
m2003 -142 c-10 -33 -127 -64 -143 -38 -3 6 0 10 9 10 8 0 16 5 18 11 2 6 22
15 43 19 61 12 77 11 73 -2z m-2255 -55 c7 -36 -4 -47 -42 -38 -41 9 -39 29 4
53 29 16 32 15 38 -15z m462 -53 c-3 -5 -11 -10 -16 -10 -6 0 -7 5 -4 10 3 6
11 10 16 10 6 0 7 -4 4 -10z m-189 -30 c12 -12 91 -16 129 -6 29 8 29 8 10 -7
-30 -24 -117 -22 -146 3 -13 10 -19 19 -13 20 5 0 14 -4 20 -10z m544 -40 c0
-5 -14 -10 -31 -10 -17 0 -28 4 -24 10 3 6 17 10 31 10 13 0 24 -4 24 -10z
m-419 -23 c-13 -13 -26 -3 -16 12 3 6 11 8 17 5 6 -4 6 -10 -1 -17z m1889 -67
c12 -8 11 -10 -7 -10 -12 0 -25 5 -28 10 -8 13 15 13 35 0z m-2053 -76 c-3 -3
-12 -4 -19 -1 -8 3 -5 6 6 6 11 1 17 -2 13 -5z m20 -20 c-3 -3 -12 -4 -19 -1
-8 3 -5 6 6 6 11 1 17 -2 13 -5z m1686 -76 c9 -5 17 -16 17 -26 0 -12 -2 -14
-8 -4 -10 15 -61 31 -80 25 -6 -3 -10 -9 -6 -14 8 -13 -8 -10 -28 5 -34 26
-21 37 35 30 28 -4 60 -11 70 -16z m207 -29 c0 -7 -11 -9 -30 -6 -22 5 -28 3
-24 -7 3 -9 -5 -15 -25 -18 -30 -4 -31 0 -8 30 12 15 87 16 87 1z m103 -6
c-18 -2 -48 -2 -65 0 -18 2 -4 4 32 4 36 0 50 -2 33 -4z m-379 -9 c23 -9 20
-23 -4 -17 -11 3 -20 9 -20 14 0 11 3 11 24 3z m453 0 c-3 -3 -12 -4 -19 -1
-8 3 -5 6 6 6 11 1 17 -2 13 -5z m48 -14 c3 -5 2 -10 -4 -10 -5 0 -13 5 -16
10 -3 6 -2 10 4 10 5 0 13 -4 16 -10z m-230 -40 c-3 -5 -10 -10 -16 -10 -5 0
-9 5 -9 10 0 6 7 10 16 10 8 0 12 -4 9 -10z m285 -57 c0 -18 -4 -23 -17 -20
-10 3 -43 11 -73 17 -103 23 -108 28 -26 27 57 -2 80 2 84 11 7 21 32 -6 32
-35z m-1405 27 c3 -5 -1 -10 -9 -10 -9 0 -16 5 -16 10 0 6 4 10 9 10 6 0 13
-4 16 -10z m1192 4 c-3 -3 -12 -4 -19 -1 -8 3 -5 6 6 6 11 1 17 -2 13 -5z
m-254 -15 c31 -7 57 -16 57 -21 0 -6 11 -8 23 -4 13 3 62 -1 108 -10 46 -9
105 -18 132 -21 35 -4 47 -10 47 -23 0 -26 12 -32 26 -12 10 13 15 14 25 5 10
-10 9 -16 -2 -29 -13 -16 -11 -17 21 -12 l35 6 0 -72 c-1 -39 -2 -107 -3 -151
l-2 -80 -21 40 c-112 209 -259 321 -455 350 -49 7 -81 13 -70 14 12 1 16 6 12
16 -7 18 -5 18 67 4z m-853 -19 c0 -5 -5 -10 -11 -10 -5 0 -7 5 -4 10 3 6 8
10 11 10 2 0 4 -4 4 -10z m633 -7 c-7 -2 -19 -2 -25 0 -7 3 -2 5 12 5 14 0 19
-2 13 -5z m-616 -129 c-3 -3 -12 -4 -19 -1 -8 3 -5 6 6 6 11 1 17 -2 13 -5z
m16 -51 c-7 -2 -19 -2 -25 0 -7 3 -2 5 12 5 14 0 19 -2 13 -5z m-1695 -48 c0
-15 -6 -25 -15 -25 -10 0 -13 6 -9 16 3 9 6 20 6 25 0 5 4 9 9 9 5 0 9 -11 9
-25z m1891 8 c0 -11 -3 -13 -6 -5 -2 6 -9 10 -13 7 -5 -3 -11 -1 -15 5 -3 5 3
10 14 10 14 0 21 -6 20 -17z m-1919 -3 c0 -12 -8 -12 -35 0 -18 8 -17 9 8 9
15 1 27 -3 27 -9z m114 -2 c16 1 35 -3 42 -9 7 -6 18 -8 24 -4 18 11 230 -6
243 -19 7 -8 26 -10 56 -6 58 8 98 6 133 -9 16 -6 70 -12 120 -15 128 -6 260
-17 278 -23 8 -3 26 -6 40 -7 14 -1 35 -5 48 -10 14 -4 22 -3 22 3 0 14 37 14
45 1 4 -6 9 -9 13 -6 4 2 32 -1 62 -6 65 -11 144 -21 340 -43 80 -9 177 -21
215 -26 39 -5 102 -12 140 -15 39 -3 74 -9 79 -14 5 -5 11 -34 14 -64 4 -46 1
-56 -16 -65 -10 -6 -22 -7 -26 -4 -3 3 -6 -1 -6 -10 0 -9 -5 -19 -10 -22 -15
-9 -50 4 -50 19 0 10 -13 12 -50 8 -46 -4 -50 -3 -59 21 -8 21 -18 26 -70 32
-33 4 -65 13 -72 21 -7 9 -28 14 -53 13 -50 -1 -160 8 -184 15 -9 3 -55 10
-102 16 -47 5 -110 15 -140 21 -30 6 -84 12 -120 14 -36 3 -105 11 -155 20
-49 9 -122 17 -162 18 -42 1 -77 7 -84 15 -8 7 -38 12 -70 12 -65 0 -161 19
-171 34 -4 5 -24 11 -46 12 -61 3 -82 12 -75 32 6 16 5 16 -11 0 -23 -24 -33
-23 -52 7 -18 27 -37 34 -28 10 5 -12 1 -13 -26 -4 -17 7 -54 9 -81 6 -41 -5
-50 -3 -59 13 -15 28 -12 32 13 24 12 -5 35 -7 51 -6z m1984 -48 c17 -27 10
-25 -19 6 -13 14 -17 23 -9 19 9 -3 21 -14 28 -25z m-3401 -136 c-3 -3 -12 -4
-19 -1 -8 3 -5 6 6 6 11 1 17 -2 13 -5z m-352 -237 c4 -54 12 -93 21 -101 19
-20 19 -43 0 -27 -23 20 -27 -12 -24 -223 1 -107 -1 -198 -5 -202 -4 -4 -7
143 -6 327 0 184 2 330 4 324 2 -5 7 -49 10 -98z m4439 31 c-4 -24 -7 -49 -5
-57 1 -7 -2 -10 -8 -7 -5 4 -14 -2 -20 -11 -19 -35 -21 -5 -1 33 10 21 22 52
25 68 9 46 18 22 9 -26z m-4244 33 c0 -5 -7 -12 -16 -15 -22 -9 -24 -8 -24 9
0 8 9 15 20 15 11 0 20 -4 20 -9z m-153 -131 c-1 -11 -7 -20 -14 -20 -16 0
-17 12 -1 28 16 16 17 15 15 -8z m4374 -17 c-12 -20 -14 -14 -5 12 4 9 9 14
11 11 3 -2 0 -13 -6 -23z m230 -146 c-12 -23 -33 -53 -48 -67 l-26 -25 16 32
c9 17 21 34 26 38 13 7 41 64 42 84 1 13 2 12 6 -2 2 -9 -5 -36 -16 -60z
m-4551 -21 c0 -11 -19 -15 -25 -6 -3 5 1 10 9 10 9 0 16 -2 16 -4z m-73 -28
c-3 -8 -6 -5 -6 6 -1 11 2 17 5 13 3 -3 4 -12 1 -19z m4528 -68 c-3 -5 -12
-10 -18 -10 -7 0 -6 4 3 10 19 12 23 12 15 0z m-4513 -47 c8 -10 6 -13 -6 -13
-12 0 -16 9 -15 33 1 21 3 25 6 12 3 -11 10 -26 15 -32z m33 17 c-3 -5 -13
-10 -21 -10 -8 0 -14 5 -14 10 0 6 9 10 21 10 11 0 17 -4 14 -10z m-28 -72
c-3 -8 -6 -5 -6 6 -1 11 2 17 5 13 3 -3 4 -12 1 -19z m4620 -120 c-3 -8 -6 -5
-6 6 -1 11 2 17 5 13 3 -3 4 -12 1 -19z m-4670 -60 c-2 -13 -4 -3 -4 22 0 25
2 35 4 23 2 -13 2 -33 0 -45z m0 -85 c-3 -10 -5 -2 -5 17 0 19 2 27 5 18 2
-10 2 -26 0 -35z m4671 -198 c0 -121 -3 -205 -5 -187 -4 28 -7 31 -24 22 -17
-10 -19 -7 -19 25 0 22 -4 34 -10 30 -5 -3 -10 0 -10 8 0 21 -29 30 -36 12 -4
-8 -15 -15 -25 -15 -20 0 -26 15 -9 25 15 9 12 28 -4 22 -11 -4 -12 8 -9 65 3
45 0 74 -8 84 -9 11 -8 14 5 14 9 0 16 5 16 10 0 7 -6 7 -19 0 -26 -14 -31
-13 -25 5 4 9 -2 18 -17 24 -13 5 -32 19 -43 32 l-18 22 40 -7 c24 -3 43 -2
47 4 3 5 23 10 43 11 20 0 45 4 55 8 10 4 32 7 48 6 l29 0 -2 -220z m-173 65
c18 -36 19 -40 2 -40 -8 0 -13 10 -13 23 1 16 -5 23 -21 25 -28 4 -30 22 -3
22 11 0 26 -12 35 -30z m-32 -61 c-7 -27 -23 -24 -23 6 0 17 4 23 14 19 8 -3
12 -13 9 -25z m-40 2 c-5 -18 -33 -38 -33 -24 0 6 30 43 36 43 1 0 0 -9 -3
-19z m70 -38 c-7 -2 -19 -2 -25 0 -7 3 -2 5 12 5 14 0 19 -2 13 -5z m-33 -27
c0 -9 -30 -14 -35 -6 -4 6 3 10 14 10 12 0 21 -2 21 -4z m160 -212 c0 -10 -11
-11 -38 -5 -2 1 -1 5 2 9 8 13 36 10 36 -4z m47 -6 c-3 -8 -6 -5 -6 6 -1 11 2
17 5 13 3 -3 4 -12 1 -19z m-40 -40 c-3 -8 -6 -5 -6 6 -1 11 2 17 5 13 3 -3 4
-12 1 -19z m20 -10 c-3 -7 -5 -2 -5 12 0 14 2 19 5 13 2 -7 2 -19 0 -25z"/>
<path d="M4456 3062 c-3 -6 -1 -14 5 -17 15 -10 25 3 12 16 -7 7 -13 7 -17 1z"/>
<path d="M4405 3030 c-3 -5 -1 -10 4 -10 6 0 11 5 11 10 0 6 -2 10 -4 10 -3 0
-8 -4 -11 -10z"/>
<path d="M1120 2990 c0 -5 5 -10 11 -10 5 0 7 5 4 10 -3 6 -8 10 -11 10 -2 0
-4 -4 -4 -10z"/>
<path d="M1440 2891 c0 -5 7 -11 15 -15 8 -3 15 -1 15 3 0 5 -7 11 -15 15 -8
3 -15 1 -15 -3z"/>
<path d="M671 2874 c0 -11 3 -14 6 -6 3 7 2 16 -1 19 -3 4 -6 -2 -5 -13z"/>
<path d="M1447 2783 c-10 -10 -8 -23 4 -23 5 0 8 4 5 9 -4 5 0 12 6 14 7 3 8
6 2 6 -6 1 -14 -2 -17 -6z"/>
<path d="M1358 2773 c7 -3 16 -2 19 1 4 3 -2 6 -13 5 -11 0 -14 -3 -6 -6z"/>
<path d="M358 2703 c7 -3 16 -2 19 1 4 3 -2 6 -13 5 -11 0 -14 -3 -6 -6z"/>
<path d="M460 2685 c-6 -8 -9 -19 -5 -25 11 -17 22 -11 27 15 6 28 -3 32 -22
10z"/>
<path d="M41 2586 c7 -7 70 -11 324 -20 94 -4 198 -9 233 -12 37 -3 61 -1 58
4 -6 10 -134 19 -426 28 -107 4 -192 4 -189 0z"/>
<path d="M798 2553 c12 -2 30 -2 40 0 9 3 -1 5 -23 4 -22 0 -30 -2 -17 -4z"/>
<path d="M903 2543 c26 -2 68 -2 95 0 26 2 4 3 -48 3 -52 0 -74 -1 -47 -3z"/>
<path d="M1155 2540 c-13 -6 5 -9 54 -9 41 -1 72 1 70 3 -10 8 -106 13 -124 6z"/>
<path d="M1315 2533 c13 -14 342 -25 350 -13 4 6 -32 10 -92 10 -54 0 -136 3
-183 6 -57 4 -82 3 -75 -3z"/>
<path d="M1005 2360 c75 -12 113 -12 95 0 -8 5 -44 9 -80 9 l-65 -2 50 -7z"/>
<path d="M1145 2350 c11 -5 36 -9 55 -9 28 0 31 2 15 9 -11 5 -36 9 -55 9 -28
0 -31 -2 -15 -9z"/>
<path d="M1065 2330 c3 -5 12 -7 20 -3 21 7 19 13 -6 13 -11 0 -18 -4 -14 -10z"/>
<path d="M2716 2249 c4 -8 -1 -9 -17 -4 -18 5 -21 4 -13 -4 17 -18 68 -19 71
-1 3 11 -5 16 -22 18 -17 1 -24 -2 -19 -9z"/>
<path d="M2586 2071 c-8 -12 3 -41 15 -41 5 0 9 11 9 25 0 25 -14 34 -24 16z"/>
<path d="M1168 2063 c6 -2 18 -2 25 0 6 3 1 5 -13 5 -14 0 -19 -2 -12 -5z"/>
<path d="M1283 2053 c9 -2 25 -2 35 0 9 3 1 5 -18 5 -19 0 -27 -2 -17 -5z"/>
<path d="M2810 2050 c0 -5 6 -10 14 -10 8 0 18 5 21 10 3 6 -3 10 -14 10 -12
0 -21 -4 -21 -10z"/>
<path d="M1373 2043 c9 -2 25 -2 35 0 9 3 1 5 -18 5 -19 0 -27 -2 -17 -5z"/>
<path d="M2668 2033 c7 -3 16 -2 19 1 4 3 -2 6 -13 5 -11 0 -14 -3 -6 -6z"/>
<path d="M2720 2030 c0 -5 5 -10 10 -10 6 0 10 5 10 10 0 6 -4 10 -10 10 -5 0
-10 -4 -10 -10z"/>
<path d="M2790 2030 c8 -5 20 -10 25 -10 6 0 3 5 -5 10 -8 5 -19 10 -25 10 -5
0 -3 -5 5 -10z"/>
<path d="M2458 1983 c6 -2 18 -2 25 0 6 3 1 5 -13 5 -14 0 -19 -2 -12 -5z"/>
<path d="M2538 1973 c7 -3 16 -2 19 1 4 3 -2 6 -13 5 -11 0 -14 -3 -6 -6z"/>
<path d="M2668 1963 c6 -2 18 -2 25 0 6 3 1 5 -13 5 -14 0 -19 -2 -12 -5z"/>
<path d="M2768 1953 c6 -2 18 -2 25 0 6 3 1 5 -13 5 -14 0 -19 -2 -12 -5z"/>
<path d="M2843 1943 c9 -2 23 -2 30 0 6 3 -1 5 -18 5 -16 0 -22 -2 -12 -5z"/>
<path d="M2945 1940 c-4 -6 7 -10 27 -10 25 0 29 3 18 10 -19 13 -37 13 -45 0z"/>
<path d="M641 1776 c12 -10 79 -16 79 -6 0 5 -19 10 -42 10 -23 0 -39 -2 -37
-4z"/>
<path d="M110 1541 c8 -4 42 -11 75 -15 35 -3 54 -2 45 3 -8 4 -42 11 -75 15
-35 3 -54 2 -45 -3z"/>
<path d="M4601 2698 c0 -9 -4 -25 -7 -35 -5 -14 -4 -15 5 -7 7 7 11 22 8 35
-2 13 -5 16 -6 7z"/>
<path d="M4455 2580 c-16 -7 -17 -9 -3 -9 9 -1 20 4 23 9 7 11 7 11 -20 0z"/>
<path d="M2048 1723 c7 -3 16 -2 19 1 4 3 -2 6 -13 5 -11 0 -14 -3 -6 -6z"/>
</g>
</svg>
